%TF.GenerationSoftware,KiCad,Pcbnew,10.0.4*%
%TF.CreationDate,2026-07-02T19:08:18+08:00*%
%TF.ProjectId,pcb nameplate,70636220-6e61-46d6-9570-6c6174652e6b,rev?*%
%TF.SameCoordinates,Original*%
%TF.FileFunction,Copper,L1,Top*%
%TF.FilePolarity,Positive*%
%FSLAX46Y46*%
G04 Gerber Fmt 4.6, Leading zero omitted, Abs format (unit mm)*
G04 Created by KiCad (PCBNEW 10.0.4) date 2026-07-02 19:08:18*
%MOMM*%
%LPD*%
G01*
G04 APERTURE LIST*
G04 Aperture macros list*
%AMRoundRect*
0 Rectangle with rounded corners*
0 $1 Rounding radius*
0 $2 $3 $4 $5 $6 $7 $8 $9 X,Y pos of 4 corners*
0 Add a 4 corners polygon primitive as box body*
4,1,4,$2,$3,$4,$5,$6,$7,$8,$9,$2,$3,0*
0 Add four circle primitives for the rounded corners*
1,1,$1+$1,$2,$3*
1,1,$1+$1,$4,$5*
1,1,$1+$1,$6,$7*
1,1,$1+$1,$8,$9*
0 Add four rect primitives between the rounded corners*
20,1,$1+$1,$2,$3,$4,$5,0*
20,1,$1+$1,$4,$5,$6,$7,0*
20,1,$1+$1,$6,$7,$8,$9,0*
20,1,$1+$1,$8,$9,$2,$3,0*%
G04 Aperture macros list end*
%TA.AperFunction,SMDPad,CuDef*%
%ADD10RoundRect,0.250000X-0.262500X-0.450000X0.262500X-0.450000X0.262500X0.450000X-0.262500X0.450000X0*%
%TD*%
%TA.AperFunction,SMDPad,CuDef*%
%ADD11RoundRect,0.250000X0.718438X-0.169842X0.537265X0.506306X-0.718438X0.169842X-0.537265X-0.506306X0*%
%TD*%
%TA.AperFunction,SMDPad,CuDef*%
%ADD12RoundRect,0.243750X-0.516516X0.028093X-0.310490X-0.413732X0.516516X-0.028093X0.310490X0.413732X0*%
%TD*%
%TA.AperFunction,SMDPad,CuDef*%
%ADD13RoundRect,0.150000X-0.512500X-0.150000X0.512500X-0.150000X0.512500X0.150000X-0.512500X0.150000X0*%
%TD*%
%TA.AperFunction,SMDPad,CuDef*%
%ADD14RoundRect,0.062500X-0.337500X-0.062500X0.337500X-0.062500X0.337500X0.062500X-0.337500X0.062500X0*%
%TD*%
%TA.AperFunction,SMDPad,CuDef*%
%ADD15RoundRect,0.062500X-0.062500X-0.337500X0.062500X-0.337500X0.062500X0.337500X-0.062500X0.337500X0*%
%TD*%
%TA.AperFunction,HeatsinkPad*%
%ADD16R,3.700000X3.700000*%
%TD*%
%TA.AperFunction,ComponentPad*%
%ADD17C,2.000000*%
%TD*%
%TA.AperFunction,SMDPad,CuDef*%
%ADD18RoundRect,0.250000X0.262500X0.450000X-0.262500X0.450000X-0.262500X-0.450000X0.262500X-0.450000X0*%
%TD*%
%TA.AperFunction,SMDPad,CuDef*%
%ADD19RoundRect,0.250000X-0.450000X0.262500X-0.450000X-0.262500X0.450000X-0.262500X0.450000X0.262500X0*%
%TD*%
%TA.AperFunction,SMDPad,CuDef*%
%ADD20RoundRect,0.243750X-0.353531X-0.377617X0.117358X-0.503791X0.353531X0.377617X-0.117358X0.503791X0*%
%TD*%
%TA.AperFunction,SMDPad,CuDef*%
%ADD21RoundRect,0.243750X-0.489429X-0.167443X-0.132894X-0.499917X0.489429X0.167443X0.132894X0.499917X0*%
%TD*%
%TA.AperFunction,SMDPad,CuDef*%
%ADD22RoundRect,0.243750X-0.479995X-0.192828X-0.106549X-0.506187X0.479995X0.192828X0.106549X0.506187X0*%
%TD*%
%TA.AperFunction,SMDPad,CuDef*%
%ADD23RoundRect,0.250000X-0.250000X-0.475000X0.250000X-0.475000X0.250000X0.475000X-0.250000X0.475000X0*%
%TD*%
%TA.AperFunction,SMDPad,CuDef*%
%ADD24RoundRect,0.250000X0.250000X0.475000X-0.250000X0.475000X-0.250000X-0.475000X0.250000X-0.475000X0*%
%TD*%
%TA.AperFunction,SMDPad,CuDef*%
%ADD25RoundRect,0.175000X-0.175000X-0.425000X0.175000X-0.425000X0.175000X0.425000X-0.175000X0.425000X0*%
%TD*%
%TA.AperFunction,SMDPad,CuDef*%
%ADD26RoundRect,0.190000X0.190000X0.410000X-0.190000X0.410000X-0.190000X-0.410000X0.190000X-0.410000X0*%
%TD*%
%TA.AperFunction,SMDPad,CuDef*%
%ADD27RoundRect,0.200000X0.200000X0.400000X-0.200000X0.400000X-0.200000X-0.400000X0.200000X-0.400000X0*%
%TD*%
%TA.AperFunction,SMDPad,CuDef*%
%ADD28RoundRect,0.175000X0.175000X0.425000X-0.175000X0.425000X-0.175000X-0.425000X0.175000X-0.425000X0*%
%TD*%
%TA.AperFunction,SMDPad,CuDef*%
%ADD29RoundRect,0.190000X-0.190000X-0.410000X0.190000X-0.410000X0.190000X0.410000X-0.190000X0.410000X0*%
%TD*%
%TA.AperFunction,SMDPad,CuDef*%
%ADD30RoundRect,0.200000X-0.200000X-0.400000X0.200000X-0.400000X0.200000X0.400000X-0.200000X0.400000X0*%
%TD*%
%TA.AperFunction,ComponentPad*%
%ADD31O,1.100000X1.700000*%
%TD*%
%TA.AperFunction,ViaPad*%
%ADD32C,0.600000*%
%TD*%
%TA.AperFunction,Conductor*%
%ADD33C,0.400000*%
%TD*%
%TA.AperFunction,Conductor*%
%ADD34C,0.200000*%
%TD*%
G04 APERTURE END LIST*
D10*
%TO.P,R8,2*%
%TO.N,Net-(U1-CHIP_EN)*%
X125912500Y-106000000D03*
%TO.P,R8,1*%
%TO.N,Net-(U1-VDD3P3_CPU)*%
X124087500Y-106000000D03*
%TD*%
D11*
%TO.P,AE1,1,FEED_1*%
%TO.N,GND*%
X144375287Y-102400592D03*
%TO.P,AE1,2,PCB_Trace_2*%
%TO.N,Net-(AE1-PCB_Trace)*%
X143624713Y-99599408D03*
%TD*%
D12*
%TO.P,D4,2,A_2*%
%TO.N,Net-(D4-A)*%
X95896205Y-108349664D03*
%TO.P,D4,1,K_1*%
%TO.N,GND*%
X95103795Y-106650336D03*
%TD*%
D13*
%TO.P,U2,1,VIN_1*%
%TO.N,Net-(U2-EN)*%
X135525000Y-113380000D03*
%TO.P,U2,2,GND_2*%
%TO.N,GND*%
X135525000Y-114330000D03*
%TO.P,U2,3,EN_3*%
%TO.N,Net-(U2-EN)*%
X135525000Y-115280000D03*
%TO.P,U2,4,NC_4*%
%TO.N,unconnected-(U2-NC-Pad4)*%
X137800000Y-115280000D03*
%TO.P,U2,5,VOUT_5*%
%TO.N,Net-(U1-VDD3P3_CPU)*%
X137800000Y-113380000D03*
%TD*%
D14*
%TO.P,U1,1,LNA_IN_1*%
%TO.N,Net-(AE1-PCB_Trace)*%
X125800000Y-98700000D03*
%TO.P,U1,2,VDD3P3_2*%
%TO.N,Net-(U1-VDD3P3_CPU)*%
X125800000Y-99200000D03*
%TO.P,U1,3,VDD3P3_3*%
X125800000Y-99700000D03*
%TO.P,U1,4,XTAL_32K_P_4*%
%TO.N,unconnected-(U1-XTAL_32K_P-Pad4)*%
X125800000Y-100200000D03*
%TO.P,U1,5,XTAL_32K_N_5*%
%TO.N,unconnected-(U1-XTAL_32K_N-Pad5)*%
X125800000Y-100700000D03*
%TO.P,U1,6,GPIO2_6*%
%TO.N,Net-(U1-GPIO2)*%
X125800000Y-101200000D03*
%TO.P,U1,7,CHIP_EN_7*%
%TO.N,Net-(U1-CHIP_EN)*%
X125800000Y-101700000D03*
%TO.P,U1,8,GPIO3_8*%
%TO.N,Net-(U1-GPIO3)*%
X125800000Y-102200000D03*
D15*
%TO.P,U1,9,MTMS_9*%
%TO.N,unconnected-(U1-MTMS-Pad9)*%
X126500000Y-102900000D03*
%TO.P,U1,10,MTDI_10*%
%TO.N,unconnected-(U1-MTDI-Pad10)*%
X127000000Y-102900000D03*
%TO.P,U1,11,VDD3P3_RTC_11*%
%TO.N,Net-(U1-VDD3P3_CPU)*%
X127500000Y-102900000D03*
%TO.P,U1,12,MTCK_12*%
%TO.N,unconnected-(U1-MTCK-Pad12)*%
X128000000Y-102900000D03*
%TO.P,U1,13,MTDO_13*%
%TO.N,unconnected-(U1-MTDO-Pad13)*%
X128500000Y-102900000D03*
%TO.P,U1,14,GPIO8_14*%
%TO.N,Net-(U1-GPIO8)*%
X129000000Y-102900000D03*
%TO.P,U1,15,GPIO9_15*%
%TO.N,Net-(U1-GPIO9)*%
X129500000Y-102900000D03*
%TO.P,U1,16,GPIO10_16*%
%TO.N,Net-(U1-GPIO10)*%
X130000000Y-102900000D03*
D14*
%TO.P,U1,17,VDD3P3_CPU_17*%
%TO.N,Net-(U1-VDD3P3_CPU)*%
X130700000Y-102200000D03*
%TO.P,U1,18,VDD_SPI_18*%
X130700000Y-101700000D03*
%TO.P,U1,19,SPIHD_19*%
%TO.N,unconnected-(U1-SPIHD-Pad19)*%
X130700000Y-101200000D03*
%TO.P,U1,20,SPIWP_20*%
%TO.N,unconnected-(U1-SPIWP-Pad20)*%
X130700000Y-100700000D03*
%TO.P,U1,21,SPICS0_21*%
%TO.N,unconnected-(U1-SPICS0-Pad21)*%
X130700000Y-100200000D03*
%TO.P,U1,22,SPICLK_22*%
%TO.N,unconnected-(U1-SPICLK-Pad22)*%
X130700000Y-99700000D03*
%TO.P,U1,23,SPID_23*%
%TO.N,unconnected-(U1-SPID-Pad23)*%
X130700000Y-99200000D03*
%TO.P,U1,24,SPIQ_24*%
%TO.N,unconnected-(U1-SPIQ-Pad24)*%
X130700000Y-98700000D03*
D15*
%TO.P,U1,25,GPIO18_25*%
%TO.N,Net-(U1-GPIO18)*%
X130000000Y-98000000D03*
%TO.P,U1,26,GPIO19_26*%
%TO.N,Net-(U1-GPIO19)*%
X129500000Y-98000000D03*
%TO.P,U1,27,U0RXD_27*%
%TO.N,unconnected-(U1-U0RXD-Pad27)*%
X129000000Y-98000000D03*
%TO.P,U1,28,U0TXD_28*%
%TO.N,unconnected-(U1-U0TXD-Pad28)*%
X128500000Y-98000000D03*
%TO.P,U1,29,XTAL_N_29*%
%TO.N,unconnected-(U1-XTAL_N-Pad29)*%
X128000000Y-98000000D03*
%TO.P,U1,30,XTAL_P_30*%
%TO.N,unconnected-(U1-XTAL_P-Pad30)*%
X127500000Y-98000000D03*
%TO.P,U1,31,VDDA_31*%
%TO.N,Net-(U1-VDD3P3_CPU)*%
X127000000Y-98000000D03*
%TO.P,U1,32,VDDA_32*%
X126500000Y-98000000D03*
D16*
%TO.P,U1,33,GND_33*%
%TO.N,unconnected-(U1-GND-Pad33)*%
X128250000Y-100450000D03*
%TD*%
D17*
%TO.P,SW1,1,1_1*%
%TO.N,Net-(U1-GPIO9)*%
X115000000Y-95500000D03*
X121500000Y-95500000D03*
%TO.P,SW1,2,2_2*%
%TO.N,GND*%
X115000000Y-100000000D03*
X121500000Y-100000000D03*
%TD*%
D10*
%TO.P,R9,1*%
%TO.N,Net-(J2-CC2)*%
X126587500Y-110500000D03*
%TO.P,R9,2*%
%TO.N,GND*%
X128412500Y-110500000D03*
%TD*%
%TO.P,R7,1*%
%TO.N,Net-(J2-CC1)*%
X126387500Y-112880000D03*
%TO.P,R7,2*%
%TO.N,GND*%
X128212500Y-112880000D03*
%TD*%
D18*
%TO.P,R6,1*%
%TO.N,Net-(D3-A)*%
X136912500Y-92000000D03*
%TO.P,R6,2*%
%TO.N,Net-(U1-GPIO19)*%
X135087500Y-92000000D03*
%TD*%
D10*
%TO.P,R5,1*%
%TO.N,Net-(D6-A)*%
X112675000Y-115500000D03*
%TO.P,R5,2*%
%TO.N,Net-(U1-GPIO18)*%
X114500000Y-115500000D03*
%TD*%
%TO.P,R4,1*%
%TO.N,Net-(D5-A)*%
X106087500Y-110500000D03*
%TO.P,R4,2*%
%TO.N,Net-(U1-GPIO10)*%
X107912500Y-110500000D03*
%TD*%
%TO.P,R3,1*%
%TO.N,Net-(D4-A)*%
X102087500Y-104500000D03*
%TO.P,R3,2*%
%TO.N,Net-(U1-GPIO8)*%
X103912500Y-104500000D03*
%TD*%
D19*
%TO.P,R2,1*%
%TO.N,Net-(D2-A)*%
X131500000Y-83587500D03*
%TO.P,R2,2*%
%TO.N,Net-(U1-GPIO3)*%
X131500000Y-85412500D03*
%TD*%
%TO.P,R1,1*%
%TO.N,Net-(D1-A)*%
X123000000Y-79087500D03*
%TO.P,R1,2*%
%TO.N,Net-(U1-GPIO2)*%
X123000000Y-80912500D03*
%TD*%
D20*
%TO.P,D6,1,K_1*%
%TO.N,GND*%
X110594445Y-121257357D03*
%TO.P,D6,2,A_2*%
%TO.N,Net-(D6-A)*%
X112405555Y-121742643D03*
%TD*%
D21*
%TO.P,D5,1,K_1*%
%TO.N,GND*%
X100814356Y-115860627D03*
%TO.P,D5,2,A_2*%
%TO.N,Net-(D5-A)*%
X102185644Y-117139373D03*
%TD*%
D12*
%TO.P,D3,1,K_1*%
%TO.N,GND*%
X139603795Y-87500000D03*
%TO.P,D3,2,A_2*%
%TO.N,Net-(D3-A)*%
X140396205Y-89199328D03*
%TD*%
D22*
%TO.P,D2,1,K_1*%
%TO.N,GND*%
X132781833Y-78897387D03*
%TO.P,D2,2,A_2*%
%TO.N,Net-(D2-A)*%
X134218167Y-80102613D03*
%TD*%
D20*
%TO.P,D1,1,K_1*%
%TO.N,GND*%
X123094445Y-74257357D03*
%TO.P,D1,2,A_2*%
%TO.N,Net-(D1-A)*%
X124905555Y-74742643D03*
%TD*%
D23*
%TO.P,C2,1*%
%TO.N,Net-(U1-VDD3P3_CPU)*%
X142050000Y-113000000D03*
%TO.P,C2,2*%
%TO.N,GND*%
X143950000Y-113000000D03*
%TD*%
D24*
%TO.P,C1,1*%
%TO.N,GND*%
X137800000Y-110880000D03*
%TO.P,C1,2*%
%TO.N,Net-(U2-EN)*%
X135900000Y-110880000D03*
%TD*%
D25*
%TO.P,J2,A5,CC1_A5*%
%TO.N,Net-(J2-CC1)*%
X131980000Y-117500000D03*
D26*
%TO.P,J2,A9,VBUS_A9*%
%TO.N,Net-(U2-EN)*%
X134000000Y-117500000D03*
D27*
%TO.P,J2,A12,GND_A12*%
%TO.N,GND*%
X135230000Y-117500000D03*
D28*
%TO.P,J2,B5,CC2_B5*%
%TO.N,Net-(J2-CC2)*%
X132980000Y-117500000D03*
D29*
%TO.P,J2,B9,VBUS_B9*%
%TO.N,Net-(U2-EN)*%
X130960000Y-117500000D03*
D30*
%TO.P,J2,B12,GND_B12*%
%TO.N,GND*%
X129730000Y-117500000D03*
D31*
%TO.P,J2,SH,SHIELD_SH*%
X128160000Y-117580000D03*
X128160000Y-121380000D03*
X136800000Y-117580000D03*
X136800000Y-121380000D03*
%TD*%
D32*
%TO.N,GND*%
X98500000Y-105500000D03*
X100500000Y-108500000D03*
X119000000Y-79000000D03*
X126500000Y-80000000D03*
X137000000Y-112500000D03*
X135525000Y-114330000D03*
%TO.N,Net-(U1-GPIO8)*%
X129000000Y-104500000D03*
X121000000Y-104500000D03*
%TO.N,Net-(U1-GPIO10)*%
X131500000Y-105500000D03*
X120000000Y-107000000D03*
%TO.N,Net-(U1-GPIO18)*%
X123500000Y-110000000D03*
X132000000Y-97500000D03*
%TO.N,Net-(U1-GPIO2)*%
X124500000Y-101500000D03*
X124000000Y-95000000D03*
%TO.N,Net-(U1-GPIO3)*%
X126000000Y-104500000D03*
X125000000Y-97000000D03*
%TO.N,Net-(U1-GPIO19)*%
X130500000Y-96000000D03*
X132500000Y-94000000D03*
%TO.N,Net-(U1-GPIO9)*%
X130000000Y-104000000D03*
X123500000Y-97500000D03*
%TD*%
%TO.N,GND*%
D33*
X101630220Y-115044763D02*
X101630220Y-109630220D01*
X101630220Y-109630220D02*
X100500000Y-108500000D01*
X100814356Y-115860627D02*
X101630220Y-115044763D01*
X98500000Y-105500000D02*
X96254131Y-105500000D01*
X96254131Y-105500000D02*
X95103795Y-106650336D01*
X119000000Y-79000000D02*
X123094445Y-74905555D01*
X132781833Y-78897387D02*
X131679220Y-80000000D01*
X131679220Y-80000000D02*
X126500000Y-80000000D01*
X123094445Y-74905555D02*
X123094445Y-74257357D01*
X137800000Y-111700000D02*
X137000000Y-112500000D01*
X137800000Y-110880000D02*
X137800000Y-111700000D01*
X144375287Y-101900592D02*
X144375287Y-112574713D01*
X144375287Y-112574713D02*
X143950000Y-113000000D01*
%TO.N,Net-(U1-GPIO8)*%
D34*
X103912500Y-104500000D02*
X121000000Y-104500000D01*
X129000000Y-104500000D02*
X129000000Y-102900000D01*
%TO.N,Net-(U1-GPIO10)*%
X107912500Y-110500000D02*
X116500000Y-110500000D01*
X116500000Y-110500000D02*
X120000000Y-107000000D01*
X131500000Y-104400000D02*
X130000000Y-102900000D01*
X131500000Y-105500000D02*
X131500000Y-104400000D01*
%TO.N,Net-(U1-GPIO18)*%
X130500000Y-97500000D02*
X130000000Y-98000000D01*
X114500000Y-115500000D02*
X118000000Y-115500000D01*
X132000000Y-97500000D02*
X130500000Y-97500000D01*
X118000000Y-115500000D02*
X123500000Y-110000000D01*
%TO.N,Net-(U1-GPIO2)*%
X123000000Y-80912500D02*
X123000000Y-94000000D01*
X124500000Y-101500000D02*
X124800000Y-101200000D01*
X123000000Y-94000000D02*
X124000000Y-95000000D01*
X124800000Y-101200000D02*
X125800000Y-101200000D01*
%TO.N,Net-(U1-GPIO3)*%
X131500000Y-85412500D02*
X125000000Y-91912500D01*
X125000000Y-91912500D02*
X125000000Y-97000000D01*
X126000000Y-104500000D02*
X125800000Y-104300000D01*
X125800000Y-104300000D02*
X125800000Y-102200000D01*
%TO.N,Net-(U1-GPIO19)*%
X135087500Y-92000000D02*
X134500000Y-92000000D01*
X134500000Y-92000000D02*
X132500000Y-94000000D01*
X130500000Y-96000000D02*
X129500000Y-97000000D01*
X129500000Y-97000000D02*
X129500000Y-98000000D01*
%TO.N,Net-(U1-VDD3P3_CPU)*%
D33*
X130594195Y-106550001D02*
X127500000Y-106550001D01*
X127500000Y-106550001D02*
X127500000Y-103455806D01*
X127225000Y-95775000D02*
X126500000Y-96500000D01*
X126500000Y-96500000D02*
X126500000Y-96994194D01*
X126500000Y-96994194D02*
X126975000Y-97469194D01*
X126975000Y-97469194D02*
X126975000Y-98000000D01*
X127225000Y-95775000D02*
X129000000Y-94000000D01*
X129000000Y-94000000D02*
X130000000Y-94000000D01*
X130000000Y-94000000D02*
X134975000Y-98975000D01*
X134975000Y-98975000D02*
X132225000Y-101725000D01*
X126500000Y-98000000D02*
X126500000Y-96499999D01*
X126500000Y-96499999D02*
X127225000Y-95775000D01*
%TO.N,Net-(AE1-PCB_Trace)*%
D34*
X143624713Y-99099408D02*
X136099408Y-99099408D01*
X136099408Y-99099408D02*
X130500000Y-93500000D01*
X130500000Y-93500000D02*
X128792893Y-93500000D01*
X128792893Y-93500000D02*
X125800000Y-96492893D01*
X125800000Y-96492893D02*
X125800000Y-98700000D01*
%TO.N,Net-(U1-GPIO9)*%
X121500000Y-95500000D02*
X123500000Y-97500000D01*
X130000000Y-104000000D02*
X129500000Y-103500000D01*
X129500000Y-103500000D02*
X129500000Y-102900000D01*
%TO.N,Net-(D3-A)*%
X140396205Y-89199328D02*
X137595533Y-92000000D01*
X137595533Y-92000000D02*
X136912500Y-92000000D01*
%TO.N,Net-(U1-GPIO9)*%
X115000000Y-95500000D02*
X121500000Y-95500000D01*
%TO.N,Net-(D5-A)*%
X102185644Y-117139373D02*
X102185644Y-114401856D01*
X102185644Y-114401856D02*
X106087500Y-110500000D01*
%TO.N,Net-(D4-A)*%
X95896205Y-108349664D02*
X98237836Y-108349664D01*
X98237836Y-108349664D02*
X102087500Y-104500000D01*
%TO.N,Net-(D1-A)*%
X123000000Y-79087500D02*
X123000000Y-76648198D01*
X123000000Y-76648198D02*
X124905555Y-74742643D01*
%TO.N,Net-(D2-A)*%
X134218167Y-80102613D02*
X134218167Y-80869333D01*
X134218167Y-80869333D02*
X131500000Y-83587500D01*
%TO.N,Net-(U1-CHIP_EN)*%
X125912500Y-106000000D02*
X125100000Y-105187500D01*
X125100000Y-105187500D02*
X125100000Y-101985614D01*
X125100000Y-101985614D02*
X125385614Y-101700000D01*
X125385614Y-101700000D02*
X125800000Y-101700000D01*
%TO.N,Net-(U1-VDD3P3_CPU)*%
D33*
X122500000Y-105500000D02*
X122500000Y-102444194D01*
X122500000Y-105500000D02*
X123587500Y-105500000D01*
X123587500Y-105500000D02*
X124087500Y-106000000D01*
X130594195Y-106550001D02*
X129644196Y-107500000D01*
X129644196Y-107500000D02*
X122500000Y-107500000D01*
X122500000Y-107500000D02*
X122500000Y-105500000D01*
X122500000Y-102444194D02*
X124000000Y-100944194D01*
%TO.N,GND*%
X135230000Y-117500000D02*
X135230000Y-118100000D01*
X135230000Y-118100000D02*
X134230000Y-119100000D01*
X134230000Y-119100000D02*
X130730000Y-119100000D01*
X129730000Y-118100000D02*
X129730000Y-117500000D01*
X130730000Y-119100000D02*
X129730000Y-118100000D01*
X128412500Y-110500000D02*
X128412500Y-112680000D01*
D34*
X128412500Y-112680000D02*
X128212500Y-112880000D01*
%TO.N,Net-(J2-CC1)*%
X131980000Y-117500000D02*
X131980000Y-117150256D01*
X131980000Y-117150256D02*
X129829744Y-115000000D01*
X129829744Y-115000000D02*
X127112500Y-115000000D01*
X127112500Y-115000000D02*
X126387500Y-114275000D01*
X126387500Y-114275000D02*
X126387500Y-112880000D01*
%TO.N,Net-(J2-CC2)*%
X132980000Y-117500000D02*
X132980000Y-112980000D01*
X132980000Y-112980000D02*
X128500000Y-108500000D01*
X128500000Y-108500000D02*
X127000000Y-108500000D01*
X127000000Y-108500000D02*
X126500000Y-109000000D01*
X126500000Y-109000000D02*
X126500000Y-110180000D01*
%TO.N,Net-(U1-VDD3P3_CPU)*%
D33*
X124000000Y-100944194D02*
X124000000Y-100000000D01*
X124000000Y-100000000D02*
X124775000Y-99225000D01*
X124775000Y-99225000D02*
X125775000Y-99225000D01*
X124000000Y-100944194D02*
X125269194Y-99675000D01*
X125269194Y-99675000D02*
X125800000Y-99675000D01*
X135449999Y-106550001D02*
X131099999Y-102200000D01*
X135449999Y-106550001D02*
X130594195Y-106550001D01*
X140500000Y-111500000D02*
X140500000Y-110000000D01*
X132225000Y-101725000D02*
X130700000Y-101725000D01*
X140550001Y-111550001D02*
X140500000Y-111500000D01*
X140500000Y-111600001D02*
X140550001Y-111550001D01*
X140500000Y-110000000D02*
X132225000Y-101725000D01*
X140500000Y-111600001D02*
X135449999Y-106550001D01*
X140500000Y-113380000D02*
X140500000Y-111600001D01*
X131099999Y-102200000D02*
X130700000Y-102200000D01*
X140500000Y-113380000D02*
X141670000Y-113380000D01*
X137800000Y-113380000D02*
X140500000Y-113380000D01*
X141670000Y-113380000D02*
X142050000Y-113000000D01*
%TO.N,Net-(U2-EN)*%
X135525000Y-113380000D02*
X136187499Y-113380000D01*
X136187499Y-115280000D02*
X135525000Y-115280000D01*
X136187499Y-113380000D02*
X136587500Y-113780001D01*
X136587500Y-114879999D02*
X136187499Y-115280000D01*
X136587500Y-113780001D02*
X136587500Y-114879999D01*
X135900000Y-110880000D02*
X135900000Y-113005000D01*
X135900000Y-113005000D02*
X135525000Y-113380000D01*
X134000000Y-117500000D02*
X134000000Y-112780000D01*
X134000000Y-112780000D02*
X135900000Y-110880000D01*
X134000000Y-117500000D02*
X134000000Y-117898022D01*
X134000000Y-117898022D02*
X133398022Y-118500000D01*
X131360000Y-118500000D02*
X130960000Y-118100000D01*
X130960000Y-118100000D02*
X130960000Y-117500000D01*
X133398022Y-118500000D02*
X131360000Y-118500000D01*
%TO.N,Net-(D6-A)*%
D34*
X112405555Y-115769445D02*
X112675000Y-115500000D01*
X112405555Y-121742643D02*
X112405555Y-115769445D01*
%TO.N,GND*%
D33*
X128160000Y-117580000D02*
X128160000Y-121380000D01*
X128160000Y-121380000D02*
X136800000Y-121380000D01*
X136800000Y-117580000D02*
X136800000Y-121380000D01*
%TD*%
%TA.AperFunction,Conductor*%
%TO.N,GND*%
G36*
X110371288Y-72102934D02*
G01*
X110417043Y-72155738D01*
X110424185Y-72175764D01*
X111443052Y-76057631D01*
X111443053Y-76057632D01*
X111443055Y-76057637D01*
X111508356Y-76172092D01*
X111508357Y-76172093D01*
X111508359Y-76172096D01*
X111601066Y-76265757D01*
X111714856Y-76332233D01*
X111841973Y-76366992D01*
X111860799Y-76367088D01*
X111973749Y-76367667D01*
X111973749Y-76367666D01*
X111973755Y-76367667D01*
X112036428Y-76351216D01*
X112038539Y-76350683D01*
X112843149Y-76155404D01*
X112847611Y-76154409D01*
X113657731Y-75989401D01*
X113662196Y-75988578D01*
X114477960Y-75853770D01*
X114482417Y-75853119D01*
X115302582Y-75748719D01*
X115307097Y-75748229D01*
X116130565Y-75674375D01*
X116135090Y-75674053D01*
X116960741Y-75630843D01*
X116965344Y-75630689D01*
X117792007Y-75618186D01*
X117796527Y-75618201D01*
X118623092Y-75636421D01*
X118627681Y-75636607D01*
X119452998Y-75685524D01*
X119457516Y-75685876D01*
X120280479Y-75765426D01*
X120285007Y-75765949D01*
X121105577Y-75876172D01*
X121107716Y-75876479D01*
X121151824Y-75883241D01*
X121160375Y-75884552D01*
X121176280Y-75888528D01*
X121187931Y-75888775D01*
X121191392Y-75889305D01*
X121206385Y-75882542D01*
X121209833Y-75882112D01*
X121302784Y-75871876D01*
X121425579Y-75824037D01*
X121531808Y-75746046D01*
X121614232Y-75643220D01*
X121667234Y-75522563D01*
X121734567Y-75083305D01*
X121774466Y-74823020D01*
X121804081Y-74759737D01*
X121863208Y-74722511D01*
X121933074Y-74723161D01*
X121991498Y-74761481D01*
X122015825Y-74806245D01*
X122053340Y-74931560D01*
X122140271Y-75082130D01*
X122140275Y-75082135D01*
X122259586Y-75208597D01*
X122404846Y-75304136D01*
X122500550Y-75340554D01*
X122500559Y-75340557D01*
X122542379Y-75351762D01*
X122788258Y-74434133D01*
X122075887Y-74243254D01*
X122066406Y-74248728D01*
X121998505Y-74265199D01*
X121932479Y-74242346D01*
X121889289Y-74187425D01*
X121881839Y-74122552D01*
X121887903Y-74082994D01*
X122106918Y-72654214D01*
X122136532Y-72590934D01*
X122195659Y-72553708D01*
X122261878Y-72553311D01*
X123036884Y-72763055D01*
X123096452Y-72799569D01*
X123126823Y-72862492D01*
X123118355Y-72931847D01*
X123073734Y-72985613D01*
X123011700Y-73006539D01*
X122847060Y-73016128D01*
X122847056Y-73016129D01*
X122680495Y-73065995D01*
X122529928Y-73152925D01*
X122529922Y-73152928D01*
X122403464Y-73272238D01*
X122307923Y-73417501D01*
X122307920Y-73417505D01*
X122271506Y-73513200D01*
X122271502Y-73513213D01*
X122205298Y-73760290D01*
X123039375Y-73983782D01*
X123099035Y-74020147D01*
X123129564Y-74082994D01*
X123127056Y-74135650D01*
X123094445Y-74257356D01*
X123216151Y-74289968D01*
X123275811Y-74326333D01*
X123306340Y-74389180D01*
X123303832Y-74441837D01*
X123025343Y-75481171D01*
X123025343Y-75481172D01*
X123067174Y-75492381D01*
X123168262Y-75508693D01*
X123341828Y-75498585D01*
X123341839Y-75498583D01*
X123417611Y-75475898D01*
X123487480Y-75475527D01*
X123546457Y-75512990D01*
X123575819Y-75576391D01*
X123566242Y-75645601D01*
X123540857Y-75682369D01*
X122815489Y-76407738D01*
X122759541Y-76463685D01*
X122759535Y-76463693D01*
X122719982Y-76532202D01*
X122719979Y-76532207D01*
X122699500Y-76608637D01*
X122699500Y-78250500D01*
X122679815Y-78317539D01*
X122627011Y-78363294D01*
X122575500Y-78374500D01*
X122495730Y-78374500D01*
X122465300Y-78377353D01*
X122465298Y-78377353D01*
X122337119Y-78422206D01*
X122337117Y-78422207D01*
X122227850Y-78502850D01*
X122147207Y-78612117D01*
X122147206Y-78612119D01*
X122102353Y-78740298D01*
X122102353Y-78740300D01*
X122099500Y-78770730D01*
X122099500Y-79404269D01*
X122102353Y-79434699D01*
X122102353Y-79434701D01*
X122144329Y-79554657D01*
X122147207Y-79562882D01*
X122227850Y-79672150D01*
X122337118Y-79752793D01*
X122371578Y-79764851D01*
X122465299Y-79797646D01*
X122495730Y-79800500D01*
X122495734Y-79800500D01*
X123504270Y-79800500D01*
X123534699Y-79797646D01*
X123534701Y-79797646D01*
X123598790Y-79775219D01*
X123662882Y-79752793D01*
X123772150Y-79672150D01*
X123852793Y-79562882D01*
X123888302Y-79461404D01*
X123897646Y-79434701D01*
X123897646Y-79434699D01*
X123900500Y-79404269D01*
X123900500Y-78770730D01*
X123897646Y-78740300D01*
X123897646Y-78740298D01*
X123852793Y-78612119D01*
X123852792Y-78612117D01*
X123772150Y-78502850D01*
X123662882Y-78422207D01*
X123662880Y-78422206D01*
X123534700Y-78377353D01*
X123504270Y-78374500D01*
X123504266Y-78374500D01*
X123424500Y-78374500D01*
X123357461Y-78354815D01*
X123311706Y-78302011D01*
X123300500Y-78250500D01*
X123300500Y-76824030D01*
X123320185Y-76756991D01*
X123336814Y-76736353D01*
X124454841Y-75618326D01*
X124516162Y-75584843D01*
X124574613Y-75586234D01*
X124676850Y-75613628D01*
X124959623Y-75689397D01*
X124989339Y-75694446D01*
X125122885Y-75684438D01*
X125247547Y-75635511D01*
X125352250Y-75552014D01*
X125427690Y-75441364D01*
X125438175Y-75413105D01*
X125702049Y-74428316D01*
X125707098Y-74398601D01*
X125697090Y-74265055D01*
X125648163Y-74140393D01*
X125633935Y-74122552D01*
X125564667Y-74035690D01*
X125488531Y-73983782D01*
X125454016Y-73960250D01*
X125454014Y-73960249D01*
X125425762Y-73949766D01*
X125425763Y-73949766D01*
X125425757Y-73949764D01*
X124851487Y-73795889D01*
X124835821Y-73793227D01*
X124821772Y-73790840D01*
X124821766Y-73790840D01*
X124688229Y-73800847D01*
X124688223Y-73800848D01*
X124563565Y-73849773D01*
X124563562Y-73849775D01*
X124458860Y-73933271D01*
X124421859Y-73987541D01*
X124367830Y-74031842D01*
X124298426Y-74039900D01*
X124235684Y-74009157D01*
X124199522Y-73949373D01*
X124195616Y-73924898D01*
X124185412Y-73749715D01*
X124185410Y-73749706D01*
X124135549Y-73583153D01*
X124048618Y-73432583D01*
X124048614Y-73432578D01*
X123929303Y-73306116D01*
X123797449Y-73219395D01*
X123752255Y-73166110D01*
X123743044Y-73096850D01*
X123772739Y-73033605D01*
X123831913Y-72996454D01*
X123897982Y-72996100D01*
X126620639Y-73732949D01*
X126680207Y-73769463D01*
X126710578Y-73832386D01*
X126703559Y-73898234D01*
X125662183Y-76532209D01*
X125662182Y-76532210D01*
X125636636Y-76596821D01*
X125636634Y-76596828D01*
X125621552Y-76727742D01*
X125621552Y-76727746D01*
X125632885Y-76804238D01*
X125640867Y-76858107D01*
X125654106Y-76888658D01*
X125693264Y-76979026D01*
X125765999Y-77070702D01*
X125770666Y-77076584D01*
X125770672Y-77076594D01*
X125775169Y-77082261D01*
X125775171Y-77082262D01*
X125775173Y-77082265D01*
X125881010Y-77160786D01*
X125881011Y-77160786D01*
X125881012Y-77160787D01*
X125911943Y-77173016D01*
X125911945Y-77173017D01*
X125941257Y-77184606D01*
X125943404Y-77185478D01*
X126396782Y-77374604D01*
X126712296Y-77506221D01*
X126716524Y-77508078D01*
X127471924Y-77856901D01*
X127476048Y-77858900D01*
X128071360Y-78161299D01*
X128217834Y-78235703D01*
X128221928Y-78237880D01*
X128949098Y-78642151D01*
X128953094Y-78644470D01*
X129664673Y-79075669D01*
X129668593Y-79078147D01*
X130364478Y-79536262D01*
X130366402Y-79537554D01*
X130419800Y-79574156D01*
X130419802Y-79574156D01*
X130419804Y-79574158D01*
X130544084Y-79617995D01*
X130675474Y-79628172D01*
X130675474Y-79628171D01*
X130675475Y-79628172D01*
X130675475Y-79628171D01*
X130691747Y-79629432D01*
X130691751Y-79629432D01*
X130694646Y-79629656D01*
X130710671Y-79621603D01*
X130805023Y-79603996D01*
X130867381Y-79574158D01*
X130867384Y-79574156D01*
X130867386Y-79574156D01*
X130923895Y-79547117D01*
X130923896Y-79547115D01*
X130923898Y-79547115D01*
X131024002Y-79461404D01*
X131328271Y-79017514D01*
X131382407Y-78973352D01*
X131451830Y-78965466D01*
X131514496Y-78996366D01*
X131550508Y-79056240D01*
X131554074Y-79076818D01*
X131568494Y-79241637D01*
X131623182Y-79406674D01*
X131623186Y-79406683D01*
X131714453Y-79554651D01*
X131714458Y-79554657D01*
X131785804Y-79628109D01*
X131785804Y-79628110D01*
X131818975Y-79655943D01*
X132510615Y-78831678D01*
X132568787Y-78792976D01*
X132638648Y-78791868D01*
X132685311Y-78816395D01*
X132878354Y-78978378D01*
X132917056Y-79036549D01*
X132918164Y-79106410D01*
X132893638Y-79153073D01*
X132201998Y-79977337D01*
X132235176Y-80005176D01*
X132319896Y-80062678D01*
X132319904Y-80062683D01*
X132481473Y-80126871D01*
X132653510Y-80152069D01*
X132826706Y-80136917D01*
X132991744Y-80082229D01*
X132991751Y-80082226D01*
X133141106Y-79990102D01*
X133208499Y-79971661D01*
X133275162Y-79992583D01*
X133319932Y-80046225D01*
X133328594Y-80115555D01*
X133322188Y-80139500D01*
X133298955Y-80200937D01*
X133290613Y-80334595D01*
X133322038Y-80464778D01*
X133390439Y-80579913D01*
X133390440Y-80579915D01*
X133406064Y-80595734D01*
X133411619Y-80601358D01*
X133661147Y-80810738D01*
X133699848Y-80868907D01*
X133700956Y-80938768D01*
X133669121Y-80993406D01*
X131824348Y-82838181D01*
X131763025Y-82871666D01*
X131736667Y-82874500D01*
X130995730Y-82874500D01*
X130965300Y-82877353D01*
X130965298Y-82877353D01*
X130837119Y-82922206D01*
X130837117Y-82922207D01*
X130727850Y-83002850D01*
X130647207Y-83112117D01*
X130647206Y-83112119D01*
X130602353Y-83240298D01*
X130602353Y-83240300D01*
X130599500Y-83270730D01*
X130599500Y-83904269D01*
X130602353Y-83934699D01*
X130602353Y-83934701D01*
X130647206Y-84062880D01*
X130647207Y-84062882D01*
X130727850Y-84172150D01*
X130837118Y-84252793D01*
X130879845Y-84267744D01*
X130965299Y-84297646D01*
X130995730Y-84300500D01*
X130995734Y-84300500D01*
X132004270Y-84300500D01*
X132034699Y-84297646D01*
X132034701Y-84297646D01*
X132098790Y-84275219D01*
X132162882Y-84252793D01*
X132272150Y-84172150D01*
X132352793Y-84062882D01*
X132375219Y-83998790D01*
X132397646Y-83934701D01*
X132397646Y-83934699D01*
X132400500Y-83904269D01*
X132400500Y-83270730D01*
X132397646Y-83240300D01*
X132397646Y-83240299D01*
X132390854Y-83220888D01*
X132387293Y-83151110D01*
X132420213Y-83092256D01*
X134458627Y-81053844D01*
X134498189Y-80985321D01*
X134518667Y-80908895D01*
X134518667Y-80859961D01*
X134538352Y-80792922D01*
X134547678Y-80780255D01*
X135072876Y-80154349D01*
X135090010Y-80129551D01*
X135137379Y-80004288D01*
X135145720Y-79870628D01*
X135114296Y-79740448D01*
X135045895Y-79625313D01*
X135045893Y-79625311D01*
X135045893Y-79625310D01*
X135024723Y-79603876D01*
X135024722Y-79603875D01*
X135024715Y-79603868D01*
X134569280Y-79221712D01*
X134569273Y-79221707D01*
X134544484Y-79204579D01*
X134544485Y-79204579D01*
X134419219Y-79157209D01*
X134285561Y-79148867D01*
X134155377Y-79180292D01*
X134098906Y-79213841D01*
X134031217Y-79231157D01*
X133964910Y-79209129D01*
X133921039Y-79154750D01*
X133913532Y-79085285D01*
X133920335Y-79061452D01*
X133985125Y-78898368D01*
X134010324Y-78726332D01*
X133995171Y-78553136D01*
X133940483Y-78388099D01*
X133940479Y-78388090D01*
X133849212Y-78240122D01*
X133849207Y-78240116D01*
X133832682Y-78223103D01*
X133800092Y-78161299D01*
X133806090Y-78091688D01*
X133848770Y-78036369D01*
X133914582Y-78012906D01*
X133982632Y-78028749D01*
X134002746Y-78042919D01*
X134450543Y-78430233D01*
X136263358Y-79998195D01*
X136301186Y-80056939D01*
X136301248Y-80126809D01*
X136266354Y-80183090D01*
X134211979Y-82079730D01*
X134134221Y-82151518D01*
X134134220Y-82151519D01*
X134111809Y-82186987D01*
X134102457Y-82201789D01*
X134102456Y-82201791D01*
X134102455Y-82201790D01*
X134063831Y-82262921D01*
X134063825Y-82262932D01*
X134063483Y-82263617D01*
X134062537Y-82267080D01*
X134024670Y-82388762D01*
X134024669Y-82388768D01*
X134019414Y-82520439D01*
X134048417Y-82648992D01*
X134048418Y-82648994D01*
X134109705Y-82765660D01*
X134137326Y-82795577D01*
X134153636Y-82813243D01*
X134155128Y-82814890D01*
X134450743Y-83147349D01*
X134708800Y-83437570D01*
X134711816Y-83441093D01*
X135241030Y-84083085D01*
X135243912Y-84086718D01*
X135484641Y-84402070D01*
X135695810Y-84678699D01*
X135748737Y-84748032D01*
X135751482Y-84751770D01*
X136231256Y-85431541D01*
X136233858Y-85435379D01*
X136687849Y-86132570D01*
X136690307Y-86136503D01*
X137118523Y-86851203D01*
X137119695Y-86853202D01*
X137151923Y-86909346D01*
X137151924Y-86909347D01*
X137151926Y-86909350D01*
X137244879Y-87002768D01*
X137247516Y-87004299D01*
X137335572Y-87055431D01*
X137335578Y-87055434D01*
X137355525Y-87067018D01*
X137358446Y-87068837D01*
X137386109Y-87076322D01*
X137410237Y-87082851D01*
X137410241Y-87082854D01*
X137410242Y-87082853D01*
X137486047Y-87103369D01*
X137617831Y-87103698D01*
X137617831Y-87103697D01*
X137617835Y-87103698D01*
X137617840Y-87103696D01*
X137618412Y-87103698D01*
X137618416Y-87103698D01*
X137635095Y-87103739D01*
X137650019Y-87095159D01*
X137677499Y-87087870D01*
X137745210Y-87069909D01*
X137859503Y-87004302D01*
X137859503Y-87004300D01*
X137871963Y-86997149D01*
X137871970Y-86997143D01*
X138739133Y-86499365D01*
X139413035Y-86499365D01*
X139724717Y-87167767D01*
X140585709Y-86766280D01*
X140567410Y-86727036D01*
X140514926Y-86639111D01*
X140514919Y-86639101D01*
X140395610Y-86512642D01*
X140395609Y-86512641D01*
X140250354Y-86417105D01*
X140250350Y-86417103D01*
X140086975Y-86357640D01*
X140086972Y-86357639D01*
X139914284Y-86337455D01*
X139741594Y-86357639D01*
X139741591Y-86357639D01*
X139644885Y-86391253D01*
X139644870Y-86391259D01*
X139413035Y-86499365D01*
X138739133Y-86499365D01*
X140261893Y-85625254D01*
X140329834Y-85608952D01*
X140395804Y-85631968D01*
X140437402Y-85683493D01*
X142232819Y-89826772D01*
X142241413Y-89896111D01*
X142211154Y-89959089D01*
X142155296Y-89994657D01*
X140979362Y-90354175D01*
X139563721Y-90786978D01*
X139493858Y-90787754D01*
X139434664Y-90750634D01*
X139404935Y-90687405D01*
X139414110Y-90618140D01*
X139439788Y-90580715D01*
X139666328Y-90354175D01*
X139929280Y-90091222D01*
X139990601Y-90057739D01*
X140041528Y-90057364D01*
X140063321Y-90061770D01*
X140196576Y-90048436D01*
X140224963Y-90038303D01*
X141148969Y-89607432D01*
X141174978Y-89592199D01*
X141270848Y-89498691D01*
X141334894Y-89381079D01*
X141361431Y-89249815D01*
X141348097Y-89116560D01*
X141337964Y-89088173D01*
X141086706Y-88549348D01*
X141071473Y-88523339D01*
X141036377Y-88487357D01*
X140977965Y-88427469D01*
X140860351Y-88363422D01*
X140860353Y-88363422D01*
X140729090Y-88336885D01*
X140663729Y-88343426D01*
X140595062Y-88330514D01*
X140544278Y-88282528D01*
X140527498Y-88214703D01*
X140550051Y-88148573D01*
X140566289Y-88129847D01*
X140693938Y-88009416D01*
X140789473Y-87864162D01*
X140789475Y-87864158D01*
X140848938Y-87700784D01*
X140848939Y-87700781D01*
X140869123Y-87528092D01*
X140848940Y-87355407D01*
X140815320Y-87258681D01*
X140797018Y-87219434D01*
X139709450Y-87726577D01*
X138621879Y-88233717D01*
X138621879Y-88233718D01*
X138640179Y-88272962D01*
X138692665Y-88360892D01*
X138692670Y-88360898D01*
X138811979Y-88487357D01*
X138811980Y-88487358D01*
X138957235Y-88582894D01*
X138957239Y-88582896D01*
X139120614Y-88642359D01*
X139120617Y-88642360D01*
X139293305Y-88662544D01*
X139467607Y-88642172D01*
X139536478Y-88653941D01*
X139588054Y-88701076D01*
X139605959Y-88768613D01*
X139584508Y-88835108D01*
X139568583Y-88854102D01*
X139521564Y-88899962D01*
X139521560Y-88899967D01*
X139457516Y-89017575D01*
X139457515Y-89017576D01*
X139430979Y-89148838D01*
X139444313Y-89282097D01*
X139444314Y-89282101D01*
X139454447Y-89310485D01*
X139454452Y-89310498D01*
X139546748Y-89508428D01*
X139557240Y-89577505D01*
X139528720Y-89641289D01*
X139522047Y-89648513D01*
X137783604Y-91386957D01*
X137722281Y-91420442D01*
X137652589Y-91415458D01*
X137596656Y-91373586D01*
X137578883Y-91340235D01*
X137577793Y-91337118D01*
X137497150Y-91227850D01*
X137387882Y-91147207D01*
X137387880Y-91147206D01*
X137259700Y-91102353D01*
X137229270Y-91099500D01*
X137229266Y-91099500D01*
X136595734Y-91099500D01*
X136595730Y-91099500D01*
X136565300Y-91102353D01*
X136565298Y-91102353D01*
X136437119Y-91147206D01*
X136437117Y-91147207D01*
X136327850Y-91227850D01*
X136247207Y-91337117D01*
X136247206Y-91337119D01*
X136202353Y-91465298D01*
X136202353Y-91465300D01*
X136199500Y-91495730D01*
X136199500Y-92504269D01*
X136202353Y-92534699D01*
X136202353Y-92534701D01*
X136238905Y-92639157D01*
X136247207Y-92662882D01*
X136327850Y-92772150D01*
X136437118Y-92852793D01*
X136479845Y-92867744D01*
X136565299Y-92897646D01*
X136595730Y-92900500D01*
X136595734Y-92900500D01*
X137229270Y-92900500D01*
X137259699Y-92897646D01*
X137259701Y-92897646D01*
X137323790Y-92875219D01*
X137387882Y-92852793D01*
X137497150Y-92772150D01*
X137577793Y-92662882D01*
X137619298Y-92544268D01*
X137622646Y-92534701D01*
X137622646Y-92534699D01*
X137625500Y-92504269D01*
X137625500Y-92398218D01*
X137645185Y-92331179D01*
X137697989Y-92285424D01*
X137704061Y-92283242D01*
X137704015Y-92283130D01*
X137711511Y-92280023D01*
X137711522Y-92280021D01*
X137780044Y-92240460D01*
X137835993Y-92184511D01*
X138877562Y-91142941D01*
X138938882Y-91109458D01*
X139008573Y-91114442D01*
X139064507Y-91156313D01*
X139088924Y-91221778D01*
X139087049Y-91245885D01*
X139087872Y-91245965D01*
X139087092Y-91254058D01*
X139091691Y-91385754D01*
X139091691Y-91385756D01*
X139110624Y-91447687D01*
X139111275Y-91449889D01*
X139338149Y-92244354D01*
X139339329Y-92248798D01*
X139536311Y-93050007D01*
X139537326Y-93054493D01*
X139704463Y-93862458D01*
X139705311Y-93866978D01*
X139842374Y-94680583D01*
X139843054Y-94685131D01*
X139949858Y-95503288D01*
X139950368Y-95507858D01*
X140026757Y-96329369D01*
X140027098Y-96333955D01*
X140072973Y-97157746D01*
X140073144Y-97162342D01*
X140088405Y-97985365D01*
X140088405Y-97985379D01*
X140088484Y-97989587D01*
X140088484Y-98055482D01*
X140088485Y-98055484D01*
X140094845Y-98079224D01*
X140094846Y-98079225D01*
X140122590Y-98182773D01*
X140167307Y-98260224D01*
X140188483Y-98296903D01*
X140281668Y-98390089D01*
X140304578Y-98403316D01*
X140395798Y-98455982D01*
X140469290Y-98475673D01*
X140523090Y-98490090D01*
X140523092Y-98490090D01*
X141402587Y-98490090D01*
X141429052Y-98497861D01*
X141456272Y-98502314D01*
X141462100Y-98507565D01*
X141469626Y-98509775D01*
X141487683Y-98530614D01*
X141508181Y-98549082D01*
X141512680Y-98559462D01*
X141515381Y-98562579D01*
X141522218Y-98581465D01*
X141538804Y-98642283D01*
X141537452Y-98712139D01*
X141498546Y-98770175D01*
X141434441Y-98797964D01*
X141419173Y-98798908D01*
X136275241Y-98798908D01*
X136208202Y-98779223D01*
X136187560Y-98762589D01*
X131438634Y-94013662D01*
X131359080Y-93934108D01*
X131999500Y-93934108D01*
X131999500Y-94065891D01*
X132033608Y-94193187D01*
X132066554Y-94250250D01*
X132099500Y-94307314D01*
X132192686Y-94400500D01*
X132306814Y-94466392D01*
X132434108Y-94500500D01*
X132434110Y-94500500D01*
X132565890Y-94500500D01*
X132565892Y-94500500D01*
X132693186Y-94466392D01*
X132807314Y-94400500D01*
X132900500Y-94307314D01*
X132966392Y-94193186D01*
X133000500Y-94065892D01*
X133000500Y-93975832D01*
X133020185Y-93908793D01*
X133036819Y-93888151D01*
X133461789Y-93463181D01*
X134252329Y-92672640D01*
X134313650Y-92639157D01*
X134383342Y-92644141D01*
X134439275Y-92686013D01*
X134439778Y-92686690D01*
X134502848Y-92772148D01*
X134502849Y-92772148D01*
X134502850Y-92772150D01*
X134612118Y-92852793D01*
X134654845Y-92867744D01*
X134740299Y-92897646D01*
X134770730Y-92900500D01*
X134770734Y-92900500D01*
X135404270Y-92900500D01*
X135434699Y-92897646D01*
X135434701Y-92897646D01*
X135498790Y-92875219D01*
X135562882Y-92852793D01*
X135672150Y-92772150D01*
X135752793Y-92662882D01*
X135794298Y-92544268D01*
X135797646Y-92534701D01*
X135797646Y-92534699D01*
X135800500Y-92504269D01*
X135800500Y-91495730D01*
X135797646Y-91465300D01*
X135797646Y-91465298D01*
X135752793Y-91337119D01*
X135752792Y-91337117D01*
X135672150Y-91227850D01*
X135562882Y-91147207D01*
X135562880Y-91147206D01*
X135434700Y-91102353D01*
X135404270Y-91099500D01*
X135404266Y-91099500D01*
X134770734Y-91099500D01*
X134770730Y-91099500D01*
X134740300Y-91102353D01*
X134740298Y-91102353D01*
X134612119Y-91147206D01*
X134612117Y-91147207D01*
X134502850Y-91227850D01*
X134422207Y-91337117D01*
X134422206Y-91337119D01*
X134377353Y-91465298D01*
X134377353Y-91465300D01*
X134374500Y-91495730D01*
X134374500Y-91653878D01*
X134354815Y-91720917D01*
X134320909Y-91753251D01*
X134321938Y-91754592D01*
X134315486Y-91759542D01*
X132611847Y-93463181D01*
X132550524Y-93496666D01*
X132524166Y-93499500D01*
X132434108Y-93499500D01*
X132306812Y-93533608D01*
X132192686Y-93599500D01*
X132192683Y-93599502D01*
X132099502Y-93692683D01*
X132099500Y-93692686D01*
X132033608Y-93806812D01*
X131999500Y-93934108D01*
X131359080Y-93934108D01*
X130684514Y-93259542D01*
X130684511Y-93259540D01*
X130675090Y-93254101D01*
X130615989Y-93219979D01*
X130539562Y-93199500D01*
X128753331Y-93199500D01*
X128702379Y-93213152D01*
X128676903Y-93219979D01*
X128650845Y-93235023D01*
X128617803Y-93254101D01*
X128611666Y-93257643D01*
X128608378Y-93259542D01*
X128608377Y-93259543D01*
X125620411Y-96247510D01*
X125620407Y-96247514D01*
X125615489Y-96252433D01*
X125559540Y-96308382D01*
X125527240Y-96364327D01*
X125521442Y-96371597D01*
X125500145Y-96386542D01*
X125481320Y-96404493D01*
X125472012Y-96406287D01*
X125464251Y-96411734D01*
X125438257Y-96412793D01*
X125412713Y-96417717D01*
X125403910Y-96414193D01*
X125394439Y-96414579D01*
X125372002Y-96401419D01*
X125347848Y-96391749D01*
X125342347Y-96384025D01*
X125334171Y-96379229D01*
X125322411Y-96356027D01*
X125307320Y-96334835D01*
X125305160Y-96321993D01*
X125302583Y-96316908D01*
X125303234Y-96310542D01*
X125300500Y-96294278D01*
X125300500Y-92088333D01*
X125320185Y-92021294D01*
X125336819Y-92000652D01*
X129865564Y-87471907D01*
X138338466Y-87471907D01*
X138358649Y-87644592D01*
X138392268Y-87741314D01*
X138410570Y-87780563D01*
X139271562Y-87379076D01*
X138959881Y-86710675D01*
X138728044Y-86818783D01*
X138640118Y-86871267D01*
X138640112Y-86871272D01*
X138513653Y-86990580D01*
X138513652Y-86990581D01*
X138418116Y-87135837D01*
X138418114Y-87135841D01*
X138358651Y-87299215D01*
X138358650Y-87299218D01*
X138338466Y-87471907D01*
X129865564Y-87471907D01*
X131175652Y-86161819D01*
X131236975Y-86128334D01*
X131263333Y-86125500D01*
X132004270Y-86125500D01*
X132034699Y-86122646D01*
X132034701Y-86122646D01*
X132098790Y-86100219D01*
X132162882Y-86077793D01*
X132272150Y-85997150D01*
X132352793Y-85887882D01*
X132390854Y-85779110D01*
X132397646Y-85759701D01*
X132397646Y-85759699D01*
X132400500Y-85729269D01*
X132400500Y-85095730D01*
X132397646Y-85065300D01*
X132397646Y-85065298D01*
X132352793Y-84937119D01*
X132352792Y-84937117D01*
X132272150Y-84827850D01*
X132162882Y-84747207D01*
X132162880Y-84747206D01*
X132034700Y-84702353D01*
X132004270Y-84699500D01*
X132004266Y-84699500D01*
X130995734Y-84699500D01*
X130995730Y-84699500D01*
X130965300Y-84702353D01*
X130965298Y-84702353D01*
X130837119Y-84747206D01*
X130837117Y-84747207D01*
X130727850Y-84827850D01*
X130647207Y-84937117D01*
X130647206Y-84937119D01*
X130602353Y-85065298D01*
X130602353Y-85065300D01*
X130599500Y-85095730D01*
X130599500Y-85729269D01*
X130602353Y-85759694D01*
X130602355Y-85759704D01*
X130609145Y-85779110D01*
X130612706Y-85848889D01*
X130579784Y-85907743D01*
X124815489Y-91672040D01*
X124759541Y-91727987D01*
X124759535Y-91727995D01*
X124719982Y-91796504D01*
X124719979Y-91796509D01*
X124699500Y-91872939D01*
X124699500Y-94747793D01*
X124679815Y-94814832D01*
X124627011Y-94860587D01*
X124557853Y-94870531D01*
X124494297Y-94841506D01*
X124468113Y-94809794D01*
X124432316Y-94747793D01*
X124400500Y-94692686D01*
X124307314Y-94599500D01*
X124250250Y-94566554D01*
X124193187Y-94533608D01*
X124129539Y-94516554D01*
X124065892Y-94499500D01*
X123975833Y-94499500D01*
X123908794Y-94479815D01*
X123888152Y-94463181D01*
X123336819Y-93911848D01*
X123303334Y-93850525D01*
X123300500Y-93824167D01*
X123300500Y-81749500D01*
X123320185Y-81682461D01*
X123372989Y-81636706D01*
X123424500Y-81625500D01*
X123504270Y-81625500D01*
X123534699Y-81622646D01*
X123534701Y-81622646D01*
X123598790Y-81600219D01*
X123662882Y-81577793D01*
X123772150Y-81497150D01*
X123852793Y-81387882D01*
X123875219Y-81323790D01*
X123897646Y-81259701D01*
X123897646Y-81259699D01*
X123900500Y-81229269D01*
X123900500Y-80595730D01*
X123897646Y-80565300D01*
X123897646Y-80565298D01*
X123852793Y-80437119D01*
X123852792Y-80437117D01*
X123772150Y-80327850D01*
X123662882Y-80247207D01*
X123662880Y-80247206D01*
X123534700Y-80202353D01*
X123504270Y-80199500D01*
X123504266Y-80199500D01*
X122495734Y-80199500D01*
X122495730Y-80199500D01*
X122465300Y-80202353D01*
X122465298Y-80202353D01*
X122337119Y-80247206D01*
X122337117Y-80247207D01*
X122227850Y-80327850D01*
X122147207Y-80437117D01*
X122147206Y-80437119D01*
X122102353Y-80565298D01*
X122102353Y-80565300D01*
X122099500Y-80595730D01*
X122099500Y-81229269D01*
X122102353Y-81259699D01*
X122102353Y-81259701D01*
X122147206Y-81387880D01*
X122147207Y-81387882D01*
X122227850Y-81497150D01*
X122337118Y-81577793D01*
X122379845Y-81592744D01*
X122465299Y-81622646D01*
X122495730Y-81625500D01*
X122495734Y-81625500D01*
X122575500Y-81625500D01*
X122642539Y-81645185D01*
X122688294Y-81697989D01*
X122699500Y-81749500D01*
X122699500Y-94039562D01*
X122713152Y-94090513D01*
X122719979Y-94115990D01*
X122719980Y-94115991D01*
X122742264Y-94154588D01*
X122742265Y-94154589D01*
X122759539Y-94184510D01*
X123463181Y-94888152D01*
X123496666Y-94949475D01*
X123499500Y-94975833D01*
X123499500Y-95065891D01*
X123533608Y-95193187D01*
X123566554Y-95250250D01*
X123599500Y-95307314D01*
X123692686Y-95400500D01*
X123806814Y-95466392D01*
X123934108Y-95500500D01*
X123934110Y-95500500D01*
X124065890Y-95500500D01*
X124065892Y-95500500D01*
X124193186Y-95466392D01*
X124307314Y-95400500D01*
X124400500Y-95307314D01*
X124432317Y-95252206D01*
X124468113Y-95190206D01*
X124518680Y-95141990D01*
X124587287Y-95128768D01*
X124652152Y-95154736D01*
X124692680Y-95211650D01*
X124699500Y-95252206D01*
X124699500Y-96541323D01*
X124679815Y-96608362D01*
X124663182Y-96629004D01*
X124599500Y-96692686D01*
X124533608Y-96806812D01*
X124499500Y-96934108D01*
X124499500Y-97065891D01*
X124533608Y-97193187D01*
X124535617Y-97196666D01*
X124599500Y-97307314D01*
X124692686Y-97400500D01*
X124806814Y-97466392D01*
X124934108Y-97500500D01*
X124934110Y-97500500D01*
X125065890Y-97500500D01*
X125065892Y-97500500D01*
X125193186Y-97466392D01*
X125307314Y-97400500D01*
X125307316Y-97400497D01*
X125313499Y-97396928D01*
X125381399Y-97380455D01*
X125447426Y-97403307D01*
X125490617Y-97458228D01*
X125499500Y-97504315D01*
X125499500Y-98260224D01*
X125479815Y-98327263D01*
X125427011Y-98373018D01*
X125399692Y-98381841D01*
X125359885Y-98389759D01*
X125359879Y-98389761D01*
X125272888Y-98447888D01*
X125214760Y-98534883D01*
X125214758Y-98534887D01*
X125199500Y-98611595D01*
X125199501Y-98700499D01*
X125196950Y-98709185D01*
X125198239Y-98718147D01*
X125187261Y-98742185D01*
X125179817Y-98767538D01*
X125172975Y-98773466D01*
X125169214Y-98781703D01*
X125146983Y-98795989D01*
X125127014Y-98813294D01*
X125116497Y-98815581D01*
X125110436Y-98819477D01*
X125075501Y-98824500D01*
X124835339Y-98824500D01*
X124835323Y-98824499D01*
X124827727Y-98824499D01*
X124722274Y-98824499D01*
X124620413Y-98851793D01*
X124620411Y-98851793D01*
X124620411Y-98851794D01*
X124529084Y-98904522D01*
X123679522Y-99754084D01*
X123679518Y-99754090D01*
X123626792Y-99845412D01*
X123626793Y-99845413D01*
X123599500Y-99947273D01*
X123599500Y-100726939D01*
X123579815Y-100793978D01*
X123563181Y-100814620D01*
X122179522Y-102198278D01*
X122179520Y-102198281D01*
X122127906Y-102287679D01*
X122126793Y-102289606D01*
X122106560Y-102365117D01*
X122106560Y-102365118D01*
X122099500Y-102391464D01*
X122099500Y-102391467D01*
X122099500Y-105447273D01*
X122099500Y-107552727D01*
X122126793Y-107654587D01*
X122179520Y-107745913D01*
X122254087Y-107820480D01*
X122345413Y-107873207D01*
X122447273Y-107900500D01*
X122447275Y-107900500D01*
X129696921Y-107900500D01*
X129696923Y-107900500D01*
X129798784Y-107873207D01*
X129890109Y-107820480D01*
X130723769Y-106986820D01*
X130785092Y-106953335D01*
X130811450Y-106950501D01*
X135232744Y-106950501D01*
X135299783Y-106970186D01*
X135320425Y-106986820D01*
X137644099Y-109310494D01*
X138013681Y-109680075D01*
X138047166Y-109741398D01*
X138050000Y-109767756D01*
X138050000Y-110630000D01*
X138804883Y-110630000D01*
X138855442Y-110602392D01*
X138925134Y-110607376D01*
X138969483Y-110635877D01*
X140063181Y-111729575D01*
X140096666Y-111790898D01*
X140099500Y-111817256D01*
X140099500Y-112855500D01*
X140079815Y-112922539D01*
X140027011Y-112968294D01*
X139975500Y-112979500D01*
X138609044Y-112979500D01*
X138542005Y-112959815D01*
X138521363Y-112943181D01*
X138518985Y-112940803D01*
X138518242Y-112940440D01*
X138413893Y-112889427D01*
X138413891Y-112889426D01*
X138345761Y-112879500D01*
X138345760Y-112879500D01*
X137254240Y-112879500D01*
X137254239Y-112879500D01*
X137186108Y-112889426D01*
X137081014Y-112940803D01*
X136998303Y-113023514D01*
X136946926Y-113128608D01*
X136937000Y-113196739D01*
X136937000Y-113263746D01*
X136917315Y-113330785D01*
X136864511Y-113376540D01*
X136795353Y-113386484D01*
X136731797Y-113357459D01*
X136725319Y-113351427D01*
X136433414Y-113059522D01*
X136433412Y-113059520D01*
X136362498Y-113018577D01*
X136314284Y-112968010D01*
X136300500Y-112911191D01*
X136300500Y-111865480D01*
X136320185Y-111798441D01*
X136356628Y-111764968D01*
X136355405Y-111763311D01*
X136362882Y-111757793D01*
X136472150Y-111677150D01*
X136552793Y-111567882D01*
X136575158Y-111503964D01*
X136615877Y-111447192D01*
X136680830Y-111421444D01*
X136749392Y-111434900D01*
X136799795Y-111483287D01*
X136809904Y-111505917D01*
X136865642Y-111674121D01*
X136865643Y-111674124D01*
X136957684Y-111823345D01*
X137081654Y-111947315D01*
X137230875Y-112039356D01*
X137230880Y-112039358D01*
X137397302Y-112094505D01*
X137397309Y-112094506D01*
X137500019Y-112104999D01*
X138050000Y-112104999D01*
X138099972Y-112104999D01*
X138099986Y-112104998D01*
X138202697Y-112094505D01*
X138369119Y-112039358D01*
X138369124Y-112039356D01*
X138518345Y-111947315D01*
X138642315Y-111823345D01*
X138734356Y-111674124D01*
X138734358Y-111674119D01*
X138789505Y-111507697D01*
X138789506Y-111507690D01*
X138799999Y-111404986D01*
X138800000Y-111404973D01*
X138800000Y-111130000D01*
X138050000Y-111130000D01*
X138050000Y-112104999D01*
X137500019Y-112104999D01*
X137549999Y-112104998D01*
X137550000Y-112104998D01*
X137550000Y-109655000D01*
X137549999Y-109654999D01*
X137500029Y-109655000D01*
X137500011Y-109655001D01*
X137397302Y-109665494D01*
X137230880Y-109720641D01*
X137230875Y-109720643D01*
X137081654Y-109812684D01*
X136957684Y-109936654D01*
X136865643Y-110085875D01*
X136865641Y-110085880D01*
X136809905Y-110254082D01*
X136770132Y-110311527D01*
X136705617Y-110338350D01*
X136636841Y-110326035D01*
X136585641Y-110278492D01*
X136575158Y-110256033D01*
X136553167Y-110193187D01*
X136552793Y-110192118D01*
X136472150Y-110082850D01*
X136362882Y-110002207D01*
X136362880Y-110002206D01*
X136234700Y-109957353D01*
X136204270Y-109954500D01*
X136204266Y-109954500D01*
X135595734Y-109954500D01*
X135595730Y-109954500D01*
X135565300Y-109957353D01*
X135565298Y-109957353D01*
X135437119Y-110002206D01*
X135437117Y-110002207D01*
X135327850Y-110082850D01*
X135247207Y-110192117D01*
X135247206Y-110192119D01*
X135202353Y-110320298D01*
X135202353Y-110320300D01*
X135199500Y-110350730D01*
X135199500Y-110962745D01*
X135179815Y-111029784D01*
X135163181Y-111050426D01*
X133679522Y-112534084D01*
X133679520Y-112534087D01*
X133626794Y-112625410D01*
X133608016Y-112695490D01*
X133599500Y-112727270D01*
X133599500Y-116689100D01*
X133579815Y-116756139D01*
X133527011Y-116801894D01*
X133457853Y-116811838D01*
X133405931Y-116791746D01*
X133396161Y-116785124D01*
X133376211Y-116765174D01*
X133342174Y-116748534D01*
X133334931Y-116743625D01*
X133318046Y-116723148D01*
X133298457Y-116705250D01*
X133295981Y-116696389D01*
X133290480Y-116689718D01*
X133287784Y-116667052D01*
X133280500Y-116640979D01*
X133280500Y-112940440D01*
X133280500Y-112940438D01*
X133260022Y-112864012D01*
X133220460Y-112795489D01*
X128684511Y-108259540D01*
X128684510Y-108259539D01*
X128666297Y-108249024D01*
X128648084Y-108238509D01*
X128648083Y-108238508D01*
X128615994Y-108219981D01*
X128615993Y-108219980D01*
X128606960Y-108217559D01*
X128539562Y-108199500D01*
X127039562Y-108199500D01*
X126960438Y-108199500D01*
X126884010Y-108219978D01*
X126815489Y-108259540D01*
X126815486Y-108259542D01*
X126259541Y-108815487D01*
X126259535Y-108815495D01*
X126219982Y-108884004D01*
X126219979Y-108884009D01*
X126199500Y-108960439D01*
X126199500Y-109528648D01*
X126179815Y-109595687D01*
X126127011Y-109641442D01*
X126116463Y-109645686D01*
X126114393Y-109646410D01*
X126112117Y-109647207D01*
X126002850Y-109727850D01*
X125922207Y-109837117D01*
X125922206Y-109837119D01*
X125877353Y-109965298D01*
X125877353Y-109965300D01*
X125874500Y-109995730D01*
X125874500Y-111004269D01*
X125877353Y-111034699D01*
X125877353Y-111034701D01*
X125916701Y-111147147D01*
X125922207Y-111162882D01*
X126002850Y-111272150D01*
X126112118Y-111352793D01*
X126121515Y-111356081D01*
X126240299Y-111397646D01*
X126270730Y-111400500D01*
X126270734Y-111400500D01*
X126904270Y-111400500D01*
X126934699Y-111397646D01*
X126934701Y-111397646D01*
X127027650Y-111365121D01*
X127062882Y-111352793D01*
X127172150Y-111272150D01*
X127233225Y-111189395D01*
X127288870Y-111147147D01*
X127358526Y-111141688D01*
X127420075Y-111174755D01*
X127450699Y-111224026D01*
X127465642Y-111269121D01*
X127465643Y-111269124D01*
X127557684Y-111418345D01*
X127679584Y-111540245D01*
X127713069Y-111601568D01*
X127708085Y-111671260D01*
X127666213Y-111727193D01*
X127637286Y-111742302D01*
X127637421Y-111742592D01*
X127631004Y-111745583D01*
X127630920Y-111745628D01*
X127630884Y-111745639D01*
X127630875Y-111745643D01*
X127481654Y-111837684D01*
X127357684Y-111961654D01*
X127265643Y-112110875D01*
X127265640Y-112110883D01*
X127250698Y-112155974D01*
X127210925Y-112213418D01*
X127146409Y-112240240D01*
X127077633Y-112227924D01*
X127033223Y-112190601D01*
X126972151Y-112107851D01*
X126968285Y-112104998D01*
X126862882Y-112027207D01*
X126862880Y-112027206D01*
X126734700Y-111982353D01*
X126704270Y-111979500D01*
X126704266Y-111979500D01*
X126070734Y-111979500D01*
X126070730Y-111979500D01*
X126040300Y-111982353D01*
X126040298Y-111982353D01*
X125912119Y-112027206D01*
X125912117Y-112027207D01*
X125802850Y-112107850D01*
X125722207Y-112217117D01*
X125722206Y-112217119D01*
X125677353Y-112345298D01*
X125677353Y-112345300D01*
X125674500Y-112375730D01*
X125674500Y-113384269D01*
X125677353Y-113414699D01*
X125677353Y-113414701D01*
X125721704Y-113541444D01*
X125722207Y-113542882D01*
X125802850Y-113652150D01*
X125912118Y-113732793D01*
X126003957Y-113764929D01*
X126060731Y-113805649D01*
X126086478Y-113870602D01*
X126087000Y-113881969D01*
X126087000Y-114314562D01*
X126099790Y-114362294D01*
X126107479Y-114390990D01*
X126107480Y-114390991D01*
X126136594Y-114441418D01*
X126147040Y-114459511D01*
X126872040Y-115184511D01*
X126927989Y-115240460D01*
X126927991Y-115240461D01*
X126927995Y-115240464D01*
X126987967Y-115275088D01*
X126996511Y-115280021D01*
X127072938Y-115300500D01*
X127152062Y-115300500D01*
X129653911Y-115300500D01*
X129720950Y-115320185D01*
X129741592Y-115336819D01*
X130892592Y-116487819D01*
X130899456Y-116500389D01*
X130910150Y-116509920D01*
X130915867Y-116530444D01*
X130926077Y-116549142D01*
X130925055Y-116563428D01*
X130928899Y-116577227D01*
X130922612Y-116597583D01*
X130921093Y-116618834D01*
X130912509Y-116630300D01*
X130908283Y-116643986D01*
X130891987Y-116657713D01*
X130879221Y-116674767D01*
X130864784Y-116680629D01*
X130854847Y-116689001D01*
X130832705Y-116693656D01*
X130820847Y-116698472D01*
X130812908Y-116699500D01*
X130739266Y-116699501D01*
X130647825Y-116713983D01*
X130629634Y-116723251D01*
X130608372Y-116726007D01*
X130594172Y-116723763D01*
X130580046Y-116726414D01*
X130560353Y-116718418D01*
X130539359Y-116715101D01*
X130528627Y-116705537D01*
X130515309Y-116700130D01*
X130489698Y-116671025D01*
X130489697Y-116671026D01*
X130489682Y-116671007D01*
X130488958Y-116670185D01*
X130487197Y-116668615D01*
X130487020Y-116667982D01*
X130486318Y-116667184D01*
X130485070Y-116665120D01*
X130364877Y-116544927D01*
X130219395Y-116456980D01*
X130219396Y-116456980D01*
X130057105Y-116406409D01*
X130057106Y-116406409D01*
X129986572Y-116400000D01*
X129980000Y-116400000D01*
X129980000Y-118599999D01*
X129986581Y-118599999D01*
X130057102Y-118593591D01*
X130057107Y-118593590D01*
X130219396Y-118543018D01*
X130364875Y-118455073D01*
X130469096Y-118350852D01*
X130530419Y-118317367D01*
X130600111Y-118322351D01*
X130644459Y-118350852D01*
X131039519Y-118745912D01*
X131039520Y-118745913D01*
X131114087Y-118820480D01*
X131205413Y-118873207D01*
X131307273Y-118900500D01*
X131307275Y-118900500D01*
X133450747Y-118900500D01*
X133450749Y-118900500D01*
X133552610Y-118873207D01*
X133643935Y-118820480D01*
X134127596Y-118336817D01*
X134188919Y-118303333D01*
X134193213Y-118302478D01*
X134204158Y-118300499D01*
X134220734Y-118300499D01*
X134312175Y-118286017D01*
X134327536Y-118278189D01*
X134345499Y-118274942D01*
X134362812Y-118276796D01*
X134379927Y-118273581D01*
X134396832Y-118280440D01*
X134414972Y-118282384D01*
X134428534Y-118293304D01*
X134444670Y-118299852D01*
X134464142Y-118321976D01*
X134469392Y-118326204D01*
X134470323Y-118329000D01*
X134473682Y-118332816D01*
X134474929Y-118334879D01*
X134595122Y-118455072D01*
X134740604Y-118543019D01*
X134740603Y-118543019D01*
X134902894Y-118593590D01*
X134902893Y-118593590D01*
X134973408Y-118599998D01*
X134973426Y-118599999D01*
X134979999Y-118599998D01*
X134980000Y-118599998D01*
X134980000Y-116400000D01*
X135480000Y-116400000D01*
X135480000Y-117250000D01*
X136136000Y-117250000D01*
X136203039Y-117269685D01*
X136224809Y-117294809D01*
X136260000Y-117330000D01*
X136500000Y-117330000D01*
X136500000Y-117830000D01*
X135744000Y-117830000D01*
X135676961Y-117810315D01*
X135655190Y-117785190D01*
X135620000Y-117750000D01*
X135480000Y-117750000D01*
X135480000Y-118599999D01*
X135486581Y-118599999D01*
X135557102Y-118593591D01*
X135557107Y-118593590D01*
X135719398Y-118543018D01*
X135803740Y-118492031D01*
X135871295Y-118474194D01*
X135937769Y-118495711D01*
X135970992Y-118529254D01*
X135984411Y-118549337D01*
X136130660Y-118695586D01*
X136130664Y-118695589D01*
X136302631Y-118810494D01*
X136302641Y-118810499D01*
X136493723Y-118889648D01*
X136493725Y-118889649D01*
X136550000Y-118900842D01*
X136550000Y-118046988D01*
X136559940Y-118064205D01*
X136615795Y-118120060D01*
X136684204Y-118159556D01*
X136760504Y-118180000D01*
X136839496Y-118180000D01*
X136915796Y-118159556D01*
X136984205Y-118120060D01*
X137040060Y-118064205D01*
X137050000Y-118046988D01*
X137050000Y-118900842D01*
X137106274Y-118889649D01*
X137106276Y-118889648D01*
X137297358Y-118810499D01*
X137297368Y-118810494D01*
X137469335Y-118695589D01*
X137469339Y-118695586D01*
X137615586Y-118549339D01*
X137615589Y-118549335D01*
X137730494Y-118377368D01*
X137730499Y-118377358D01*
X137809649Y-118186274D01*
X137809651Y-118186266D01*
X137849999Y-117983420D01*
X137850000Y-117983417D01*
X137850000Y-117830000D01*
X137100000Y-117830000D01*
X137100000Y-117330000D01*
X137850000Y-117330000D01*
X137850000Y-117176583D01*
X137849999Y-117176579D01*
X137809651Y-116973733D01*
X137809649Y-116973725D01*
X137730499Y-116782641D01*
X137730494Y-116782631D01*
X137615589Y-116610664D01*
X137615586Y-116610660D01*
X137469339Y-116464413D01*
X137469335Y-116464410D01*
X137297368Y-116349505D01*
X137297358Y-116349500D01*
X137106272Y-116270349D01*
X137106267Y-116270347D01*
X137050000Y-116259155D01*
X137050000Y-117113011D01*
X137040060Y-117095795D01*
X136984205Y-117039940D01*
X136915796Y-117000444D01*
X136839496Y-116980000D01*
X136760504Y-116980000D01*
X136684204Y-117000444D01*
X136615795Y-117039940D01*
X136559940Y-117095795D01*
X136550000Y-117113011D01*
X136550000Y-116259156D01*
X136549999Y-116259155D01*
X136493732Y-116270347D01*
X136493727Y-116270349D01*
X136302641Y-116349500D01*
X136302631Y-116349505D01*
X136130664Y-116464410D01*
X136130660Y-116464413D01*
X136045193Y-116549881D01*
X135983870Y-116583366D01*
X135914178Y-116578382D01*
X135869831Y-116549881D01*
X135864877Y-116544927D01*
X135719395Y-116456980D01*
X135719396Y-116456980D01*
X135557105Y-116406409D01*
X135557106Y-116406409D01*
X135486572Y-116400000D01*
X135480000Y-116400000D01*
X134980000Y-116400000D01*
X134979999Y-116399999D01*
X134973436Y-116400000D01*
X134973417Y-116400001D01*
X134902897Y-116406408D01*
X134902892Y-116406409D01*
X134740603Y-116456981D01*
X134588707Y-116548806D01*
X134587040Y-116546048D01*
X134535174Y-116566273D01*
X134466689Y-116552432D01*
X134416559Y-116503763D01*
X134400500Y-116442733D01*
X134400500Y-115086602D01*
X134405327Y-115070161D01*
X134405132Y-115053026D01*
X134414967Y-115037330D01*
X134420185Y-115019563D01*
X134433133Y-115008343D01*
X134442234Y-114993821D01*
X134458994Y-114985934D01*
X134472989Y-114973808D01*
X134489948Y-114971369D01*
X134505455Y-114964073D01*
X134523815Y-114966499D01*
X134542147Y-114963864D01*
X134558072Y-114971027D01*
X134574722Y-114973228D01*
X134597122Y-114988592D01*
X134604629Y-114991969D01*
X134618129Y-115003400D01*
X134635942Y-115030436D01*
X134654906Y-115056692D01*
X134655491Y-115060106D01*
X134656571Y-115061744D01*
X134656627Y-115066726D01*
X134662000Y-115098033D01*
X134662000Y-115463260D01*
X134671926Y-115531391D01*
X134723303Y-115636485D01*
X134806014Y-115719196D01*
X134806015Y-115719196D01*
X134806017Y-115719198D01*
X134911107Y-115770573D01*
X134939398Y-115774695D01*
X134979239Y-115780500D01*
X134979240Y-115780500D01*
X136070761Y-115780500D01*
X136093471Y-115777191D01*
X136138893Y-115770573D01*
X136243983Y-115719198D01*
X136274726Y-115688453D01*
X136330314Y-115656361D01*
X136342087Y-115653207D01*
X136433412Y-115600480D01*
X136725319Y-115308573D01*
X136786642Y-115275088D01*
X136856334Y-115280072D01*
X136912267Y-115321944D01*
X136936684Y-115387408D01*
X136937000Y-115396254D01*
X136937000Y-115463260D01*
X136946926Y-115531391D01*
X136998303Y-115636485D01*
X137081014Y-115719196D01*
X137081015Y-115719196D01*
X137081017Y-115719198D01*
X137186107Y-115770573D01*
X137214398Y-115774695D01*
X137254239Y-115780500D01*
X137254240Y-115780500D01*
X138345761Y-115780500D01*
X138368471Y-115777191D01*
X138413893Y-115770573D01*
X138518983Y-115719198D01*
X138601698Y-115636483D01*
X138653073Y-115531393D01*
X138663000Y-115463260D01*
X138663000Y-115096740D01*
X138653073Y-115028607D01*
X138601698Y-114923517D01*
X138601696Y-114923515D01*
X138601696Y-114923514D01*
X138518985Y-114840803D01*
X138413891Y-114789426D01*
X138345761Y-114779500D01*
X138345760Y-114779500D01*
X137254240Y-114779500D01*
X137254239Y-114779500D01*
X137186107Y-114789426D01*
X137186105Y-114789427D01*
X137166457Y-114799032D01*
X137097584Y-114810789D01*
X137033287Y-114783444D01*
X136993982Y-114725679D01*
X136988000Y-114687630D01*
X136988000Y-113972369D01*
X137007685Y-113905330D01*
X137060489Y-113859575D01*
X137129647Y-113849631D01*
X137166458Y-113860967D01*
X137186107Y-113870573D01*
X137220173Y-113875536D01*
X137254239Y-113880500D01*
X137254240Y-113880500D01*
X138345761Y-113880500D01*
X138368471Y-113877191D01*
X138413893Y-113870573D01*
X138518983Y-113819198D01*
X138518985Y-113819196D01*
X138521363Y-113816819D01*
X138525414Y-113814606D01*
X138527347Y-113813227D01*
X138527513Y-113813460D01*
X138582686Y-113783334D01*
X138609044Y-113780500D01*
X140447273Y-113780500D01*
X141414486Y-113780500D01*
X141481525Y-113800185D01*
X141488119Y-113804729D01*
X141587118Y-113877793D01*
X141629845Y-113892744D01*
X141715299Y-113922646D01*
X141745730Y-113925500D01*
X141745734Y-113925500D01*
X142354270Y-113925500D01*
X142384699Y-113922646D01*
X142384701Y-113922646D01*
X142448790Y-113900219D01*
X142512882Y-113877793D01*
X142622150Y-113797150D01*
X142702793Y-113687882D01*
X142725158Y-113623964D01*
X142765877Y-113567192D01*
X142830830Y-113541444D01*
X142899392Y-113554900D01*
X142949795Y-113603287D01*
X142959904Y-113625917D01*
X143015642Y-113794121D01*
X143015643Y-113794124D01*
X143107684Y-113943345D01*
X143231654Y-114067315D01*
X143380875Y-114159356D01*
X143380880Y-114159358D01*
X143547302Y-114214505D01*
X143547309Y-114214506D01*
X143650019Y-114224999D01*
X144200000Y-114224999D01*
X144249972Y-114224999D01*
X144249986Y-114224998D01*
X144352697Y-114214505D01*
X144519119Y-114159358D01*
X144519124Y-114159356D01*
X144668345Y-114067315D01*
X144792315Y-113943345D01*
X144884356Y-113794124D01*
X144884358Y-113794119D01*
X144939505Y-113627697D01*
X144939506Y-113627690D01*
X144949999Y-113524986D01*
X144950000Y-113524973D01*
X144950000Y-113250000D01*
X144200000Y-113250000D01*
X144200000Y-114224999D01*
X143650019Y-114224999D01*
X143699999Y-114224998D01*
X143700000Y-114224998D01*
X143700000Y-112750000D01*
X144200000Y-112750000D01*
X144949999Y-112750000D01*
X144949999Y-112475028D01*
X144949998Y-112475013D01*
X144939505Y-112372302D01*
X144884358Y-112205880D01*
X144884356Y-112205875D01*
X144792315Y-112056654D01*
X144668345Y-111932684D01*
X144519124Y-111840643D01*
X144519119Y-111840641D01*
X144352697Y-111785494D01*
X144352690Y-111785493D01*
X144249986Y-111775000D01*
X144200000Y-111775000D01*
X144200000Y-112750000D01*
X143700000Y-112750000D01*
X143700000Y-111775000D01*
X143699999Y-111774999D01*
X143650029Y-111775000D01*
X143650011Y-111775001D01*
X143547302Y-111785494D01*
X143380880Y-111840641D01*
X143380875Y-111840643D01*
X143231654Y-111932684D01*
X143107684Y-112056654D01*
X143015643Y-112205875D01*
X143015641Y-112205880D01*
X142959905Y-112374082D01*
X142920132Y-112431527D01*
X142855617Y-112458350D01*
X142786841Y-112446035D01*
X142735641Y-112398492D01*
X142725158Y-112376033D01*
X142702793Y-112312119D01*
X142702792Y-112312117D01*
X142622150Y-112202850D01*
X142512882Y-112122207D01*
X142512880Y-112122206D01*
X142384700Y-112077353D01*
X142354270Y-112074500D01*
X142354266Y-112074500D01*
X141745734Y-112074500D01*
X141745730Y-112074500D01*
X141715300Y-112077353D01*
X141715298Y-112077353D01*
X141587119Y-112122206D01*
X141587117Y-112122207D01*
X141477850Y-112202850D01*
X141397207Y-112312117D01*
X141397206Y-112312119D01*
X141352353Y-112440298D01*
X141352353Y-112440300D01*
X141349500Y-112470730D01*
X141349500Y-112855500D01*
X141346949Y-112864185D01*
X141348238Y-112873147D01*
X141337259Y-112897187D01*
X141329815Y-112922539D01*
X141322974Y-112928466D01*
X141319213Y-112936703D01*
X141296978Y-112950992D01*
X141277011Y-112968294D01*
X141266496Y-112970581D01*
X141260435Y-112974477D01*
X141225500Y-112979500D01*
X141024500Y-112979500D01*
X140957461Y-112959815D01*
X140911706Y-112907011D01*
X140900500Y-112855500D01*
X140900500Y-111777145D01*
X140917113Y-111715144D01*
X140923208Y-111704589D01*
X140930560Y-111677149D01*
X140935874Y-111657317D01*
X140935875Y-111657309D01*
X140940341Y-111640644D01*
X140950501Y-111602732D01*
X140950502Y-111497278D01*
X140947754Y-111487020D01*
X140923208Y-111395413D01*
X140917111Y-111384852D01*
X140900500Y-111322855D01*
X140900500Y-109947275D01*
X140900500Y-109947273D01*
X140873207Y-109845412D01*
X140820480Y-109754087D01*
X132879074Y-101812681D01*
X132845589Y-101751358D01*
X132850573Y-101681666D01*
X132879074Y-101637319D01*
X134076283Y-100440110D01*
X135295480Y-99220913D01*
X135348207Y-99129588D01*
X135367937Y-99055949D01*
X135404299Y-98996292D01*
X135467146Y-98965761D01*
X135536521Y-98974055D01*
X135575392Y-99000363D01*
X135914897Y-99339868D01*
X135983420Y-99379430D01*
X136059846Y-99399908D01*
X136138970Y-99399908D01*
X141650718Y-99399908D01*
X141717757Y-99419593D01*
X141763512Y-99472397D01*
X141770348Y-99491280D01*
X143000000Y-104000000D01*
X145640829Y-103245477D01*
X145710694Y-103245987D01*
X145769195Y-103284189D01*
X145794795Y-103333093D01*
X151175250Y-123740318D01*
X151173307Y-123810161D01*
X151133912Y-123867866D01*
X151069574Y-123895112D01*
X151055347Y-123895931D01*
X125129589Y-123895931D01*
X125062550Y-123876246D01*
X125016795Y-123823442D01*
X125009651Y-123803411D01*
X124433985Y-121610118D01*
X124429081Y-121591433D01*
X124267703Y-120976579D01*
X127110000Y-120976579D01*
X127110000Y-121130000D01*
X127860000Y-121130000D01*
X127860000Y-121630000D01*
X127110000Y-121630000D01*
X127110000Y-121783420D01*
X127150348Y-121986266D01*
X127150350Y-121986274D01*
X127229500Y-122177358D01*
X127229505Y-122177368D01*
X127344410Y-122349335D01*
X127344413Y-122349339D01*
X127490660Y-122495586D01*
X127490664Y-122495589D01*
X127662631Y-122610494D01*
X127662641Y-122610499D01*
X127853723Y-122689648D01*
X127853725Y-122689649D01*
X127910000Y-122700842D01*
X127910000Y-121846988D01*
X127919940Y-121864205D01*
X127975795Y-121920060D01*
X128044204Y-121959556D01*
X128120504Y-121980000D01*
X128199496Y-121980000D01*
X128275796Y-121959556D01*
X128344205Y-121920060D01*
X128400060Y-121864205D01*
X128410000Y-121846988D01*
X128410000Y-122700842D01*
X128466274Y-122689649D01*
X128466276Y-122689648D01*
X128657358Y-122610499D01*
X128657368Y-122610494D01*
X128829335Y-122495589D01*
X128829339Y-122495586D01*
X128975586Y-122349339D01*
X128975589Y-122349335D01*
X129090494Y-122177368D01*
X129090499Y-122177358D01*
X129169649Y-121986274D01*
X129169651Y-121986266D01*
X129209999Y-121783420D01*
X129210000Y-121783417D01*
X129210000Y-121630000D01*
X128460000Y-121630000D01*
X128460000Y-121130000D01*
X129210000Y-121130000D01*
X129210000Y-120976583D01*
X129209999Y-120976579D01*
X135750000Y-120976579D01*
X135750000Y-121130000D01*
X136500000Y-121130000D01*
X136500000Y-121630000D01*
X135750000Y-121630000D01*
X135750000Y-121783420D01*
X135790348Y-121986266D01*
X135790350Y-121986274D01*
X135869500Y-122177358D01*
X135869505Y-122177368D01*
X135984410Y-122349335D01*
X135984413Y-122349339D01*
X136130660Y-122495586D01*
X136130664Y-122495589D01*
X136302631Y-122610494D01*
X136302641Y-122610499D01*
X136493723Y-122689648D01*
X136493725Y-122689649D01*
X136550000Y-122700842D01*
X136550000Y-121846988D01*
X136559940Y-121864205D01*
X136615795Y-121920060D01*
X136684204Y-121959556D01*
X136760504Y-121980000D01*
X136839496Y-121980000D01*
X136915796Y-121959556D01*
X136984205Y-121920060D01*
X137040060Y-121864205D01*
X137050000Y-121846988D01*
X137050000Y-122700842D01*
X137106274Y-122689649D01*
X137106276Y-122689648D01*
X137297358Y-122610499D01*
X137297368Y-122610494D01*
X137469335Y-122495589D01*
X137469339Y-122495586D01*
X137615586Y-122349339D01*
X137615589Y-122349335D01*
X137730494Y-122177368D01*
X137730499Y-122177358D01*
X137809649Y-121986274D01*
X137809651Y-121986266D01*
X137849999Y-121783420D01*
X137850000Y-121783417D01*
X137850000Y-121630000D01*
X137100000Y-121630000D01*
X137100000Y-121130000D01*
X137850000Y-121130000D01*
X137850000Y-120976583D01*
X137849999Y-120976579D01*
X137809651Y-120773733D01*
X137809649Y-120773725D01*
X137730499Y-120582641D01*
X137730494Y-120582631D01*
X137615589Y-120410664D01*
X137615586Y-120410660D01*
X137469339Y-120264413D01*
X137469335Y-120264410D01*
X137297368Y-120149505D01*
X137297358Y-120149500D01*
X137106272Y-120070349D01*
X137106267Y-120070347D01*
X137050000Y-120059155D01*
X137050000Y-120913011D01*
X137040060Y-120895795D01*
X136984205Y-120839940D01*
X136915796Y-120800444D01*
X136839496Y-120780000D01*
X136760504Y-120780000D01*
X136684204Y-120800444D01*
X136615795Y-120839940D01*
X136559940Y-120895795D01*
X136550000Y-120913011D01*
X136550000Y-120059156D01*
X136549999Y-120059155D01*
X136493732Y-120070347D01*
X136493727Y-120070349D01*
X136302641Y-120149500D01*
X136302631Y-120149505D01*
X136130664Y-120264410D01*
X136130660Y-120264413D01*
X135984413Y-120410660D01*
X135984410Y-120410664D01*
X135869505Y-120582631D01*
X135869500Y-120582641D01*
X135790350Y-120773725D01*
X135790348Y-120773733D01*
X135750000Y-120976579D01*
X129209999Y-120976579D01*
X129169651Y-120773733D01*
X129169649Y-120773725D01*
X129090499Y-120582641D01*
X129090494Y-120582631D01*
X128975589Y-120410664D01*
X128975586Y-120410660D01*
X128829339Y-120264413D01*
X128829335Y-120264410D01*
X128657368Y-120149505D01*
X128657358Y-120149500D01*
X128466272Y-120070349D01*
X128466267Y-120070347D01*
X128410000Y-120059155D01*
X128410000Y-120913011D01*
X128400060Y-120895795D01*
X128344205Y-120839940D01*
X128275796Y-120800444D01*
X128199496Y-120780000D01*
X128120504Y-120780000D01*
X128044204Y-120800444D01*
X127975795Y-120839940D01*
X127919940Y-120895795D01*
X127910000Y-120913011D01*
X127910000Y-120059156D01*
X127909999Y-120059155D01*
X127853732Y-120070347D01*
X127853727Y-120070349D01*
X127662641Y-120149500D01*
X127662631Y-120149505D01*
X127490664Y-120264410D01*
X127490660Y-120264413D01*
X127344413Y-120410660D01*
X127344410Y-120410664D01*
X127229505Y-120582631D01*
X127229500Y-120582641D01*
X127150350Y-120773725D01*
X127150348Y-120773733D01*
X127110000Y-120976579D01*
X124267703Y-120976579D01*
X124024049Y-120048256D01*
X123990793Y-119921549D01*
X123967068Y-119879967D01*
X123925487Y-119807085D01*
X123925486Y-119807084D01*
X123925485Y-119807082D01*
X123832851Y-119713495D01*
X123832781Y-119713425D01*
X123832780Y-119713424D01*
X123832779Y-119713423D01*
X123832774Y-119713420D01*
X123718993Y-119646949D01*
X123718986Y-119646946D01*
X123711753Y-119644968D01*
X123711753Y-119644969D01*
X123591871Y-119612187D01*
X123460165Y-119611513D01*
X123460091Y-119611513D01*
X123460090Y-119611513D01*
X123460088Y-119611513D01*
X123397458Y-119627951D01*
X123395226Y-119628515D01*
X122590707Y-119823772D01*
X122586210Y-119824775D01*
X121776152Y-119989770D01*
X121771620Y-119990606D01*
X120955933Y-120125401D01*
X120951374Y-120126067D01*
X120131294Y-120230456D01*
X120126713Y-120230953D01*
X119303315Y-120304801D01*
X119298718Y-120305128D01*
X118473101Y-120348335D01*
X118468496Y-120348490D01*
X117641879Y-120360993D01*
X117637271Y-120360977D01*
X116810757Y-120342758D01*
X116806153Y-120342571D01*
X115980879Y-120293657D01*
X115976285Y-120293299D01*
X115153390Y-120213756D01*
X115148813Y-120213227D01*
X114328342Y-120103017D01*
X114326061Y-120102689D01*
X114282024Y-120095938D01*
X114282018Y-120095938D01*
X114262051Y-120092878D01*
X114262050Y-120092878D01*
X114262049Y-120092878D01*
X114131055Y-120107304D01*
X114131054Y-120107304D01*
X114008264Y-120155142D01*
X113930270Y-120212403D01*
X113930269Y-120212402D01*
X113917350Y-120221889D01*
X113917345Y-120221893D01*
X113902036Y-120233132D01*
X113902034Y-120233133D01*
X113902034Y-120233134D01*
X113883865Y-120255800D01*
X113819609Y-120335961D01*
X113766607Y-120456617D01*
X113326925Y-123324961D01*
X113297310Y-123388244D01*
X113238183Y-123425470D01*
X113171964Y-123425867D01*
X110675669Y-122750280D01*
X110616099Y-122713766D01*
X110585728Y-122650843D01*
X110594196Y-122581488D01*
X110638817Y-122527722D01*
X110700852Y-122506796D01*
X110841828Y-122498585D01*
X110841833Y-122498584D01*
X111008394Y-122448718D01*
X111158961Y-122361788D01*
X111158967Y-122361785D01*
X111285425Y-122242475D01*
X111381857Y-122095859D01*
X111435142Y-122050665D01*
X111504402Y-122041454D01*
X111567647Y-122071149D01*
X111604798Y-122130323D01*
X111609111Y-122154731D01*
X111614019Y-122220226D01*
X111614020Y-122220232D01*
X111662945Y-122344890D01*
X111662947Y-122344893D01*
X111746442Y-122449595D01*
X111750332Y-122452247D01*
X111857094Y-122525036D01*
X111885353Y-122535522D01*
X112459623Y-122689397D01*
X112489339Y-122694446D01*
X112622885Y-122684438D01*
X112747547Y-122635511D01*
X112852250Y-122552014D01*
X112927690Y-122441364D01*
X112938175Y-122413105D01*
X113202049Y-121428316D01*
X113207098Y-121398601D01*
X113197090Y-121265055D01*
X113148163Y-121140393D01*
X113134099Y-121122757D01*
X113064667Y-121035690D01*
X112959815Y-120964204D01*
X112954016Y-120960250D01*
X112954014Y-120960249D01*
X112925762Y-120949766D01*
X112925763Y-120949766D01*
X112925757Y-120949764D01*
X112821565Y-120921846D01*
X112797961Y-120915521D01*
X112738300Y-120879155D01*
X112707772Y-120816308D01*
X112706055Y-120795746D01*
X112706055Y-117176579D01*
X127110000Y-117176579D01*
X127110000Y-117330000D01*
X127860000Y-117330000D01*
X127860000Y-117830000D01*
X127110000Y-117830000D01*
X127110000Y-117983420D01*
X127150348Y-118186266D01*
X127150350Y-118186274D01*
X127229500Y-118377358D01*
X127229505Y-118377368D01*
X127344410Y-118549335D01*
X127344413Y-118549339D01*
X127490660Y-118695586D01*
X127490664Y-118695589D01*
X127662631Y-118810494D01*
X127662641Y-118810499D01*
X127853723Y-118889648D01*
X127853725Y-118889649D01*
X127910000Y-118900842D01*
X127910000Y-118046988D01*
X127919940Y-118064205D01*
X127975795Y-118120060D01*
X128044204Y-118159556D01*
X128120504Y-118180000D01*
X128199496Y-118180000D01*
X128275796Y-118159556D01*
X128344205Y-118120060D01*
X128400060Y-118064205D01*
X128410000Y-118046988D01*
X128410000Y-118900842D01*
X128466274Y-118889649D01*
X128466276Y-118889648D01*
X128657358Y-118810499D01*
X128657368Y-118810494D01*
X128829335Y-118695589D01*
X128829339Y-118695586D01*
X128975584Y-118549341D01*
X128989002Y-118529259D01*
X129042613Y-118484452D01*
X129111937Y-118475742D01*
X129156258Y-118492030D01*
X129240601Y-118543018D01*
X129240603Y-118543019D01*
X129402894Y-118593590D01*
X129402893Y-118593590D01*
X129473408Y-118599998D01*
X129473426Y-118599999D01*
X129479999Y-118599998D01*
X129480000Y-118599998D01*
X129480000Y-117750000D01*
X129340000Y-117750000D01*
X129321709Y-117768290D01*
X129320315Y-117773039D01*
X129267511Y-117818794D01*
X129216000Y-117830000D01*
X128460000Y-117830000D01*
X128460000Y-117330000D01*
X128700000Y-117330000D01*
X128718290Y-117311709D01*
X128719685Y-117306961D01*
X128772489Y-117261206D01*
X128824000Y-117250000D01*
X129480000Y-117250000D01*
X129480000Y-116400000D01*
X129479999Y-116399999D01*
X129473436Y-116400000D01*
X129473417Y-116400001D01*
X129402897Y-116406408D01*
X129402892Y-116406409D01*
X129240602Y-116456981D01*
X129095128Y-116544923D01*
X129090165Y-116549886D01*
X129028840Y-116583367D01*
X128959149Y-116578380D01*
X128914807Y-116549881D01*
X128829339Y-116464413D01*
X128829335Y-116464410D01*
X128657368Y-116349505D01*
X128657358Y-116349500D01*
X128466272Y-116270349D01*
X128466267Y-116270347D01*
X128410000Y-116259155D01*
X128410000Y-117113011D01*
X128400060Y-117095795D01*
X128344205Y-117039940D01*
X128275796Y-117000444D01*
X128199496Y-116980000D01*
X128120504Y-116980000D01*
X128044204Y-117000444D01*
X127975795Y-117039940D01*
X127919940Y-117095795D01*
X127910000Y-117113011D01*
X127910000Y-116259156D01*
X127909999Y-116259155D01*
X127853732Y-116270347D01*
X127853727Y-116270349D01*
X127662641Y-116349500D01*
X127662631Y-116349505D01*
X127490664Y-116464410D01*
X127490660Y-116464413D01*
X127344413Y-116610660D01*
X127344410Y-116610664D01*
X127229505Y-116782631D01*
X127229500Y-116782641D01*
X127150350Y-116973725D01*
X127150348Y-116973733D01*
X127110000Y-117176579D01*
X112706055Y-117176579D01*
X112706055Y-116524500D01*
X112725740Y-116457461D01*
X112778544Y-116411706D01*
X112830055Y-116400500D01*
X112991770Y-116400500D01*
X113022199Y-116397646D01*
X113022201Y-116397646D01*
X113086392Y-116375184D01*
X113150382Y-116352793D01*
X113259650Y-116272150D01*
X113340293Y-116162882D01*
X113370412Y-116076806D01*
X113385146Y-116034701D01*
X113385146Y-116034699D01*
X113388000Y-116004269D01*
X113388000Y-114995730D01*
X113787000Y-114995730D01*
X113787000Y-116004269D01*
X113789853Y-116034699D01*
X113789853Y-116034701D01*
X113829734Y-116148670D01*
X113834707Y-116162882D01*
X113915350Y-116272150D01*
X114024618Y-116352793D01*
X114048601Y-116361185D01*
X114152799Y-116397646D01*
X114183230Y-116400500D01*
X114183234Y-116400500D01*
X114816770Y-116400500D01*
X114847199Y-116397646D01*
X114847201Y-116397646D01*
X114911392Y-116375184D01*
X114975382Y-116352793D01*
X115084650Y-116272150D01*
X115165293Y-116162882D01*
X115195412Y-116076806D01*
X115210146Y-116034701D01*
X115210146Y-116034699D01*
X115213000Y-116004269D01*
X115213000Y-115924500D01*
X115232685Y-115857461D01*
X115285489Y-115811706D01*
X115337000Y-115800500D01*
X118039560Y-115800500D01*
X118039562Y-115800500D01*
X118115989Y-115780021D01*
X118184511Y-115740460D01*
X118240460Y-115684511D01*
X123388151Y-110536818D01*
X123449474Y-110503334D01*
X123475832Y-110500500D01*
X123565890Y-110500500D01*
X123565892Y-110500500D01*
X123693186Y-110466392D01*
X123807314Y-110400500D01*
X123900500Y-110307314D01*
X123966392Y-110193186D01*
X124000500Y-110065892D01*
X124000500Y-109934108D01*
X123966392Y-109806814D01*
X123900500Y-109692686D01*
X123807314Y-109599500D01*
X123750250Y-109566554D01*
X123693187Y-109533608D01*
X123629539Y-109516554D01*
X123565892Y-109499500D01*
X123434108Y-109499500D01*
X123306812Y-109533608D01*
X123192686Y-109599500D01*
X123192683Y-109599502D01*
X123099502Y-109692683D01*
X123099500Y-109692686D01*
X123033608Y-109806812D01*
X122999500Y-109934108D01*
X122999500Y-110024166D01*
X122979815Y-110091205D01*
X122963181Y-110111847D01*
X117911848Y-115163181D01*
X117850525Y-115196666D01*
X117824167Y-115199500D01*
X115337000Y-115199500D01*
X115269961Y-115179815D01*
X115224206Y-115127011D01*
X115213000Y-115075500D01*
X115213000Y-114995730D01*
X115210146Y-114965300D01*
X115210146Y-114965298D01*
X115165293Y-114837119D01*
X115165292Y-114837117D01*
X115137184Y-114799032D01*
X115084650Y-114727850D01*
X114975382Y-114647207D01*
X114975380Y-114647206D01*
X114847200Y-114602353D01*
X114816770Y-114599500D01*
X114816766Y-114599500D01*
X114183234Y-114599500D01*
X114183230Y-114599500D01*
X114152800Y-114602353D01*
X114152798Y-114602353D01*
X114024619Y-114647206D01*
X114024617Y-114647207D01*
X113915350Y-114727850D01*
X113834707Y-114837117D01*
X113834706Y-114837119D01*
X113789853Y-114965298D01*
X113789853Y-114965300D01*
X113787000Y-114995730D01*
X113388000Y-114995730D01*
X113385146Y-114965300D01*
X113385146Y-114965298D01*
X113340293Y-114837119D01*
X113340292Y-114837117D01*
X113312184Y-114799032D01*
X113259650Y-114727850D01*
X113150382Y-114647207D01*
X113150380Y-114647206D01*
X113022200Y-114602353D01*
X112991770Y-114599500D01*
X112991766Y-114599500D01*
X112358234Y-114599500D01*
X112358230Y-114599500D01*
X112327800Y-114602353D01*
X112327798Y-114602353D01*
X112199619Y-114647206D01*
X112199617Y-114647207D01*
X112090350Y-114727850D01*
X112009707Y-114837117D01*
X112009706Y-114837119D01*
X111964853Y-114965298D01*
X111964853Y-114965300D01*
X111962000Y-114995730D01*
X111962000Y-116004269D01*
X111964853Y-116034699D01*
X111964853Y-116034701D01*
X112009706Y-116162880D01*
X112009709Y-116162886D01*
X112080825Y-116259245D01*
X112104796Y-116324874D01*
X112105055Y-116332878D01*
X112105055Y-120756971D01*
X112096362Y-120786575D01*
X112089715Y-120816712D01*
X112086334Y-120820723D01*
X112085370Y-120824010D01*
X112068482Y-120844905D01*
X112063597Y-120849761D01*
X112063563Y-120849775D01*
X111958860Y-120933272D01*
X111915212Y-120997290D01*
X111906833Y-121005622D01*
X111886085Y-121016873D01*
X111867830Y-121031842D01*
X111855938Y-121033222D01*
X111845414Y-121038930D01*
X111821872Y-121037177D01*
X111798426Y-121039900D01*
X111787676Y-121034632D01*
X111775737Y-121033744D01*
X111756880Y-121019543D01*
X111735684Y-121009157D01*
X111729488Y-120998913D01*
X111719924Y-120991711D01*
X111711739Y-120969570D01*
X111699522Y-120949373D01*
X111695913Y-120926761D01*
X111695697Y-120926176D01*
X111695768Y-120925852D01*
X111695616Y-120924898D01*
X111685412Y-120749715D01*
X111685410Y-120749706D01*
X111635549Y-120583153D01*
X111548618Y-120432583D01*
X111548614Y-120432578D01*
X111429303Y-120306116D01*
X111284043Y-120210577D01*
X111188343Y-120174161D01*
X111188329Y-120174156D01*
X111146509Y-120162949D01*
X110868019Y-121202287D01*
X110831654Y-121261947D01*
X110768807Y-121292476D01*
X110716151Y-121289968D01*
X110594445Y-121257357D01*
X110561833Y-121379064D01*
X110525467Y-121438724D01*
X110462620Y-121469252D01*
X110409965Y-121466744D01*
X109575887Y-121243254D01*
X109509683Y-121490336D01*
X109509680Y-121490352D01*
X109493367Y-121591433D01*
X109503477Y-121764998D01*
X109503479Y-121765007D01*
X109553340Y-121931560D01*
X109640271Y-122082130D01*
X109640275Y-122082135D01*
X109759586Y-122208597D01*
X109871335Y-122282095D01*
X109916529Y-122335380D01*
X109925740Y-122404640D01*
X109896045Y-122467885D01*
X109836871Y-122505036D01*
X109770803Y-122505390D01*
X108813201Y-122246229D01*
X108753631Y-122209715D01*
X108723260Y-122146792D01*
X108730279Y-122080946D01*
X109252421Y-120760290D01*
X109705298Y-120760290D01*
X110417667Y-120951170D01*
X110663545Y-120033540D01*
X110621715Y-120022332D01*
X110621710Y-120022331D01*
X110520622Y-120006019D01*
X110347061Y-120016128D01*
X110347056Y-120016129D01*
X110180495Y-120065995D01*
X110029928Y-120152925D01*
X110029922Y-120152928D01*
X109903464Y-120272238D01*
X109807923Y-120417501D01*
X109807920Y-120417505D01*
X109771506Y-120513200D01*
X109771502Y-120513213D01*
X109705298Y-120760290D01*
X109252421Y-120760290D01*
X109748756Y-119504909D01*
X109748758Y-119504907D01*
X109797211Y-119382353D01*
X109812294Y-119251435D01*
X109792979Y-119121074D01*
X109751672Y-119025748D01*
X109740583Y-119000156D01*
X109740579Y-119000150D01*
X109658676Y-118896918D01*
X109658668Y-118896911D01*
X109552837Y-118818393D01*
X109552835Y-118818392D01*
X109492636Y-118794593D01*
X109490486Y-118793720D01*
X108721556Y-118472961D01*
X108717310Y-118471096D01*
X107961942Y-118122288D01*
X107957769Y-118120265D01*
X107957365Y-118120060D01*
X107846443Y-118063715D01*
X107215994Y-117743467D01*
X107211900Y-117741290D01*
X106484750Y-117337032D01*
X106480739Y-117334704D01*
X105769161Y-116903508D01*
X105765241Y-116901031D01*
X105069326Y-116442900D01*
X105067404Y-116441609D01*
X105053482Y-116432066D01*
X105014027Y-116405021D01*
X104889747Y-116361184D01*
X104873323Y-116359912D01*
X104758364Y-116351008D01*
X104758357Y-116351008D01*
X104758356Y-116351008D01*
X104758355Y-116351008D01*
X104703825Y-116361185D01*
X104628811Y-116375184D01*
X104509934Y-116432065D01*
X104456003Y-116478242D01*
X104409831Y-116517775D01*
X104409830Y-116517776D01*
X104338561Y-116621750D01*
X104338556Y-116621757D01*
X102769176Y-118911298D01*
X102715036Y-118955464D01*
X102645613Y-118963350D01*
X102585779Y-118934976D01*
X101839986Y-118289919D01*
X101802158Y-118231175D01*
X101802095Y-118161305D01*
X101839817Y-118102493D01*
X101903346Y-118073411D01*
X101935294Y-118072948D01*
X102068425Y-118088284D01*
X102068426Y-118088283D01*
X102068429Y-118088284D01*
X102200076Y-118063716D01*
X102318632Y-118001434D01*
X102341157Y-117981406D01*
X103036474Y-117235770D01*
X103036481Y-117235759D01*
X103036483Y-117235759D01*
X103042744Y-117227639D01*
X103054882Y-117211903D01*
X103108742Y-117089291D01*
X103114427Y-117039940D01*
X103124067Y-116956255D01*
X103124066Y-116956253D01*
X103124067Y-116956251D01*
X103099499Y-116824604D01*
X103037217Y-116706047D01*
X103037215Y-116706045D01*
X103037215Y-116706044D01*
X103017194Y-116683528D01*
X103017189Y-116683523D01*
X102582378Y-116278055D01*
X102582369Y-116278048D01*
X102582367Y-116278045D01*
X102558511Y-116259647D01*
X102552023Y-116255798D01*
X102552938Y-116254254D01*
X102506801Y-116215420D01*
X102486157Y-116148670D01*
X102486144Y-116146891D01*
X102486144Y-114577688D01*
X102505829Y-114510649D01*
X102522458Y-114490012D01*
X105592256Y-111420213D01*
X105653577Y-111386730D01*
X105720888Y-111390854D01*
X105740300Y-111397646D01*
X105770730Y-111400500D01*
X105770734Y-111400500D01*
X106404270Y-111400500D01*
X106434699Y-111397646D01*
X106434701Y-111397646D01*
X106527650Y-111365121D01*
X106562882Y-111352793D01*
X106672150Y-111272150D01*
X106752793Y-111162882D01*
X106792143Y-111050426D01*
X106797646Y-111034701D01*
X106797646Y-111034699D01*
X106800500Y-111004269D01*
X106800500Y-109995730D01*
X107199500Y-109995730D01*
X107199500Y-111004269D01*
X107202353Y-111034699D01*
X107202353Y-111034701D01*
X107241701Y-111147147D01*
X107247207Y-111162882D01*
X107327850Y-111272150D01*
X107437118Y-111352793D01*
X107446515Y-111356081D01*
X107565299Y-111397646D01*
X107595730Y-111400500D01*
X107595734Y-111400500D01*
X108229270Y-111400500D01*
X108259699Y-111397646D01*
X108259701Y-111397646D01*
X108352650Y-111365121D01*
X108387882Y-111352793D01*
X108497150Y-111272150D01*
X108577793Y-111162882D01*
X108617143Y-111050426D01*
X108622646Y-111034701D01*
X108622646Y-111034699D01*
X108625500Y-111004269D01*
X108625500Y-110924500D01*
X108645185Y-110857461D01*
X108697989Y-110811706D01*
X108749500Y-110800500D01*
X116539560Y-110800500D01*
X116539562Y-110800500D01*
X116615989Y-110780021D01*
X116684511Y-110740460D01*
X116740460Y-110684511D01*
X119888151Y-107536818D01*
X119949474Y-107503334D01*
X119975832Y-107500500D01*
X120065890Y-107500500D01*
X120065892Y-107500500D01*
X120193186Y-107466392D01*
X120307314Y-107400500D01*
X120400500Y-107307314D01*
X120466392Y-107193186D01*
X120500500Y-107065892D01*
X120500500Y-106934108D01*
X120466392Y-106806814D01*
X120400500Y-106692686D01*
X120307314Y-106599500D01*
X120250250Y-106566554D01*
X120193187Y-106533608D01*
X120083690Y-106504269D01*
X120065892Y-106499500D01*
X119934108Y-106499500D01*
X119806812Y-106533608D01*
X119692686Y-106599500D01*
X119692683Y-106599502D01*
X119599502Y-106692683D01*
X119599500Y-106692686D01*
X119533608Y-106806812D01*
X119499500Y-106934108D01*
X119499500Y-107024166D01*
X119479815Y-107091205D01*
X119463181Y-107111847D01*
X116411848Y-110163181D01*
X116350525Y-110196666D01*
X116324167Y-110199500D01*
X108749500Y-110199500D01*
X108682461Y-110179815D01*
X108636706Y-110127011D01*
X108625500Y-110075500D01*
X108625500Y-109995730D01*
X108622646Y-109965300D01*
X108622646Y-109965298D01*
X108577793Y-109837119D01*
X108577792Y-109837117D01*
X108559760Y-109812684D01*
X108497150Y-109727850D01*
X108387882Y-109647207D01*
X108387880Y-109647206D01*
X108259700Y-109602353D01*
X108229270Y-109599500D01*
X108229266Y-109599500D01*
X107595734Y-109599500D01*
X107595730Y-109599500D01*
X107565300Y-109602353D01*
X107565298Y-109602353D01*
X107437119Y-109647206D01*
X107437117Y-109647207D01*
X107327850Y-109727850D01*
X107247207Y-109837117D01*
X107247206Y-109837119D01*
X107202353Y-109965298D01*
X107202353Y-109965300D01*
X107199500Y-109995730D01*
X106800500Y-109995730D01*
X106797646Y-109965300D01*
X106797646Y-109965298D01*
X106752793Y-109837119D01*
X106752792Y-109837117D01*
X106734760Y-109812684D01*
X106672150Y-109727850D01*
X106562882Y-109647207D01*
X106562880Y-109647206D01*
X106434700Y-109602353D01*
X106404270Y-109599500D01*
X106404266Y-109599500D01*
X105770734Y-109599500D01*
X105770730Y-109599500D01*
X105740300Y-109602353D01*
X105740298Y-109602353D01*
X105612119Y-109647206D01*
X105612117Y-109647207D01*
X105502850Y-109727850D01*
X105422207Y-109837117D01*
X105422206Y-109837119D01*
X105377353Y-109965298D01*
X105377353Y-109965300D01*
X105374500Y-109995730D01*
X105374500Y-110736667D01*
X105354815Y-110803706D01*
X105338181Y-110824348D01*
X101945185Y-114217343D01*
X101945179Y-114217351D01*
X101905626Y-114285860D01*
X101905623Y-114285865D01*
X101885144Y-114362295D01*
X101885144Y-115031326D01*
X101865459Y-115098365D01*
X101848000Y-115113493D01*
X101850621Y-115115937D01*
X101081762Y-115940438D01*
X101021645Y-115976043D01*
X100951822Y-115973493D01*
X100906506Y-115946558D01*
X100722205Y-115774695D01*
X100686601Y-115714578D01*
X100689150Y-115644755D01*
X100716085Y-115599439D01*
X101449914Y-114812501D01*
X101418240Y-114782966D01*
X101418233Y-114782960D01*
X101336646Y-114721106D01*
X101336641Y-114721103D01*
X101178645Y-114648545D01*
X101008167Y-114614378D01*
X100834417Y-114620446D01*
X100834409Y-114620448D01*
X100765578Y-114639321D01*
X100695719Y-114638065D01*
X100637630Y-114599239D01*
X100609753Y-114535172D01*
X100620938Y-114466203D01*
X100648672Y-114428628D01*
X101202793Y-113917055D01*
X101202795Y-113917055D01*
X101299623Y-113827661D01*
X101331385Y-113777391D01*
X101370014Y-113716254D01*
X101374923Y-113700480D01*
X101409174Y-113590420D01*
X101414430Y-113458740D01*
X101385427Y-113330187D01*
X101324139Y-113213521D01*
X101280203Y-113165931D01*
X101278721Y-113164296D01*
X100725045Y-112541608D01*
X100722029Y-112538085D01*
X100192815Y-111896092D01*
X100189933Y-111892459D01*
X99685094Y-111231126D01*
X99682350Y-111227388D01*
X99202600Y-110547653D01*
X99199997Y-110543815D01*
X99124229Y-110427459D01*
X98745980Y-109846589D01*
X98743529Y-109842666D01*
X98315294Y-109127942D01*
X98314173Y-109126031D01*
X98283684Y-109072916D01*
X98282369Y-109070464D01*
X98281911Y-109069827D01*
X98188964Y-108976416D01*
X98188963Y-108976415D01*
X98188960Y-108976412D01*
X98188958Y-108976411D01*
X98188956Y-108976409D01*
X98074999Y-108910236D01*
X98074996Y-108910235D01*
X98014478Y-108893858D01*
X97954908Y-108857345D01*
X97924536Y-108794422D01*
X97933004Y-108725067D01*
X97977623Y-108671300D01*
X98044228Y-108650192D01*
X98046870Y-108650164D01*
X98277396Y-108650164D01*
X98277398Y-108650164D01*
X98353825Y-108629685D01*
X98422347Y-108590124D01*
X98478296Y-108534175D01*
X101592256Y-105420213D01*
X101653577Y-105386730D01*
X101720888Y-105390854D01*
X101740300Y-105397646D01*
X101770730Y-105400500D01*
X101770734Y-105400500D01*
X102404270Y-105400500D01*
X102434699Y-105397646D01*
X102434701Y-105397646D01*
X102527650Y-105365121D01*
X102562882Y-105352793D01*
X102672150Y-105272150D01*
X102752793Y-105162882D01*
X102781859Y-105079815D01*
X102797646Y-105034701D01*
X102797646Y-105034699D01*
X102800500Y-105004269D01*
X102800500Y-103995730D01*
X103199500Y-103995730D01*
X103199500Y-105004269D01*
X103202353Y-105034699D01*
X103202353Y-105034701D01*
X103241722Y-105147207D01*
X103247207Y-105162882D01*
X103327850Y-105272150D01*
X103437118Y-105352793D01*
X103455074Y-105359076D01*
X103565299Y-105397646D01*
X103595730Y-105400500D01*
X103595734Y-105400500D01*
X104229270Y-105400500D01*
X104259699Y-105397646D01*
X104259701Y-105397646D01*
X104352650Y-105365121D01*
X104387882Y-105352793D01*
X104497150Y-105272150D01*
X104577793Y-105162882D01*
X104606859Y-105079815D01*
X104622646Y-105034701D01*
X104622646Y-105034699D01*
X104625500Y-105004269D01*
X104625500Y-104924500D01*
X104645185Y-104857461D01*
X104697989Y-104811706D01*
X104749500Y-104800500D01*
X120541324Y-104800500D01*
X120608363Y-104820185D01*
X120629005Y-104836819D01*
X120692686Y-104900500D01*
X120806814Y-104966392D01*
X120934108Y-105000500D01*
X120934110Y-105000500D01*
X121065890Y-105000500D01*
X121065892Y-105000500D01*
X121193186Y-104966392D01*
X121307314Y-104900500D01*
X121400500Y-104807314D01*
X121466392Y-104693186D01*
X121500500Y-104565892D01*
X121500500Y-104434108D01*
X121466392Y-104306814D01*
X121400500Y-104192686D01*
X121307314Y-104099500D01*
X121249103Y-104065892D01*
X121193187Y-104033608D01*
X121129539Y-104016554D01*
X121065892Y-103999500D01*
X120934108Y-103999500D01*
X120806812Y-104033608D01*
X120692686Y-104099500D01*
X120692683Y-104099502D01*
X120629005Y-104163181D01*
X120567682Y-104196666D01*
X120541324Y-104199500D01*
X104749500Y-104199500D01*
X104682461Y-104179815D01*
X104636706Y-104127011D01*
X104625500Y-104075500D01*
X104625500Y-103995730D01*
X104622646Y-103965300D01*
X104622646Y-103965298D01*
X104577793Y-103837119D01*
X104577792Y-103837117D01*
X104497150Y-103727850D01*
X104387882Y-103647207D01*
X104387880Y-103647206D01*
X104259700Y-103602353D01*
X104229270Y-103599500D01*
X104229266Y-103599500D01*
X103595734Y-103599500D01*
X103595730Y-103599500D01*
X103565300Y-103602353D01*
X103565298Y-103602353D01*
X103437119Y-103647206D01*
X103437117Y-103647207D01*
X103327850Y-103727850D01*
X103247207Y-103837117D01*
X103247206Y-103837119D01*
X103202353Y-103965298D01*
X103202353Y-103965300D01*
X103199500Y-103995730D01*
X102800500Y-103995730D01*
X102797646Y-103965300D01*
X102797646Y-103965298D01*
X102752793Y-103837119D01*
X102752792Y-103837117D01*
X102672150Y-103727850D01*
X102562882Y-103647207D01*
X102562880Y-103647206D01*
X102434700Y-103602353D01*
X102404270Y-103599500D01*
X102404266Y-103599500D01*
X101770734Y-103599500D01*
X101770730Y-103599500D01*
X101740300Y-103602353D01*
X101740298Y-103602353D01*
X101612119Y-103647206D01*
X101612117Y-103647207D01*
X101502850Y-103727850D01*
X101422207Y-103837117D01*
X101422206Y-103837119D01*
X101377353Y-103965298D01*
X101377353Y-103965300D01*
X101374500Y-103995730D01*
X101374500Y-104736667D01*
X101354815Y-104803706D01*
X101338181Y-104824348D01*
X98149684Y-108012845D01*
X98088361Y-108046330D01*
X98062003Y-108049164D01*
X96828668Y-108049164D01*
X96761629Y-108029479D01*
X96716286Y-107977569D01*
X96586706Y-107699684D01*
X96586703Y-107699679D01*
X96571474Y-107673676D01*
X96571472Y-107673674D01*
X96477965Y-107577805D01*
X96360351Y-107513758D01*
X96360353Y-107513758D01*
X96229090Y-107487221D01*
X96163729Y-107493762D01*
X96095062Y-107480850D01*
X96044278Y-107432864D01*
X96027498Y-107365039D01*
X96050051Y-107298909D01*
X96066289Y-107280183D01*
X96193938Y-107159752D01*
X96289473Y-107014498D01*
X96289475Y-107014494D01*
X96348938Y-106851120D01*
X96348939Y-106851117D01*
X96369123Y-106678428D01*
X96348940Y-106505743D01*
X96315320Y-106409017D01*
X96297018Y-106369770D01*
X95209450Y-106876913D01*
X94121879Y-107384053D01*
X94121879Y-107384054D01*
X94140179Y-107423298D01*
X94192665Y-107511228D01*
X94192670Y-107511234D01*
X94311979Y-107637693D01*
X94311980Y-107637694D01*
X94457235Y-107733230D01*
X94457239Y-107733232D01*
X94620614Y-107792695D01*
X94620617Y-107792696D01*
X94793305Y-107812880D01*
X94967607Y-107792508D01*
X95036478Y-107804277D01*
X95088054Y-107851412D01*
X95105959Y-107918949D01*
X95084508Y-107985444D01*
X95068583Y-108004438D01*
X95021564Y-108050298D01*
X95021560Y-108050303D01*
X94957516Y-108167911D01*
X94957515Y-108167912D01*
X94930979Y-108299174D01*
X94944313Y-108432433D01*
X94944314Y-108432437D01*
X94954447Y-108460821D01*
X94954449Y-108460826D01*
X95205703Y-108999643D01*
X95205706Y-108999648D01*
X95220935Y-109025651D01*
X95220937Y-109025653D01*
X95314444Y-109121522D01*
X95373251Y-109153545D01*
X95432057Y-109185569D01*
X95432056Y-109185569D01*
X95476605Y-109194575D01*
X95563321Y-109212106D01*
X95696576Y-109198772D01*
X95724963Y-109188639D01*
X96648969Y-108757768D01*
X96674978Y-108742535D01*
X96707718Y-108710600D01*
X96733561Y-108685396D01*
X96795297Y-108652678D01*
X96820141Y-108650164D01*
X97714330Y-108650164D01*
X97781369Y-108669849D01*
X97827124Y-108722653D01*
X97837068Y-108791811D01*
X97808043Y-108855367D01*
X97766244Y-108886774D01*
X97756499Y-108891266D01*
X97688627Y-108909272D01*
X97574335Y-108974879D01*
X97574333Y-108974880D01*
X97571092Y-108976740D01*
X97571082Y-108976745D01*
X95171944Y-110353923D01*
X95104003Y-110370226D01*
X95038033Y-110347210D01*
X94996435Y-110295685D01*
X93201030Y-106152406D01*
X93192436Y-106083067D01*
X93222695Y-106020089D01*
X93278551Y-105984522D01*
X94244118Y-105689317D01*
X94313982Y-105688542D01*
X94373176Y-105725661D01*
X94402905Y-105788891D01*
X94393731Y-105858155D01*
X94348565Y-105911464D01*
X94332776Y-105920282D01*
X94228044Y-105969119D01*
X94140118Y-106021603D01*
X94140112Y-106021608D01*
X94013653Y-106140916D01*
X94013652Y-106140917D01*
X93918116Y-106286173D01*
X93918114Y-106286177D01*
X93858651Y-106449551D01*
X93858650Y-106449554D01*
X93838466Y-106622243D01*
X93858649Y-106794928D01*
X93892268Y-106891650D01*
X93910570Y-106930899D01*
X94998140Y-106423759D01*
X96085709Y-105916617D01*
X96067410Y-105877372D01*
X96014926Y-105789447D01*
X96014919Y-105789437D01*
X95895610Y-105662978D01*
X95895609Y-105662977D01*
X95750354Y-105567441D01*
X95750352Y-105567440D01*
X95592963Y-105510155D01*
X95536699Y-105468729D01*
X95511764Y-105403460D01*
X95526074Y-105335071D01*
X95575086Y-105285276D01*
X95599113Y-105275053D01*
X95927568Y-105174635D01*
X95927570Y-105174635D01*
X96053596Y-105136105D01*
X96156966Y-105071512D01*
X96165354Y-105066271D01*
X96195813Y-105033608D01*
X96255231Y-104969889D01*
X96317100Y-104853530D01*
X96346744Y-104725123D01*
X96345169Y-104680021D01*
X96342145Y-104593420D01*
X96322871Y-104530379D01*
X96095678Y-103734798D01*
X96094513Y-103730408D01*
X95897518Y-102929147D01*
X95896515Y-102924713D01*
X95729370Y-102116718D01*
X95728523Y-102112202D01*
X95713084Y-102020554D01*
X95591459Y-101298583D01*
X95590781Y-101294048D01*
X95577388Y-101191449D01*
X95524774Y-100788401D01*
X95483976Y-100475875D01*
X95483468Y-100471320D01*
X95428666Y-99881947D01*
X113500000Y-99881947D01*
X113500000Y-100118052D01*
X113536934Y-100351247D01*
X113609897Y-100575802D01*
X113717087Y-100786174D01*
X113777338Y-100869104D01*
X113777340Y-100869105D01*
X114476212Y-100170233D01*
X114487482Y-100212292D01*
X114559890Y-100337708D01*
X114662292Y-100440110D01*
X114787708Y-100512518D01*
X114829765Y-100523787D01*
X114130893Y-101222658D01*
X114213828Y-101282914D01*
X114424197Y-101390102D01*
X114648752Y-101463065D01*
X114648751Y-101463065D01*
X114881948Y-101500000D01*
X115118052Y-101500000D01*
X115351247Y-101463065D01*
X115575802Y-101390102D01*
X115786163Y-101282918D01*
X115786169Y-101282914D01*
X115869104Y-101222658D01*
X115869105Y-101222658D01*
X115170233Y-100523787D01*
X115212292Y-100512518D01*
X115337708Y-100440110D01*
X115440110Y-100337708D01*
X115512518Y-100212292D01*
X115523787Y-100170234D01*
X116222658Y-100869105D01*
X116222658Y-100869104D01*
X116282914Y-100786169D01*
X116282918Y-100786163D01*
X116390102Y-100575802D01*
X116463065Y-100351247D01*
X116500000Y-100118052D01*
X116500000Y-99881947D01*
X120000000Y-99881947D01*
X120000000Y-100118052D01*
X120036934Y-100351247D01*
X120109897Y-100575802D01*
X120217087Y-100786174D01*
X120277338Y-100869104D01*
X120277340Y-100869105D01*
X120976212Y-100170233D01*
X120987482Y-100212292D01*
X121059890Y-100337708D01*
X121162292Y-100440110D01*
X121287708Y-100512518D01*
X121329765Y-100523787D01*
X120630893Y-101222658D01*
X120713828Y-101282914D01*
X120924197Y-101390102D01*
X121148752Y-101463065D01*
X121148751Y-101463065D01*
X121381948Y-101500000D01*
X121618052Y-101500000D01*
X121851247Y-101463065D01*
X122075802Y-101390102D01*
X122286163Y-101282918D01*
X122286169Y-101282914D01*
X122369104Y-101222658D01*
X122369105Y-101222658D01*
X121670233Y-100523787D01*
X121712292Y-100512518D01*
X121837708Y-100440110D01*
X121940110Y-100337708D01*
X122012518Y-100212292D01*
X122023787Y-100170233D01*
X122722658Y-100869105D01*
X122722658Y-100869104D01*
X122782914Y-100786169D01*
X122782918Y-100786163D01*
X122890102Y-100575802D01*
X122963065Y-100351247D01*
X123000000Y-100118052D01*
X123000000Y-99881947D01*
X122963065Y-99648752D01*
X122890102Y-99424197D01*
X122782914Y-99213828D01*
X122722658Y-99130894D01*
X122722658Y-99130893D01*
X122023787Y-99829765D01*
X122012518Y-99787708D01*
X121940110Y-99662292D01*
X121837708Y-99559890D01*
X121712292Y-99487482D01*
X121670234Y-99476212D01*
X122369105Y-98777340D01*
X122369104Y-98777338D01*
X122286174Y-98717087D01*
X122075802Y-98609897D01*
X121851247Y-98536934D01*
X121851248Y-98536934D01*
X121618052Y-98500000D01*
X121381948Y-98500000D01*
X121148752Y-98536934D01*
X120924197Y-98609897D01*
X120713830Y-98717084D01*
X120630894Y-98777340D01*
X121329766Y-99476212D01*
X121287708Y-99487482D01*
X121162292Y-99559890D01*
X121059890Y-99662292D01*
X120987482Y-99787708D01*
X120976212Y-99829766D01*
X120277340Y-99130894D01*
X120217084Y-99213830D01*
X120109897Y-99424197D01*
X120036934Y-99648752D01*
X120000000Y-99881947D01*
X116500000Y-99881947D01*
X116463065Y-99648752D01*
X116390102Y-99424197D01*
X116282914Y-99213828D01*
X116222658Y-99130894D01*
X116222658Y-99130893D01*
X115523787Y-99829765D01*
X115512518Y-99787708D01*
X115440110Y-99662292D01*
X115337708Y-99559890D01*
X115212292Y-99487482D01*
X115170234Y-99476212D01*
X115869105Y-98777340D01*
X115869104Y-98777339D01*
X115786174Y-98717087D01*
X115575802Y-98609897D01*
X115351247Y-98536934D01*
X115351248Y-98536934D01*
X115118052Y-98500000D01*
X114881948Y-98500000D01*
X114648752Y-98536934D01*
X114424197Y-98609897D01*
X114213830Y-98717084D01*
X114130894Y-98777340D01*
X114829766Y-99476212D01*
X114787708Y-99487482D01*
X114662292Y-99559890D01*
X114559890Y-99662292D01*
X114487482Y-99787708D01*
X114476212Y-99829766D01*
X113777340Y-99130894D01*
X113717084Y-99213830D01*
X113609897Y-99424197D01*
X113536934Y-99648752D01*
X113500000Y-99881947D01*
X95428666Y-99881947D01*
X95407079Y-99649790D01*
X95406740Y-99645226D01*
X95400596Y-99534883D01*
X95360865Y-98821402D01*
X95360697Y-98816873D01*
X95345379Y-97990725D01*
X95345359Y-97988425D01*
X95345359Y-97966391D01*
X95345360Y-97923701D01*
X95311252Y-97796407D01*
X95311251Y-97796406D01*
X95311251Y-97796404D01*
X95278952Y-97740460D01*
X95245361Y-97682278D01*
X95152176Y-97589092D01*
X95152175Y-97589091D01*
X95152174Y-97589090D01*
X95152175Y-97589090D01*
X95151952Y-97588963D01*
X95101585Y-97559883D01*
X95038048Y-97523199D01*
X95038045Y-97523198D01*
X95013078Y-97516508D01*
X94910752Y-97489089D01*
X94771375Y-97489089D01*
X94771359Y-97489090D01*
X90480022Y-97489090D01*
X90412983Y-97469405D01*
X90367228Y-97416601D01*
X90361787Y-97402460D01*
X90176264Y-96815489D01*
X89730615Y-95405513D01*
X113799500Y-95405513D01*
X113799500Y-95594486D01*
X113829059Y-95781118D01*
X113887454Y-95960836D01*
X113964399Y-96111847D01*
X113973240Y-96129199D01*
X114084310Y-96282073D01*
X114217927Y-96415690D01*
X114370801Y-96526760D01*
X114399383Y-96541323D01*
X114539163Y-96612545D01*
X114539165Y-96612545D01*
X114539168Y-96612547D01*
X114635497Y-96643846D01*
X114718881Y-96670940D01*
X114905514Y-96700500D01*
X114905519Y-96700500D01*
X115094486Y-96700500D01*
X115281118Y-96670940D01*
X115344899Y-96650216D01*
X115460832Y-96612547D01*
X115629199Y-96526760D01*
X115782073Y-96415690D01*
X115915690Y-96282073D01*
X116026760Y-96129199D01*
X116112547Y-95960832D01*
X116112548Y-95960829D01*
X116136803Y-95886182D01*
X116176241Y-95828506D01*
X116240599Y-95801308D01*
X116254734Y-95800500D01*
X120245266Y-95800500D01*
X120312305Y-95820185D01*
X120358060Y-95872989D01*
X120363197Y-95886182D01*
X120387451Y-95960829D01*
X120444856Y-96073492D01*
X120473240Y-96129199D01*
X120584310Y-96282073D01*
X120717927Y-96415690D01*
X120870801Y-96526760D01*
X120899383Y-96541323D01*
X121039163Y-96612545D01*
X121039165Y-96612545D01*
X121039168Y-96612547D01*
X121135497Y-96643846D01*
X121218881Y-96670940D01*
X121405514Y-96700500D01*
X121405519Y-96700500D01*
X121594486Y-96700500D01*
X121781118Y-96670940D01*
X121844899Y-96650216D01*
X121960832Y-96612547D01*
X122030769Y-96576911D01*
X122099436Y-96564015D01*
X122164177Y-96590291D01*
X122174744Y-96599715D01*
X122963181Y-97388152D01*
X122996666Y-97449475D01*
X122999500Y-97475833D01*
X122999500Y-97565892D01*
X123005909Y-97589810D01*
X123033608Y-97693187D01*
X123060902Y-97740460D01*
X123099500Y-97807314D01*
X123192686Y-97900500D01*
X123306814Y-97966392D01*
X123434108Y-98000500D01*
X123434110Y-98000500D01*
X123565890Y-98000500D01*
X123565892Y-98000500D01*
X123693186Y-97966392D01*
X123807314Y-97900500D01*
X123900500Y-97807314D01*
X123966392Y-97693186D01*
X124000500Y-97565892D01*
X124000500Y-97434108D01*
X123966392Y-97306814D01*
X123900500Y-97192686D01*
X123807314Y-97099500D01*
X123749102Y-97065891D01*
X123693187Y-97033608D01*
X123620511Y-97014135D01*
X123565892Y-96999500D01*
X123475833Y-96999500D01*
X123408794Y-96979815D01*
X123388152Y-96963181D01*
X122599715Y-96174744D01*
X122566230Y-96113421D01*
X122571214Y-96043729D01*
X122576907Y-96030778D01*
X122612547Y-95960832D01*
X122670940Y-95781118D01*
X122674330Y-95759713D01*
X122700500Y-95594486D01*
X122700500Y-95405513D01*
X122670940Y-95218881D01*
X122621230Y-95065891D01*
X122612547Y-95039168D01*
X122612545Y-95039165D01*
X122612545Y-95039163D01*
X122559016Y-94934108D01*
X122526760Y-94870801D01*
X122415690Y-94717927D01*
X122282073Y-94584310D01*
X122129199Y-94473240D01*
X122057719Y-94436819D01*
X121960836Y-94387454D01*
X121781118Y-94329059D01*
X121594486Y-94299500D01*
X121594481Y-94299500D01*
X121405519Y-94299500D01*
X121405514Y-94299500D01*
X121218881Y-94329059D01*
X121039163Y-94387454D01*
X120870800Y-94473240D01*
X120831855Y-94501536D01*
X120717927Y-94584310D01*
X120717925Y-94584312D01*
X120717924Y-94584312D01*
X120584312Y-94717924D01*
X120584312Y-94717925D01*
X120584310Y-94717927D01*
X120562611Y-94747793D01*
X120473240Y-94870800D01*
X120387451Y-95039170D01*
X120363197Y-95113818D01*
X120323759Y-95171494D01*
X120259401Y-95198692D01*
X120245266Y-95199500D01*
X116254734Y-95199500D01*
X116187695Y-95179815D01*
X116141940Y-95127011D01*
X116136803Y-95113818D01*
X116112548Y-95039170D01*
X116059016Y-94934108D01*
X116026760Y-94870801D01*
X115915690Y-94717927D01*
X115782073Y-94584310D01*
X115629199Y-94473240D01*
X115557719Y-94436819D01*
X115460836Y-94387454D01*
X115281118Y-94329059D01*
X115094486Y-94299500D01*
X115094481Y-94299500D01*
X114905519Y-94299500D01*
X114905514Y-94299500D01*
X114718881Y-94329059D01*
X114539163Y-94387454D01*
X114370800Y-94473240D01*
X114331855Y-94501536D01*
X114217927Y-94584310D01*
X114217925Y-94584312D01*
X114217924Y-94584312D01*
X114084312Y-94717924D01*
X114084312Y-94717925D01*
X114084310Y-94717927D01*
X114062611Y-94747793D01*
X113973240Y-94870800D01*
X113887454Y-95039163D01*
X113829059Y-95218881D01*
X113799500Y-95405513D01*
X89730615Y-95405513D01*
X83545665Y-75837106D01*
X85099500Y-75837106D01*
X85099500Y-76162893D01*
X85135974Y-76486604D01*
X85135976Y-76486620D01*
X85208467Y-76804226D01*
X85208471Y-76804238D01*
X85316066Y-77111725D01*
X85457413Y-77405234D01*
X85457415Y-77405237D01*
X85630739Y-77681081D01*
X85833857Y-77935783D01*
X86064217Y-78166143D01*
X86318919Y-78369261D01*
X86594763Y-78542585D01*
X86888278Y-78683935D01*
X87119217Y-78764744D01*
X87195761Y-78791528D01*
X87195773Y-78791532D01*
X87513383Y-78864024D01*
X87837106Y-78900499D01*
X87837107Y-78900500D01*
X87837111Y-78900500D01*
X88162893Y-78900500D01*
X88162893Y-78900499D01*
X88486617Y-78864024D01*
X88804227Y-78791532D01*
X89111722Y-78683935D01*
X89405237Y-78542585D01*
X89681081Y-78369261D01*
X89935783Y-78166143D01*
X90166143Y-77935783D01*
X90369261Y-77681081D01*
X90542585Y-77405237D01*
X90683935Y-77111722D01*
X90791532Y-76804227D01*
X90864024Y-76486617D01*
X90900500Y-76162889D01*
X90900500Y-75837111D01*
X90864024Y-75513383D01*
X90791532Y-75195773D01*
X90683935Y-74888278D01*
X90542585Y-74594763D01*
X90369261Y-74318919D01*
X90166143Y-74064217D01*
X89935783Y-73833857D01*
X89933938Y-73832386D01*
X89706856Y-73651294D01*
X89681081Y-73630739D01*
X89405237Y-73457415D01*
X89405234Y-73457413D01*
X89111725Y-73316066D01*
X88804238Y-73208471D01*
X88804226Y-73208467D01*
X88486620Y-73135976D01*
X88486604Y-73135974D01*
X88162893Y-73099500D01*
X88162889Y-73099500D01*
X87837111Y-73099500D01*
X87837107Y-73099500D01*
X87513395Y-73135974D01*
X87513379Y-73135976D01*
X87195773Y-73208467D01*
X87195761Y-73208471D01*
X86888274Y-73316066D01*
X86594765Y-73457413D01*
X86318920Y-73630738D01*
X86064217Y-73833856D01*
X85833856Y-74064217D01*
X85630738Y-74318920D01*
X85457413Y-74594765D01*
X85316066Y-74888274D01*
X85208471Y-75195761D01*
X85208467Y-75195773D01*
X85135976Y-75513379D01*
X85135974Y-75513395D01*
X85099500Y-75837106D01*
X83545665Y-75837106D01*
X82701448Y-73166110D01*
X82410194Y-72244619D01*
X82408760Y-72174764D01*
X82445319Y-72115223D01*
X82508266Y-72084899D01*
X82528429Y-72083249D01*
X110304249Y-72083249D01*
X110371288Y-72102934D01*
G37*
%TD.AperFunction*%
%TA.AperFunction,Conductor*%
G36*
X128391206Y-108820185D02*
G01*
X128411848Y-108836819D01*
X128681083Y-109106054D01*
X128714568Y-109167377D01*
X128709584Y-109237069D01*
X128681084Y-109281415D01*
X128662500Y-109299999D01*
X128662500Y-110250000D01*
X129424999Y-110250000D01*
X129424999Y-110149332D01*
X129444684Y-110082293D01*
X129497488Y-110036538D01*
X129566646Y-110026594D01*
X129630202Y-110055619D01*
X129636680Y-110061651D01*
X132643181Y-113068152D01*
X132676666Y-113129475D01*
X132679500Y-113155833D01*
X132679500Y-116640979D01*
X132659815Y-116708018D01*
X132626402Y-116742709D01*
X132618557Y-116748176D01*
X132583789Y-116765174D01*
X132559914Y-116789048D01*
X132550902Y-116795330D01*
X132527765Y-116803076D01*
X132506358Y-116814766D01*
X132495229Y-116813970D01*
X132484648Y-116817513D01*
X132460999Y-116811522D01*
X132436666Y-116809782D01*
X132425303Y-116802479D01*
X132416917Y-116800355D01*
X132409280Y-116792181D01*
X132392319Y-116781281D01*
X132376210Y-116765172D01*
X132263628Y-116710135D01*
X132263626Y-116710134D01*
X132263625Y-116710134D01*
X132190636Y-116699500D01*
X132190630Y-116699500D01*
X132005577Y-116699500D01*
X131938538Y-116679815D01*
X131917896Y-116663181D01*
X130014256Y-114759541D01*
X130014248Y-114759535D01*
X129945739Y-114719982D01*
X129945734Y-114719979D01*
X129920257Y-114713152D01*
X129869306Y-114699500D01*
X129869304Y-114699500D01*
X127288333Y-114699500D01*
X127221294Y-114679815D01*
X127200652Y-114663181D01*
X126724319Y-114186848D01*
X126709615Y-114159920D01*
X126693023Y-114134102D01*
X126692131Y-114127901D01*
X126690834Y-114125525D01*
X126688000Y-114099167D01*
X126688000Y-113881969D01*
X126707685Y-113814930D01*
X126760489Y-113769175D01*
X126771025Y-113764934D01*
X126862882Y-113732793D01*
X126972150Y-113652150D01*
X127033225Y-113569395D01*
X127088870Y-113527147D01*
X127158526Y-113521688D01*
X127220075Y-113554755D01*
X127250699Y-113604026D01*
X127265642Y-113649121D01*
X127265643Y-113649124D01*
X127357684Y-113798345D01*
X127481654Y-113922315D01*
X127630875Y-114014356D01*
X127630880Y-114014358D01*
X127797302Y-114069505D01*
X127797309Y-114069506D01*
X127900019Y-114079999D01*
X128462500Y-114079999D01*
X128524972Y-114079999D01*
X128524986Y-114079998D01*
X128627697Y-114069505D01*
X128794119Y-114014358D01*
X128794124Y-114014356D01*
X128943345Y-113922315D01*
X129067315Y-113798345D01*
X129159356Y-113649124D01*
X129159358Y-113649119D01*
X129214505Y-113482697D01*
X129214506Y-113482690D01*
X129224999Y-113379986D01*
X129225000Y-113379973D01*
X129225000Y-113130000D01*
X128462500Y-113130000D01*
X128462500Y-114079999D01*
X127900019Y-114079999D01*
X127962499Y-114079998D01*
X127962500Y-114079998D01*
X127962500Y-111830000D01*
X128462500Y-111830000D01*
X128462500Y-112630000D01*
X129224999Y-112630000D01*
X129224999Y-112380028D01*
X129224998Y-112380013D01*
X129214505Y-112277302D01*
X129159358Y-112110880D01*
X129159356Y-112110875D01*
X129067315Y-111961654D01*
X128945415Y-111839754D01*
X128911930Y-111778431D01*
X128916914Y-111708739D01*
X128958786Y-111652806D01*
X128987714Y-111637698D01*
X128987579Y-111637408D01*
X128994047Y-111634391D01*
X128994099Y-111634365D01*
X128994120Y-111634357D01*
X128994124Y-111634356D01*
X129143345Y-111542315D01*
X129267315Y-111418345D01*
X129359356Y-111269124D01*
X129359358Y-111269119D01*
X129414505Y-111102697D01*
X129414506Y-111102690D01*
X129424999Y-110999986D01*
X129425000Y-110999973D01*
X129425000Y-110750000D01*
X128662500Y-110750000D01*
X128662500Y-111706000D01*
X128642815Y-111773039D01*
X128590011Y-111818794D01*
X128538500Y-111830000D01*
X128462500Y-111830000D01*
X127962500Y-111830000D01*
X127962500Y-111674000D01*
X127982185Y-111606961D01*
X128034989Y-111561206D01*
X128086500Y-111550000D01*
X128162500Y-111550000D01*
X128162500Y-109300000D01*
X128162499Y-109299999D01*
X128100028Y-109300000D01*
X128100011Y-109300001D01*
X127997302Y-109310494D01*
X127830880Y-109365641D01*
X127830875Y-109365643D01*
X127681654Y-109457684D01*
X127557684Y-109581654D01*
X127465643Y-109730875D01*
X127465640Y-109730883D01*
X127450698Y-109775974D01*
X127410925Y-109833418D01*
X127346409Y-109860240D01*
X127277633Y-109847924D01*
X127233223Y-109810601D01*
X127172151Y-109727851D01*
X127162384Y-109720643D01*
X127062882Y-109647207D01*
X127062880Y-109647206D01*
X126934700Y-109602353D01*
X126912921Y-109600311D01*
X126848013Y-109574453D01*
X126807388Y-109517607D01*
X126800500Y-109476853D01*
X126800500Y-109175833D01*
X126820185Y-109108794D01*
X126836819Y-109088152D01*
X127088152Y-108836819D01*
X127149475Y-108803334D01*
X127175833Y-108800500D01*
X128324167Y-108800500D01*
X128391206Y-108820185D01*
G37*
%TD.AperFunction*%
%TD*%
M02*
