%TF.GenerationSoftware,KiCad,Pcbnew,10.0.4*%
%TF.CreationDate,2026-07-02T19:08:18+08:00*%
%TF.ProjectId,pcb nameplate,70636220-6e61-46d6-9570-6c6174652e6b,rev?*%
%TF.SameCoordinates,Original*%
%TF.FileFunction,Copper,L2,Bot*%
%TF.FilePolarity,Positive*%
%FSLAX46Y46*%
G04 Gerber Fmt 4.6, Leading zero omitted, Abs format (unit mm)*
G04 Created by KiCad (PCBNEW 10.0.4) date 2026-07-02 19:08:18*
%MOMM*%
%LPD*%
G01*
G04 APERTURE LIST*
%TA.AperFunction,ComponentPad*%
%ADD10C,2.000000*%
%TD*%
%TA.AperFunction,ComponentPad*%
%ADD11O,1.100000X1.700000*%
%TD*%
%TA.AperFunction,ViaPad*%
%ADD12C,0.600000*%
%TD*%
%TA.AperFunction,Conductor*%
%ADD13C,0.400000*%
%TD*%
%TA.AperFunction,Conductor*%
%ADD14C,0.200000*%
%TD*%
G04 APERTURE END LIST*
D10*
%TO.P,SW1,1,1_1*%
%TO.N,Net-(U1-GPIO9)*%
X115000000Y-95500000D03*
X121500000Y-95500000D03*
%TO.P,SW1,2,2_2*%
%TO.N,GND*%
X115000000Y-100000000D03*
X121500000Y-100000000D03*
%TD*%
D11*
%TO.P,J2,SH,SHIELD_SH*%
%TO.N,GND*%
X128160000Y-117580000D03*
X128160000Y-121380000D03*
X136800000Y-117580000D03*
X136800000Y-121380000D03*
%TD*%
D12*
%TO.N,GND*%
X98500000Y-105500000D03*
X100500000Y-108500000D03*
X119000000Y-79000000D03*
X126500000Y-80000000D03*
X137000000Y-112500000D03*
X135525000Y-114330000D03*
%TO.N,Net-(U1-GPIO8)*%
X129000000Y-104500000D03*
X121000000Y-104500000D03*
%TO.N,Net-(U1-GPIO10)*%
X131500000Y-105500000D03*
X120000000Y-107000000D03*
%TO.N,Net-(U1-GPIO18)*%
X123500000Y-110000000D03*
X132000000Y-97500000D03*
%TO.N,Net-(U1-GPIO2)*%
X124500000Y-101500000D03*
X124000000Y-95000000D03*
%TO.N,Net-(U1-GPIO3)*%
X126000000Y-104500000D03*
X125000000Y-97000000D03*
%TO.N,Net-(U1-GPIO19)*%
X130500000Y-96000000D03*
X132500000Y-94000000D03*
%TO.N,Net-(U1-GPIO9)*%
X130000000Y-104000000D03*
X123500000Y-97500000D03*
%TD*%
%TO.N,GND*%
D13*
X137000000Y-112855000D02*
X136427500Y-113427500D01*
X100500000Y-108500000D02*
X100500000Y-107500000D01*
X100500000Y-107500000D02*
X98500000Y-105500000D01*
X120000000Y-80000000D02*
X119000000Y-79000000D01*
X126500000Y-80000000D02*
X120000000Y-80000000D01*
X137000000Y-112500000D02*
X137000000Y-112855000D01*
%TO.N,Net-(U1-GPIO8)*%
D14*
X125400000Y-100900000D02*
X129000000Y-104500000D01*
X124251471Y-102100000D02*
X123900000Y-101748529D01*
X123900000Y-101251471D02*
X124251471Y-100900000D01*
X124534314Y-102100000D02*
X124251471Y-102100000D01*
X122200000Y-105700000D02*
X126667157Y-105700000D01*
X123900000Y-101748529D02*
X123900000Y-101251471D01*
X127400736Y-104966421D02*
X124534314Y-102100000D01*
X124251471Y-100900000D02*
X125400000Y-100900000D01*
X121000000Y-104500000D02*
X122200000Y-105700000D01*
X126667157Y-105700000D02*
X127400736Y-104966421D01*
%TO.N,Net-(U1-GPIO10)*%
X120000000Y-107000000D02*
X120000000Y-107348529D01*
X123251471Y-110600000D02*
X126400000Y-110600000D01*
X120000000Y-107348529D02*
X123251471Y-110600000D01*
X126400000Y-110600000D02*
X131500000Y-105500000D01*
%TO.N,Net-(U1-GPIO18)*%
X132000000Y-103414215D02*
X132000000Y-97500000D01*
X123500000Y-110000000D02*
X125414215Y-110000000D01*
X125414215Y-110000000D02*
X132000000Y-103414215D01*
%TO.N,Net-(U1-GPIO2)*%
X129748529Y-105100000D02*
X128100000Y-105100000D01*
X130600000Y-101600000D02*
X130600000Y-104248529D01*
X130600000Y-104248529D02*
X129748529Y-105100000D01*
X124000000Y-95000000D02*
X130600000Y-101600000D01*
X128100000Y-105100000D02*
X124500000Y-101500000D01*
%TO.N,Net-(U1-GPIO3)*%
X124900000Y-96900000D02*
X123251471Y-96900000D01*
X122900000Y-101400000D02*
X126000000Y-104500000D01*
X122900000Y-97251471D02*
X122900000Y-101400000D01*
X125000000Y-97000000D02*
X124900000Y-96900000D01*
X123251471Y-96900000D02*
X122900000Y-97251471D01*
%TO.N,Net-(U1-GPIO19)*%
X132500000Y-94000000D02*
X130500000Y-96000000D01*
%TO.N,Net-(U1-GPIO9)*%
X123500000Y-97500000D02*
X130000000Y-104000000D01*
%TO.N,GND*%
D13*
X136800000Y-113800000D02*
X136800000Y-117580000D01*
X136427500Y-113427500D02*
X136800000Y-113800000D01*
X136427500Y-113427500D02*
X135525000Y-114330000D01*
%TD*%
%TA.AperFunction,Conductor*%
%TO.N,GND*%
G36*
X125291206Y-101220185D02*
G01*
X125311848Y-101236819D01*
X128463181Y-104388152D01*
X128496666Y-104449475D01*
X128499500Y-104475833D01*
X128499500Y-104565892D01*
X128506876Y-104593420D01*
X128520270Y-104643407D01*
X128519674Y-104668401D01*
X128523233Y-104693147D01*
X128518857Y-104702727D01*
X128518607Y-104713257D01*
X128504594Y-104733960D01*
X128494208Y-104756703D01*
X128485346Y-104762397D01*
X128479444Y-104771119D01*
X128456463Y-104780960D01*
X128435430Y-104794477D01*
X128419574Y-104796756D01*
X128415216Y-104798623D01*
X128400495Y-104799500D01*
X128275833Y-104799500D01*
X128208794Y-104779815D01*
X128188152Y-104763181D01*
X125036819Y-101611848D01*
X125003334Y-101550525D01*
X125000500Y-101524167D01*
X125000500Y-101434110D01*
X125000500Y-101434108D01*
X124979730Y-101356592D01*
X124980325Y-101331598D01*
X124976767Y-101306853D01*
X124981142Y-101297272D01*
X124981393Y-101286743D01*
X124995405Y-101266039D01*
X125005792Y-101243297D01*
X125014653Y-101237602D01*
X125020556Y-101228881D01*
X125043536Y-101219039D01*
X125064570Y-101205523D01*
X125080425Y-101203243D01*
X125084784Y-101201377D01*
X125099505Y-101200500D01*
X125224167Y-101200500D01*
X125291206Y-101220185D01*
G37*
%TD.AperFunction*%
%TA.AperFunction,Conductor*%
G36*
X123348350Y-97977521D02*
G01*
X123434108Y-98000500D01*
X123531902Y-98000500D01*
X123539570Y-98001460D01*
X123564808Y-98012433D01*
X123591206Y-98020185D01*
X123596387Y-98026164D01*
X123603645Y-98029320D01*
X123611848Y-98036819D01*
X129463181Y-103888152D01*
X129496666Y-103949475D01*
X129499500Y-103975833D01*
X129499500Y-103995684D01*
X129479815Y-104062723D01*
X129427011Y-104108478D01*
X129357853Y-104118422D01*
X129313500Y-104103071D01*
X129193189Y-104033609D01*
X129193186Y-104033608D01*
X129065892Y-103999500D01*
X128975833Y-103999500D01*
X128908794Y-103979815D01*
X128888152Y-103963181D01*
X125584512Y-100659541D01*
X125584504Y-100659535D01*
X125515995Y-100619982D01*
X125515990Y-100619979D01*
X125490513Y-100613152D01*
X125439562Y-100599500D01*
X124211909Y-100599500D01*
X124173695Y-100609739D01*
X124135480Y-100619979D01*
X124135475Y-100619982D01*
X124066966Y-100659535D01*
X124066958Y-100659541D01*
X123659541Y-101066958D01*
X123659535Y-101066966D01*
X123619982Y-101135475D01*
X123619979Y-101135480D01*
X123599500Y-101211910D01*
X123599500Y-101375167D01*
X123579815Y-101442206D01*
X123527011Y-101487961D01*
X123457853Y-101497905D01*
X123394297Y-101468880D01*
X123387819Y-101462848D01*
X123236819Y-101311848D01*
X123203334Y-101250525D01*
X123200500Y-101224167D01*
X123200500Y-98099504D01*
X123205210Y-98083462D01*
X123204905Y-98066747D01*
X123214850Y-98050631D01*
X123220185Y-98032465D01*
X123232818Y-98021518D01*
X123241600Y-98007289D01*
X123258680Y-97999108D01*
X123272989Y-97986710D01*
X123289536Y-97984330D01*
X123304615Y-97977109D01*
X123339903Y-97976464D01*
X123348350Y-97977521D01*
G37*
%TD.AperFunction*%
%TA.AperFunction,Conductor*%
G36*
X125643171Y-97080705D02*
G01*
X125682042Y-97107013D01*
X130263181Y-101688152D01*
X130296666Y-101749475D01*
X130299500Y-101775833D01*
X130299500Y-103400495D01*
X130279815Y-103467534D01*
X130227011Y-103513289D01*
X130157853Y-103523233D01*
X130143407Y-103520270D01*
X130065892Y-103499500D01*
X129975833Y-103499500D01*
X129908794Y-103479815D01*
X129888152Y-103463181D01*
X124036819Y-97611848D01*
X124025680Y-97591450D01*
X124010784Y-97573610D01*
X124007611Y-97558359D01*
X124003334Y-97550525D01*
X124001460Y-97539570D01*
X124000500Y-97531901D01*
X124000500Y-97434108D01*
X123977523Y-97348356D01*
X123976465Y-97339903D01*
X123980756Y-97313491D01*
X123981393Y-97286743D01*
X123986273Y-97279532D01*
X123987670Y-97270937D01*
X124005558Y-97251038D01*
X124020556Y-97228881D01*
X124028560Y-97225453D01*
X124034382Y-97218978D01*
X124060185Y-97211910D01*
X124084784Y-97201377D01*
X124099505Y-97200500D01*
X124466240Y-97200500D01*
X124533279Y-97220185D01*
X124573626Y-97262499D01*
X124599500Y-97307314D01*
X124692686Y-97400500D01*
X124806814Y-97466392D01*
X124934108Y-97500500D01*
X124934110Y-97500500D01*
X125065890Y-97500500D01*
X125065892Y-97500500D01*
X125193186Y-97466392D01*
X125307314Y-97400500D01*
X125400500Y-97307314D01*
X125466392Y-97193186D01*
X125474587Y-97162601D01*
X125510949Y-97102942D01*
X125573795Y-97072411D01*
X125643171Y-97080705D01*
G37*
%TD.AperFunction*%
%TD*%
%TA.AperFunction,Conductor*%
%TO.N,GND*%
G36*
X110371288Y-72102934D02*
G01*
X110417043Y-72155738D01*
X110424185Y-72175764D01*
X111443052Y-76057631D01*
X111443053Y-76057632D01*
X111443055Y-76057637D01*
X111508356Y-76172092D01*
X111508357Y-76172093D01*
X111508359Y-76172096D01*
X111601066Y-76265757D01*
X111714856Y-76332233D01*
X111841973Y-76366992D01*
X111860799Y-76367088D01*
X111973749Y-76367667D01*
X111973749Y-76367666D01*
X111973755Y-76367667D01*
X112036428Y-76351216D01*
X112038539Y-76350683D01*
X112843149Y-76155404D01*
X112847611Y-76154409D01*
X113657731Y-75989401D01*
X113662196Y-75988578D01*
X114477960Y-75853770D01*
X114482417Y-75853119D01*
X115302582Y-75748719D01*
X115307097Y-75748229D01*
X116130565Y-75674375D01*
X116135090Y-75674053D01*
X116960741Y-75630843D01*
X116965344Y-75630689D01*
X117792007Y-75618186D01*
X117796527Y-75618201D01*
X118623092Y-75636421D01*
X118627681Y-75636607D01*
X119452998Y-75685524D01*
X119457516Y-75685876D01*
X120280479Y-75765426D01*
X120285007Y-75765949D01*
X121105577Y-75876172D01*
X121107716Y-75876479D01*
X121151824Y-75883241D01*
X121160375Y-75884552D01*
X121176280Y-75888528D01*
X121187931Y-75888775D01*
X121191392Y-75889305D01*
X121206385Y-75882542D01*
X121209833Y-75882112D01*
X121302784Y-75871876D01*
X121425579Y-75824037D01*
X121531808Y-75746046D01*
X121614232Y-75643220D01*
X121667234Y-75522563D01*
X122106918Y-72654214D01*
X122136532Y-72590934D01*
X122195659Y-72553708D01*
X122261878Y-72553311D01*
X126620639Y-73732949D01*
X126680207Y-73769463D01*
X126710578Y-73832387D01*
X126703559Y-73898234D01*
X125685088Y-76474274D01*
X125636634Y-76596828D01*
X125621552Y-76727742D01*
X125621552Y-76727746D01*
X125640866Y-76858105D01*
X125640868Y-76858110D01*
X125661273Y-76905199D01*
X125661274Y-76905202D01*
X125665194Y-76914246D01*
X125693264Y-76979026D01*
X125765999Y-77070702D01*
X125769975Y-77075714D01*
X125769980Y-77075721D01*
X125775169Y-77082261D01*
X125775171Y-77082262D01*
X125775173Y-77082265D01*
X125881010Y-77160786D01*
X125881011Y-77160786D01*
X125881012Y-77160787D01*
X125911943Y-77173016D01*
X125911945Y-77173017D01*
X125941257Y-77184606D01*
X125943404Y-77185478D01*
X126396782Y-77374604D01*
X126712296Y-77506221D01*
X126716524Y-77508078D01*
X127471924Y-77856901D01*
X127476048Y-77858900D01*
X127748213Y-77997151D01*
X128217834Y-78235703D01*
X128221928Y-78237880D01*
X128949098Y-78642151D01*
X128953094Y-78644470D01*
X129375603Y-78900500D01*
X129664673Y-79075669D01*
X129668593Y-79078147D01*
X130364478Y-79536262D01*
X130366402Y-79537554D01*
X130419800Y-79574156D01*
X130419802Y-79574156D01*
X130419804Y-79574158D01*
X130544084Y-79617995D01*
X130675474Y-79628172D01*
X130675474Y-79628171D01*
X130675475Y-79628172D01*
X130675475Y-79628171D01*
X130691747Y-79629432D01*
X130691751Y-79629432D01*
X130694646Y-79629656D01*
X130710671Y-79621603D01*
X130805023Y-79603996D01*
X130867381Y-79574158D01*
X130867384Y-79574156D01*
X130867386Y-79574156D01*
X130923895Y-79547117D01*
X130923896Y-79547115D01*
X130923898Y-79547115D01*
X131024002Y-79461404D01*
X132664673Y-77067875D01*
X132718810Y-77023712D01*
X132788233Y-77015826D01*
X132848066Y-77044199D01*
X135730032Y-79536904D01*
X136263358Y-79998195D01*
X136301186Y-80056939D01*
X136301248Y-80126809D01*
X136266354Y-80183090D01*
X134211979Y-82079730D01*
X134134221Y-82151518D01*
X134134220Y-82151519D01*
X134111809Y-82186987D01*
X134102457Y-82201789D01*
X134102456Y-82201791D01*
X134102455Y-82201790D01*
X134063831Y-82262921D01*
X134063825Y-82262932D01*
X134063483Y-82263617D01*
X134062537Y-82267080D01*
X134024670Y-82388762D01*
X134024669Y-82388768D01*
X134019414Y-82520439D01*
X134048417Y-82648992D01*
X134048418Y-82648994D01*
X134109705Y-82765660D01*
X134137326Y-82795577D01*
X134153636Y-82813243D01*
X134155128Y-82814890D01*
X134539693Y-83247385D01*
X134708800Y-83437570D01*
X134711816Y-83441093D01*
X135241030Y-84083085D01*
X135243912Y-84086718D01*
X135484641Y-84402070D01*
X135695810Y-84678699D01*
X135748737Y-84748032D01*
X135751482Y-84751770D01*
X136231256Y-85431541D01*
X136233858Y-85435379D01*
X136687849Y-86132570D01*
X136690307Y-86136503D01*
X137118523Y-86851203D01*
X137119695Y-86853202D01*
X137151923Y-86909346D01*
X137151924Y-86909347D01*
X137151926Y-86909350D01*
X137244879Y-87002768D01*
X137247516Y-87004299D01*
X137335572Y-87055431D01*
X137335578Y-87055434D01*
X137355525Y-87067018D01*
X137358446Y-87068837D01*
X137386109Y-87076322D01*
X137410237Y-87082851D01*
X137410241Y-87082854D01*
X137410242Y-87082853D01*
X137486047Y-87103369D01*
X137617831Y-87103698D01*
X137617831Y-87103697D01*
X137617835Y-87103698D01*
X137617840Y-87103696D01*
X137618412Y-87103698D01*
X137618416Y-87103698D01*
X137635095Y-87103739D01*
X137650019Y-87095159D01*
X137677499Y-87087870D01*
X137745210Y-87069909D01*
X137859503Y-87004302D01*
X137859503Y-87004300D01*
X137871963Y-86997149D01*
X137871970Y-86997143D01*
X140261893Y-85625254D01*
X140329834Y-85608952D01*
X140395804Y-85631968D01*
X140437402Y-85683493D01*
X142232819Y-89826772D01*
X142241413Y-89896111D01*
X142211154Y-89959089D01*
X142155296Y-89994657D01*
X141407077Y-90223410D01*
X139506269Y-90804543D01*
X139506268Y-90804544D01*
X139459079Y-90818971D01*
X139459078Y-90818970D01*
X139380244Y-90843073D01*
X139380241Y-90843074D01*
X139306319Y-90889266D01*
X139306314Y-90889269D01*
X139268484Y-90912909D01*
X139268483Y-90912909D01*
X139268483Y-90912910D01*
X139230274Y-90953883D01*
X139230259Y-90953897D01*
X139204678Y-90981332D01*
X139204676Y-90981335D01*
X139178606Y-91009290D01*
X139116737Y-91125651D01*
X139087092Y-91254056D01*
X139087092Y-91254058D01*
X139091691Y-91385754D01*
X139091691Y-91385756D01*
X139110624Y-91447687D01*
X139111275Y-91449889D01*
X139338149Y-92244354D01*
X139339329Y-92248798D01*
X139536311Y-93050007D01*
X139537326Y-93054493D01*
X139704463Y-93862458D01*
X139705311Y-93866978D01*
X139842374Y-94680583D01*
X139843054Y-94685131D01*
X139949858Y-95503288D01*
X139950368Y-95507858D01*
X140026757Y-96329369D01*
X140027098Y-96333955D01*
X140072973Y-97157746D01*
X140073144Y-97162342D01*
X140088405Y-97985365D01*
X140088405Y-97985379D01*
X140088484Y-97989587D01*
X140088484Y-98055482D01*
X140088485Y-98055484D01*
X140094845Y-98079224D01*
X140094846Y-98079225D01*
X140122590Y-98182773D01*
X140161088Y-98249453D01*
X140188483Y-98296903D01*
X140281668Y-98390089D01*
X140304578Y-98403316D01*
X140395798Y-98455982D01*
X140469290Y-98475673D01*
X140523090Y-98490090D01*
X140523092Y-98490090D01*
X141402587Y-98490090D01*
X141469626Y-98509775D01*
X141515381Y-98562579D01*
X141522214Y-98581453D01*
X143000000Y-104000000D01*
X145640829Y-103245477D01*
X145710694Y-103245987D01*
X145769195Y-103284189D01*
X145794795Y-103333093D01*
X151175250Y-123740318D01*
X151173307Y-123810161D01*
X151133912Y-123867866D01*
X151069574Y-123895112D01*
X151055347Y-123895931D01*
X125129589Y-123895931D01*
X125062550Y-123876246D01*
X125016795Y-123823442D01*
X125009651Y-123803411D01*
X124433985Y-121610118D01*
X124320854Y-121179086D01*
X124267703Y-120976579D01*
X127110000Y-120976579D01*
X127110000Y-121130000D01*
X127860000Y-121130000D01*
X127860000Y-121630000D01*
X127110000Y-121630000D01*
X127110000Y-121783420D01*
X127150348Y-121986266D01*
X127150350Y-121986274D01*
X127229500Y-122177358D01*
X127229505Y-122177368D01*
X127344410Y-122349335D01*
X127344413Y-122349339D01*
X127490660Y-122495586D01*
X127490664Y-122495589D01*
X127662631Y-122610494D01*
X127662641Y-122610499D01*
X127853723Y-122689648D01*
X127853725Y-122689649D01*
X127910000Y-122700842D01*
X127910000Y-121846988D01*
X127919940Y-121864205D01*
X127975795Y-121920060D01*
X128044204Y-121959556D01*
X128120504Y-121980000D01*
X128199496Y-121980000D01*
X128275796Y-121959556D01*
X128344205Y-121920060D01*
X128400060Y-121864205D01*
X128410000Y-121846988D01*
X128410000Y-122700842D01*
X128466274Y-122689649D01*
X128466276Y-122689648D01*
X128657358Y-122610499D01*
X128657368Y-122610494D01*
X128829335Y-122495589D01*
X128829339Y-122495586D01*
X128975586Y-122349339D01*
X128975589Y-122349335D01*
X129090494Y-122177368D01*
X129090499Y-122177358D01*
X129169649Y-121986274D01*
X129169651Y-121986266D01*
X129209999Y-121783420D01*
X129210000Y-121783417D01*
X129210000Y-121630000D01*
X128460000Y-121630000D01*
X128460000Y-121130000D01*
X129210000Y-121130000D01*
X129210000Y-120976583D01*
X129209999Y-120976579D01*
X135750000Y-120976579D01*
X135750000Y-121130000D01*
X136500000Y-121130000D01*
X136500000Y-121630000D01*
X135750000Y-121630000D01*
X135750000Y-121783420D01*
X135790348Y-121986266D01*
X135790350Y-121986274D01*
X135869500Y-122177358D01*
X135869505Y-122177368D01*
X135984410Y-122349335D01*
X135984413Y-122349339D01*
X136130660Y-122495586D01*
X136130664Y-122495589D01*
X136302631Y-122610494D01*
X136302641Y-122610499D01*
X136493723Y-122689648D01*
X136493725Y-122689649D01*
X136550000Y-122700842D01*
X136550000Y-121846988D01*
X136559940Y-121864205D01*
X136615795Y-121920060D01*
X136684204Y-121959556D01*
X136760504Y-121980000D01*
X136839496Y-121980000D01*
X136915796Y-121959556D01*
X136984205Y-121920060D01*
X137040060Y-121864205D01*
X137050000Y-121846988D01*
X137050000Y-122700842D01*
X137106274Y-122689649D01*
X137106276Y-122689648D01*
X137297358Y-122610499D01*
X137297368Y-122610494D01*
X137469335Y-122495589D01*
X137469339Y-122495586D01*
X137615586Y-122349339D01*
X137615589Y-122349335D01*
X137730494Y-122177368D01*
X137730499Y-122177358D01*
X137809649Y-121986274D01*
X137809651Y-121986266D01*
X137849999Y-121783420D01*
X137850000Y-121783417D01*
X137850000Y-121630000D01*
X137100000Y-121630000D01*
X137100000Y-121130000D01*
X137850000Y-121130000D01*
X137850000Y-120976583D01*
X137849999Y-120976579D01*
X137809651Y-120773733D01*
X137809649Y-120773725D01*
X137730499Y-120582641D01*
X137730494Y-120582631D01*
X137615589Y-120410664D01*
X137615586Y-120410660D01*
X137469339Y-120264413D01*
X137469335Y-120264410D01*
X137297368Y-120149505D01*
X137297358Y-120149500D01*
X137106272Y-120070349D01*
X137106267Y-120070347D01*
X137050000Y-120059155D01*
X137050000Y-120913011D01*
X137040060Y-120895795D01*
X136984205Y-120839940D01*
X136915796Y-120800444D01*
X136839496Y-120780000D01*
X136760504Y-120780000D01*
X136684204Y-120800444D01*
X136615795Y-120839940D01*
X136559940Y-120895795D01*
X136550000Y-120913011D01*
X136550000Y-120059156D01*
X136549999Y-120059155D01*
X136493732Y-120070347D01*
X136493727Y-120070349D01*
X136302641Y-120149500D01*
X136302631Y-120149505D01*
X136130664Y-120264410D01*
X136130660Y-120264413D01*
X135984413Y-120410660D01*
X135984410Y-120410664D01*
X135869505Y-120582631D01*
X135869500Y-120582641D01*
X135790350Y-120773725D01*
X135790348Y-120773733D01*
X135750000Y-120976579D01*
X129209999Y-120976579D01*
X129169651Y-120773733D01*
X129169649Y-120773725D01*
X129090499Y-120582641D01*
X129090494Y-120582631D01*
X128975589Y-120410664D01*
X128975586Y-120410660D01*
X128829339Y-120264413D01*
X128829335Y-120264410D01*
X128657368Y-120149505D01*
X128657358Y-120149500D01*
X128466272Y-120070349D01*
X128466267Y-120070347D01*
X128410000Y-120059155D01*
X128410000Y-120913011D01*
X128400060Y-120895795D01*
X128344205Y-120839940D01*
X128275796Y-120800444D01*
X128199496Y-120780000D01*
X128120504Y-120780000D01*
X128044204Y-120800444D01*
X127975795Y-120839940D01*
X127919940Y-120895795D01*
X127910000Y-120913011D01*
X127910000Y-120059156D01*
X127909999Y-120059155D01*
X127853732Y-120070347D01*
X127853727Y-120070349D01*
X127662641Y-120149500D01*
X127662631Y-120149505D01*
X127490664Y-120264410D01*
X127490660Y-120264413D01*
X127344413Y-120410660D01*
X127344410Y-120410664D01*
X127229505Y-120582631D01*
X127229500Y-120582641D01*
X127150350Y-120773725D01*
X127150348Y-120773733D01*
X127110000Y-120976579D01*
X124267703Y-120976579D01*
X124024049Y-120048256D01*
X123990793Y-119921549D01*
X123967068Y-119879967D01*
X123925487Y-119807085D01*
X123925486Y-119807084D01*
X123925485Y-119807082D01*
X123832851Y-119713495D01*
X123832781Y-119713425D01*
X123832780Y-119713424D01*
X123832779Y-119713423D01*
X123832774Y-119713420D01*
X123718993Y-119646949D01*
X123718986Y-119646946D01*
X123711753Y-119644968D01*
X123711753Y-119644969D01*
X123591871Y-119612187D01*
X123460165Y-119611513D01*
X123460091Y-119611513D01*
X123460090Y-119611513D01*
X123460088Y-119611513D01*
X123397458Y-119627951D01*
X123395226Y-119628515D01*
X122590707Y-119823772D01*
X122586210Y-119824775D01*
X121776152Y-119989770D01*
X121771620Y-119990606D01*
X120955933Y-120125401D01*
X120951374Y-120126067D01*
X120131294Y-120230456D01*
X120126713Y-120230953D01*
X119303315Y-120304801D01*
X119298718Y-120305128D01*
X118473101Y-120348335D01*
X118468496Y-120348490D01*
X117641879Y-120360993D01*
X117637271Y-120360977D01*
X116810757Y-120342758D01*
X116806153Y-120342571D01*
X115980879Y-120293657D01*
X115976285Y-120293299D01*
X115153390Y-120213756D01*
X115148813Y-120213227D01*
X114328342Y-120103017D01*
X114326061Y-120102689D01*
X114282024Y-120095938D01*
X114282018Y-120095938D01*
X114262051Y-120092878D01*
X114262050Y-120092878D01*
X114262049Y-120092878D01*
X114131055Y-120107304D01*
X114131054Y-120107304D01*
X114008264Y-120155142D01*
X113930270Y-120212403D01*
X113930269Y-120212402D01*
X113917350Y-120221889D01*
X113917345Y-120221893D01*
X113902036Y-120233132D01*
X113902034Y-120233133D01*
X113902034Y-120233134D01*
X113883865Y-120255800D01*
X113819609Y-120335961D01*
X113766607Y-120456617D01*
X113326925Y-123324961D01*
X113297310Y-123388244D01*
X113238183Y-123425470D01*
X113171963Y-123425867D01*
X108813200Y-122246229D01*
X108753631Y-122209715D01*
X108723260Y-122146792D01*
X108730279Y-122080946D01*
X109748756Y-119504909D01*
X109748758Y-119504907D01*
X109797211Y-119382353D01*
X109812294Y-119251435D01*
X109792979Y-119121074D01*
X109751672Y-119025748D01*
X109740583Y-119000156D01*
X109740579Y-119000150D01*
X109658676Y-118896918D01*
X109658668Y-118896911D01*
X109552837Y-118818393D01*
X109552835Y-118818392D01*
X109492636Y-118794593D01*
X109490486Y-118793720D01*
X108721556Y-118472961D01*
X108717310Y-118471096D01*
X107961942Y-118122288D01*
X107957769Y-118120265D01*
X107957365Y-118120060D01*
X107386345Y-117830000D01*
X107215994Y-117743467D01*
X107211900Y-117741290D01*
X106484750Y-117337032D01*
X106480739Y-117334704D01*
X106384756Y-117276541D01*
X106384754Y-117276539D01*
X106219796Y-117176579D01*
X127110000Y-117176579D01*
X127110000Y-117330000D01*
X127860000Y-117330000D01*
X127860000Y-117830000D01*
X127110000Y-117830000D01*
X127110000Y-117983420D01*
X127150348Y-118186266D01*
X127150350Y-118186274D01*
X127229500Y-118377358D01*
X127229505Y-118377368D01*
X127344410Y-118549335D01*
X127344413Y-118549339D01*
X127490660Y-118695586D01*
X127490664Y-118695589D01*
X127662631Y-118810494D01*
X127662641Y-118810499D01*
X127853723Y-118889648D01*
X127853725Y-118889649D01*
X127910000Y-118900842D01*
X127910000Y-118046988D01*
X127919940Y-118064205D01*
X127975795Y-118120060D01*
X128044204Y-118159556D01*
X128120504Y-118180000D01*
X128199496Y-118180000D01*
X128275796Y-118159556D01*
X128344205Y-118120060D01*
X128400060Y-118064205D01*
X128410000Y-118046988D01*
X128410000Y-118900842D01*
X128466274Y-118889649D01*
X128466276Y-118889648D01*
X128657358Y-118810499D01*
X128657368Y-118810494D01*
X128829335Y-118695589D01*
X128829339Y-118695586D01*
X128975586Y-118549339D01*
X128975589Y-118549335D01*
X129090494Y-118377368D01*
X129090499Y-118377358D01*
X129169649Y-118186274D01*
X129169651Y-118186266D01*
X129209999Y-117983420D01*
X129210000Y-117983417D01*
X129210000Y-117830000D01*
X128460000Y-117830000D01*
X128460000Y-117330000D01*
X129210000Y-117330000D01*
X129210000Y-117176583D01*
X129209999Y-117176579D01*
X135750000Y-117176579D01*
X135750000Y-117330000D01*
X136500000Y-117330000D01*
X136500000Y-117830000D01*
X135750000Y-117830000D01*
X135750000Y-117983420D01*
X135790348Y-118186266D01*
X135790350Y-118186274D01*
X135869500Y-118377358D01*
X135869505Y-118377368D01*
X135984410Y-118549335D01*
X135984413Y-118549339D01*
X136130660Y-118695586D01*
X136130664Y-118695589D01*
X136302631Y-118810494D01*
X136302641Y-118810499D01*
X136493723Y-118889648D01*
X136493725Y-118889649D01*
X136550000Y-118900842D01*
X136550000Y-118046988D01*
X136559940Y-118064205D01*
X136615795Y-118120060D01*
X136684204Y-118159556D01*
X136760504Y-118180000D01*
X136839496Y-118180000D01*
X136915796Y-118159556D01*
X136984205Y-118120060D01*
X137040060Y-118064205D01*
X137050000Y-118046988D01*
X137050000Y-118900842D01*
X137106274Y-118889649D01*
X137106276Y-118889648D01*
X137297358Y-118810499D01*
X137297368Y-118810494D01*
X137469335Y-118695589D01*
X137469339Y-118695586D01*
X137615586Y-118549339D01*
X137615589Y-118549335D01*
X137730494Y-118377368D01*
X137730499Y-118377358D01*
X137809649Y-118186274D01*
X137809651Y-118186266D01*
X137849999Y-117983420D01*
X137850000Y-117983417D01*
X137850000Y-117830000D01*
X137100000Y-117830000D01*
X137100000Y-117330000D01*
X137850000Y-117330000D01*
X137850000Y-117176583D01*
X137849999Y-117176579D01*
X137809651Y-116973733D01*
X137809649Y-116973725D01*
X137730499Y-116782641D01*
X137730494Y-116782631D01*
X137615589Y-116610664D01*
X137615586Y-116610660D01*
X137469339Y-116464413D01*
X137469335Y-116464410D01*
X137297368Y-116349505D01*
X137297358Y-116349500D01*
X137106272Y-116270349D01*
X137106267Y-116270347D01*
X137050000Y-116259155D01*
X137050000Y-117113011D01*
X137040060Y-117095795D01*
X136984205Y-117039940D01*
X136915796Y-117000444D01*
X136839496Y-116980000D01*
X136760504Y-116980000D01*
X136684204Y-117000444D01*
X136615795Y-117039940D01*
X136559940Y-117095795D01*
X136550000Y-117113011D01*
X136550000Y-116259156D01*
X136549999Y-116259155D01*
X136493732Y-116270347D01*
X136493727Y-116270349D01*
X136302641Y-116349500D01*
X136302631Y-116349505D01*
X136130664Y-116464410D01*
X136130660Y-116464413D01*
X135984413Y-116610660D01*
X135984410Y-116610664D01*
X135869505Y-116782631D01*
X135869500Y-116782641D01*
X135790350Y-116973725D01*
X135790348Y-116973733D01*
X135750000Y-117176579D01*
X129209999Y-117176579D01*
X129169651Y-116973733D01*
X129169649Y-116973725D01*
X129090499Y-116782641D01*
X129090494Y-116782631D01*
X128975589Y-116610664D01*
X128975586Y-116610660D01*
X128829339Y-116464413D01*
X128829335Y-116464410D01*
X128657368Y-116349505D01*
X128657358Y-116349500D01*
X128466272Y-116270349D01*
X128466267Y-116270347D01*
X128410000Y-116259155D01*
X128410000Y-117113011D01*
X128400060Y-117095795D01*
X128344205Y-117039940D01*
X128275796Y-117000444D01*
X128199496Y-116980000D01*
X128120504Y-116980000D01*
X128044204Y-117000444D01*
X127975795Y-117039940D01*
X127919940Y-117095795D01*
X127910000Y-117113011D01*
X127910000Y-116259156D01*
X127909999Y-116259155D01*
X127853732Y-116270347D01*
X127853727Y-116270349D01*
X127662641Y-116349500D01*
X127662631Y-116349505D01*
X127490664Y-116464410D01*
X127490660Y-116464413D01*
X127344413Y-116610660D01*
X127344410Y-116610664D01*
X127229505Y-116782631D01*
X127229500Y-116782641D01*
X127150350Y-116973725D01*
X127150348Y-116973733D01*
X127110000Y-117176579D01*
X106219796Y-117176579D01*
X105769162Y-116903508D01*
X105765241Y-116901031D01*
X105069326Y-116442900D01*
X105067404Y-116441609D01*
X105053482Y-116432066D01*
X105014027Y-116405021D01*
X104889747Y-116361184D01*
X104873323Y-116359912D01*
X104758364Y-116351008D01*
X104758357Y-116351008D01*
X104758356Y-116351008D01*
X104758355Y-116351008D01*
X104703825Y-116361185D01*
X104628811Y-116375184D01*
X104509934Y-116432065D01*
X104456003Y-116478242D01*
X104409831Y-116517775D01*
X104409830Y-116517776D01*
X104338561Y-116621750D01*
X104338556Y-116621757D01*
X102769176Y-118911298D01*
X102715036Y-118955464D01*
X102645613Y-118963350D01*
X102585779Y-118934976D01*
X99170475Y-115980984D01*
X99132647Y-115922240D01*
X99132584Y-115852370D01*
X99167477Y-115796091D01*
X101202793Y-113917055D01*
X101202795Y-113917055D01*
X101299623Y-113827661D01*
X101331385Y-113777391D01*
X101370014Y-113716254D01*
X101406183Y-113600028D01*
X101407621Y-113596455D01*
X101409173Y-113590421D01*
X101409174Y-113590420D01*
X101414430Y-113458740D01*
X101385427Y-113330187D01*
X101324139Y-113213521D01*
X101280203Y-113165931D01*
X101278721Y-113164296D01*
X100725045Y-112541608D01*
X100722029Y-112538085D01*
X100192815Y-111896092D01*
X100189933Y-111892459D01*
X99685094Y-111231126D01*
X99682350Y-111227388D01*
X99202600Y-110547653D01*
X99199997Y-110543815D01*
X98745980Y-109846589D01*
X98743529Y-109842666D01*
X98732118Y-109823621D01*
X98315294Y-109127942D01*
X98314173Y-109126031D01*
X98283684Y-109072916D01*
X98282369Y-109070464D01*
X98281911Y-109069827D01*
X98188964Y-108976416D01*
X98188963Y-108976415D01*
X98188960Y-108976412D01*
X98188956Y-108976410D01*
X98188953Y-108976407D01*
X98074999Y-108910237D01*
X98074995Y-108910235D01*
X97982215Y-108885126D01*
X97982215Y-108885127D01*
X97947791Y-108875811D01*
X97895075Y-108875679D01*
X97816006Y-108875482D01*
X97816005Y-108875482D01*
X97816004Y-108875482D01*
X97816003Y-108875482D01*
X97815999Y-108875482D01*
X97762594Y-108889648D01*
X97762595Y-108889649D01*
X97688626Y-108909272D01*
X97688623Y-108909273D01*
X97575885Y-108973989D01*
X97575674Y-108974110D01*
X97575667Y-108974114D01*
X95171944Y-110353923D01*
X95104003Y-110370226D01*
X95038033Y-110347210D01*
X94996435Y-110295685D01*
X93753524Y-107427404D01*
X93539764Y-106934108D01*
X119499500Y-106934108D01*
X119499500Y-107065891D01*
X119533608Y-107193187D01*
X119558053Y-107235526D01*
X119599500Y-107307314D01*
X119677395Y-107385209D01*
X119683043Y-107390857D01*
X119708327Y-107427404D01*
X119712510Y-107436645D01*
X119719979Y-107464518D01*
X119740753Y-107500500D01*
X119759540Y-107533040D01*
X123011011Y-110784511D01*
X123066960Y-110840460D01*
X123066962Y-110840461D01*
X123066966Y-110840464D01*
X123135475Y-110880017D01*
X123135482Y-110880021D01*
X123211909Y-110900500D01*
X123211911Y-110900500D01*
X126439560Y-110900500D01*
X126439562Y-110900500D01*
X126515989Y-110880021D01*
X126584511Y-110840460D01*
X126640460Y-110784511D01*
X131388151Y-106036818D01*
X131449474Y-106003334D01*
X131475832Y-106000500D01*
X131565890Y-106000500D01*
X131565892Y-106000500D01*
X131693186Y-105966392D01*
X131807314Y-105900500D01*
X131900500Y-105807314D01*
X131966392Y-105693186D01*
X132000500Y-105565892D01*
X132000500Y-105434108D01*
X131966392Y-105306814D01*
X131900500Y-105192686D01*
X131807314Y-105099500D01*
X131728683Y-105054102D01*
X131693187Y-105033608D01*
X131629539Y-105016554D01*
X131565892Y-104999500D01*
X131434108Y-104999500D01*
X131306812Y-105033608D01*
X131192686Y-105099500D01*
X131192683Y-105099502D01*
X131099502Y-105192683D01*
X131099500Y-105192686D01*
X131033608Y-105306812D01*
X130999500Y-105434108D01*
X130999500Y-105524166D01*
X130979815Y-105591205D01*
X130963181Y-105611847D01*
X126311848Y-110263181D01*
X126250525Y-110296666D01*
X126224167Y-110299500D01*
X125839048Y-110299500D01*
X125772009Y-110279815D01*
X125726254Y-110227011D01*
X125716310Y-110157853D01*
X125745335Y-110094297D01*
X125751367Y-110087819D01*
X128905078Y-106934108D01*
X132240460Y-103598726D01*
X132256669Y-103570651D01*
X132280021Y-103530204D01*
X132300500Y-103453777D01*
X132300500Y-97958676D01*
X132320185Y-97891637D01*
X132336819Y-97870995D01*
X132346835Y-97860979D01*
X132400500Y-97807314D01*
X132466392Y-97693186D01*
X132500500Y-97565892D01*
X132500500Y-97434108D01*
X132466392Y-97306814D01*
X132400500Y-97192686D01*
X132307314Y-97099500D01*
X132249103Y-97065892D01*
X132193187Y-97033608D01*
X132108852Y-97011011D01*
X132065892Y-96999500D01*
X131934108Y-96999500D01*
X131806812Y-97033608D01*
X131692686Y-97099500D01*
X131692683Y-97099502D01*
X131599502Y-97192683D01*
X131599500Y-97192686D01*
X131533608Y-97306812D01*
X131524742Y-97339903D01*
X131499500Y-97434108D01*
X131499500Y-97565892D01*
X131505909Y-97589810D01*
X131533608Y-97693187D01*
X131560701Y-97740112D01*
X131599500Y-97807314D01*
X131599502Y-97807316D01*
X131663181Y-97870995D01*
X131696666Y-97932318D01*
X131699500Y-97958676D01*
X131699500Y-103238382D01*
X131679815Y-103305421D01*
X131663181Y-103326063D01*
X131112181Y-103877063D01*
X131050858Y-103910548D01*
X130981166Y-103905564D01*
X130925233Y-103863692D01*
X130900816Y-103798228D01*
X130900500Y-103789382D01*
X130900500Y-101560440D01*
X130900500Y-101560438D01*
X130888590Y-101515989D01*
X130880022Y-101484012D01*
X130840460Y-101415489D01*
X125359079Y-95934108D01*
X129999500Y-95934108D01*
X129999500Y-96065891D01*
X130033608Y-96193187D01*
X130066554Y-96250250D01*
X130099500Y-96307314D01*
X130192686Y-96400500D01*
X130306814Y-96466392D01*
X130434108Y-96500500D01*
X130434110Y-96500500D01*
X130565890Y-96500500D01*
X130565892Y-96500500D01*
X130693186Y-96466392D01*
X130807314Y-96400500D01*
X130900500Y-96307314D01*
X130966392Y-96193186D01*
X131000500Y-96065892D01*
X131000500Y-95975832D01*
X131020185Y-95908793D01*
X131036819Y-95888151D01*
X132388151Y-94536819D01*
X132449474Y-94503334D01*
X132475832Y-94500500D01*
X132565890Y-94500500D01*
X132565892Y-94500500D01*
X132693186Y-94466392D01*
X132807314Y-94400500D01*
X132900500Y-94307314D01*
X132966392Y-94193186D01*
X133000500Y-94065892D01*
X133000500Y-93934108D01*
X132966392Y-93806814D01*
X132900500Y-93692686D01*
X132807314Y-93599500D01*
X132750250Y-93566554D01*
X132693187Y-93533608D01*
X132629539Y-93516554D01*
X132565892Y-93499500D01*
X132434108Y-93499500D01*
X132306812Y-93533608D01*
X132192686Y-93599500D01*
X132192683Y-93599502D01*
X132099502Y-93692683D01*
X132099500Y-93692686D01*
X132033608Y-93806812D01*
X131999500Y-93934108D01*
X131999500Y-94024166D01*
X131979815Y-94091205D01*
X131963181Y-94111847D01*
X130611847Y-95463181D01*
X130550524Y-95496666D01*
X130524166Y-95499500D01*
X130434108Y-95499500D01*
X130306812Y-95533608D01*
X130192686Y-95599500D01*
X130192683Y-95599502D01*
X130099502Y-95692683D01*
X130099500Y-95692686D01*
X130033608Y-95806812D01*
X129999500Y-95934108D01*
X125359079Y-95934108D01*
X124536819Y-95111848D01*
X124503334Y-95050525D01*
X124500500Y-95024167D01*
X124500500Y-94934110D01*
X124500500Y-94934108D01*
X124466392Y-94806814D01*
X124400500Y-94692686D01*
X124307314Y-94599500D01*
X124250250Y-94566554D01*
X124193187Y-94533608D01*
X124129539Y-94516554D01*
X124065892Y-94499500D01*
X123934108Y-94499500D01*
X123806812Y-94533608D01*
X123692686Y-94599500D01*
X123692683Y-94599502D01*
X123599502Y-94692683D01*
X123599500Y-94692686D01*
X123533608Y-94806812D01*
X123516463Y-94870800D01*
X123499500Y-94934108D01*
X123499500Y-95065892D01*
X123511814Y-95111848D01*
X123533608Y-95193187D01*
X123566554Y-95250250D01*
X123599500Y-95307314D01*
X123692686Y-95400500D01*
X123806814Y-95466392D01*
X123934108Y-95500500D01*
X123934110Y-95500500D01*
X124024167Y-95500500D01*
X124091206Y-95520185D01*
X124111848Y-95536819D01*
X124892986Y-96317957D01*
X124926471Y-96379280D01*
X124921487Y-96448972D01*
X124879615Y-96504905D01*
X124858874Y-96517470D01*
X124848504Y-96522437D01*
X124806814Y-96533608D01*
X124717329Y-96585271D01*
X124713029Y-96587332D01*
X124692293Y-96590702D01*
X124659460Y-96599500D01*
X123211909Y-96599500D01*
X123173695Y-96609739D01*
X123135480Y-96619979D01*
X123135475Y-96619982D01*
X123066966Y-96659535D01*
X123066958Y-96659541D01*
X122659541Y-97066958D01*
X122659535Y-97066966D01*
X122619982Y-97135475D01*
X122619979Y-97135480D01*
X122599500Y-97211910D01*
X122599500Y-98701368D01*
X122579815Y-98768407D01*
X122527011Y-98814162D01*
X122457853Y-98824106D01*
X122402615Y-98801686D01*
X122286174Y-98717087D01*
X122075802Y-98609897D01*
X121851247Y-98536934D01*
X121851248Y-98536934D01*
X121618052Y-98500000D01*
X121381948Y-98500000D01*
X121148752Y-98536934D01*
X120924197Y-98609897D01*
X120713830Y-98717084D01*
X120630894Y-98777340D01*
X121329766Y-99476212D01*
X121287708Y-99487482D01*
X121162292Y-99559890D01*
X121059890Y-99662292D01*
X120987482Y-99787708D01*
X120976212Y-99829766D01*
X120277340Y-99130894D01*
X120217084Y-99213830D01*
X120109897Y-99424197D01*
X120036934Y-99648752D01*
X120000000Y-99881947D01*
X120000000Y-100118052D01*
X120036934Y-100351247D01*
X120109897Y-100575802D01*
X120217087Y-100786174D01*
X120277338Y-100869104D01*
X120277340Y-100869105D01*
X120976212Y-100170233D01*
X120987482Y-100212292D01*
X121059890Y-100337708D01*
X121162292Y-100440110D01*
X121287708Y-100512518D01*
X121329764Y-100523787D01*
X120630893Y-101222658D01*
X120713828Y-101282914D01*
X120924197Y-101390102D01*
X121148752Y-101463065D01*
X121148751Y-101463065D01*
X121381948Y-101500000D01*
X121618052Y-101500000D01*
X121851247Y-101463065D01*
X122075802Y-101390102D01*
X122286171Y-101282914D01*
X122402614Y-101198313D01*
X122468420Y-101174833D01*
X122536474Y-101190658D01*
X122585169Y-101240764D01*
X122599500Y-101298631D01*
X122599500Y-101439562D01*
X122605740Y-101462848D01*
X122619979Y-101515990D01*
X122619982Y-101515995D01*
X122659535Y-101584504D01*
X122659541Y-101584512D01*
X125463181Y-104388152D01*
X125496666Y-104449475D01*
X125499500Y-104475833D01*
X125499500Y-104565892D01*
X125506876Y-104593420D01*
X125533608Y-104693187D01*
X125552046Y-104725122D01*
X125599500Y-104807314D01*
X125692686Y-104900500D01*
X125806814Y-104966392D01*
X125934108Y-105000500D01*
X125934110Y-105000500D01*
X126065890Y-105000500D01*
X126065892Y-105000500D01*
X126193186Y-104966392D01*
X126307314Y-104900500D01*
X126400500Y-104807314D01*
X126466392Y-104693186D01*
X126466392Y-104693185D01*
X126470456Y-104686147D01*
X126472754Y-104687474D01*
X126508352Y-104643278D01*
X126574641Y-104621196D01*
X126642345Y-104638458D01*
X126666777Y-104657433D01*
X126780462Y-104771119D01*
X126888083Y-104878740D01*
X126921568Y-104940063D01*
X126916584Y-105009755D01*
X126888083Y-105054102D01*
X126579005Y-105363181D01*
X126517682Y-105396666D01*
X126491324Y-105399500D01*
X122375833Y-105399500D01*
X122308794Y-105379815D01*
X122288152Y-105363181D01*
X121536819Y-104611848D01*
X121503334Y-104550525D01*
X121500500Y-104524167D01*
X121500500Y-104434110D01*
X121500500Y-104434108D01*
X121466392Y-104306814D01*
X121400500Y-104192686D01*
X121307314Y-104099500D01*
X121243615Y-104062723D01*
X121193187Y-104033608D01*
X121129539Y-104016554D01*
X121065892Y-103999500D01*
X120934108Y-103999500D01*
X120806812Y-104033608D01*
X120692686Y-104099500D01*
X120692683Y-104099502D01*
X120599502Y-104192683D01*
X120599500Y-104192686D01*
X120533608Y-104306812D01*
X120523719Y-104343721D01*
X120499500Y-104434108D01*
X120499500Y-104565892D01*
X120506876Y-104593420D01*
X120533608Y-104693187D01*
X120552046Y-104725122D01*
X120599500Y-104807314D01*
X120692686Y-104900500D01*
X120806814Y-104966392D01*
X120934108Y-105000500D01*
X120934110Y-105000500D01*
X121024167Y-105000500D01*
X121091206Y-105020185D01*
X121111848Y-105036819D01*
X121959540Y-105884511D01*
X122015489Y-105940460D01*
X122015491Y-105940461D01*
X122015495Y-105940464D01*
X122084004Y-105980017D01*
X122084011Y-105980021D01*
X122160438Y-106000500D01*
X122160440Y-106000500D01*
X126706717Y-106000500D01*
X126706719Y-106000500D01*
X126783146Y-105980021D01*
X126851668Y-105940460D01*
X126907617Y-105884511D01*
X127595899Y-105196228D01*
X127657220Y-105162745D01*
X127726911Y-105167729D01*
X127771259Y-105196230D01*
X127859540Y-105284511D01*
X127915489Y-105340460D01*
X127915491Y-105340461D01*
X127915495Y-105340464D01*
X127954843Y-105363181D01*
X127984011Y-105380021D01*
X128060438Y-105400500D01*
X128139562Y-105400500D01*
X129289382Y-105400500D01*
X129356421Y-105420185D01*
X129402176Y-105472989D01*
X129412120Y-105542147D01*
X129383095Y-105605703D01*
X129377063Y-105612181D01*
X125326063Y-109663181D01*
X125264740Y-109696666D01*
X125238382Y-109699500D01*
X123958676Y-109699500D01*
X123891637Y-109679815D01*
X123870995Y-109663181D01*
X123807316Y-109599502D01*
X123807314Y-109599500D01*
X123750250Y-109566554D01*
X123693187Y-109533608D01*
X123629539Y-109516554D01*
X123565892Y-109499500D01*
X123434108Y-109499500D01*
X123306812Y-109533608D01*
X123192686Y-109599500D01*
X123192683Y-109599502D01*
X123099502Y-109692683D01*
X123099498Y-109692689D01*
X123059373Y-109762185D01*
X123008805Y-109810400D01*
X122940198Y-109823621D01*
X122875333Y-109797652D01*
X122864306Y-109787864D01*
X120461651Y-107385209D01*
X120428166Y-107323886D01*
X120433150Y-107254194D01*
X120441941Y-107235534D01*
X120466392Y-107193186D01*
X120500500Y-107065892D01*
X120500500Y-106934108D01*
X120466392Y-106806814D01*
X120400500Y-106692686D01*
X120307314Y-106599500D01*
X120250250Y-106566554D01*
X120193187Y-106533608D01*
X120129539Y-106516554D01*
X120065892Y-106499500D01*
X119934108Y-106499500D01*
X119806812Y-106533608D01*
X119692686Y-106599500D01*
X119692683Y-106599502D01*
X119599502Y-106692683D01*
X119599500Y-106692686D01*
X119533608Y-106806812D01*
X119499500Y-106934108D01*
X93539764Y-106934108D01*
X93201030Y-106152406D01*
X93192436Y-106083067D01*
X93222695Y-106020089D01*
X93278551Y-105984522D01*
X95927568Y-105174635D01*
X95927570Y-105174635D01*
X96053596Y-105136105D01*
X96112172Y-105099502D01*
X96139532Y-105082406D01*
X96139541Y-105082399D01*
X96139552Y-105082393D01*
X96165354Y-105066271D01*
X96195813Y-105033608D01*
X96255231Y-104969889D01*
X96317100Y-104853530D01*
X96346744Y-104725123D01*
X96345326Y-104684511D01*
X96342145Y-104593420D01*
X96322871Y-104530379D01*
X96095678Y-103734798D01*
X96094513Y-103730408D01*
X95897518Y-102929147D01*
X95896515Y-102924713D01*
X95729370Y-102116718D01*
X95728523Y-102112202D01*
X95591459Y-101298583D01*
X95590781Y-101294048D01*
X95589827Y-101286743D01*
X95581139Y-101220185D01*
X95577388Y-101191449D01*
X95524482Y-100786169D01*
X95483976Y-100475875D01*
X95483468Y-100471320D01*
X95472518Y-100353554D01*
X95428666Y-99881947D01*
X113500000Y-99881947D01*
X113500000Y-100118052D01*
X113536934Y-100351247D01*
X113609897Y-100575802D01*
X113717087Y-100786174D01*
X113777338Y-100869104D01*
X113777340Y-100869105D01*
X114476212Y-100170233D01*
X114487482Y-100212292D01*
X114559890Y-100337708D01*
X114662292Y-100440110D01*
X114787708Y-100512518D01*
X114829765Y-100523787D01*
X114130893Y-101222658D01*
X114213828Y-101282914D01*
X114424197Y-101390102D01*
X114648752Y-101463065D01*
X114648751Y-101463065D01*
X114881948Y-101500000D01*
X115118052Y-101500000D01*
X115351247Y-101463065D01*
X115575802Y-101390102D01*
X115786163Y-101282918D01*
X115786169Y-101282914D01*
X115869104Y-101222658D01*
X115869105Y-101222658D01*
X115170233Y-100523787D01*
X115212292Y-100512518D01*
X115337708Y-100440110D01*
X115440110Y-100337708D01*
X115512518Y-100212292D01*
X115523787Y-100170234D01*
X116222658Y-100869105D01*
X116222658Y-100869104D01*
X116282914Y-100786169D01*
X116282918Y-100786163D01*
X116390102Y-100575802D01*
X116463065Y-100351247D01*
X116500000Y-100118052D01*
X116500000Y-99881947D01*
X116463065Y-99648752D01*
X116390102Y-99424197D01*
X116282914Y-99213828D01*
X116222658Y-99130894D01*
X116222658Y-99130893D01*
X115523787Y-99829765D01*
X115512518Y-99787708D01*
X115440110Y-99662292D01*
X115337708Y-99559890D01*
X115212292Y-99487482D01*
X115170234Y-99476212D01*
X115869105Y-98777340D01*
X115869104Y-98777338D01*
X115786174Y-98717087D01*
X115575802Y-98609897D01*
X115351247Y-98536934D01*
X115351248Y-98536934D01*
X115118052Y-98500000D01*
X114881948Y-98500000D01*
X114648752Y-98536934D01*
X114424197Y-98609897D01*
X114213830Y-98717084D01*
X114130894Y-98777340D01*
X114829766Y-99476212D01*
X114787708Y-99487482D01*
X114662292Y-99559890D01*
X114559890Y-99662292D01*
X114487482Y-99787708D01*
X114476212Y-99829766D01*
X113777340Y-99130894D01*
X113717084Y-99213830D01*
X113609897Y-99424197D01*
X113536934Y-99648752D01*
X113500000Y-99881947D01*
X95428666Y-99881947D01*
X95407079Y-99649790D01*
X95406740Y-99645226D01*
X95394432Y-99424197D01*
X95360865Y-98821402D01*
X95360697Y-98816873D01*
X95345379Y-97990725D01*
X95345359Y-97988425D01*
X95345359Y-97958676D01*
X95345360Y-97923701D01*
X95311252Y-97796407D01*
X95311251Y-97796406D01*
X95311251Y-97796404D01*
X95303090Y-97782269D01*
X95280671Y-97743438D01*
X95280669Y-97743436D01*
X95251659Y-97693187D01*
X95245361Y-97682278D01*
X95152176Y-97589092D01*
X95152175Y-97589091D01*
X95152174Y-97589090D01*
X95152170Y-97589087D01*
X95152048Y-97589017D01*
X95111994Y-97565892D01*
X95066403Y-97539570D01*
X95038048Y-97523199D01*
X95038045Y-97523198D01*
X95013078Y-97516508D01*
X94910752Y-97489089D01*
X94771375Y-97489089D01*
X94771359Y-97489090D01*
X90480022Y-97489090D01*
X90412983Y-97469405D01*
X90367228Y-97416601D01*
X90361787Y-97402460D01*
X90255746Y-97066960D01*
X89730615Y-95405513D01*
X113799500Y-95405513D01*
X113799500Y-95594486D01*
X113829059Y-95781118D01*
X113887454Y-95960836D01*
X113973240Y-96129199D01*
X114084310Y-96282073D01*
X114217927Y-96415690D01*
X114370801Y-96526760D01*
X114450347Y-96567290D01*
X114539163Y-96612545D01*
X114539165Y-96612545D01*
X114539168Y-96612547D01*
X114635497Y-96643846D01*
X114718881Y-96670940D01*
X114905514Y-96700500D01*
X114905519Y-96700500D01*
X115094486Y-96700500D01*
X115281118Y-96670940D01*
X115316203Y-96659540D01*
X115460832Y-96612547D01*
X115629199Y-96526760D01*
X115782073Y-96415690D01*
X115915690Y-96282073D01*
X116026760Y-96129199D01*
X116112547Y-95960832D01*
X116170940Y-95781118D01*
X116184947Y-95692683D01*
X116200500Y-95594486D01*
X116200500Y-95405513D01*
X120299500Y-95405513D01*
X120299500Y-95594486D01*
X120329059Y-95781118D01*
X120387454Y-95960836D01*
X120473240Y-96129199D01*
X120584310Y-96282073D01*
X120717927Y-96415690D01*
X120870801Y-96526760D01*
X120950347Y-96567290D01*
X121039163Y-96612545D01*
X121039165Y-96612545D01*
X121039168Y-96612547D01*
X121135497Y-96643846D01*
X121218881Y-96670940D01*
X121405514Y-96700500D01*
X121405519Y-96700500D01*
X121594486Y-96700500D01*
X121781118Y-96670940D01*
X121816203Y-96659540D01*
X121960832Y-96612547D01*
X122129199Y-96526760D01*
X122282073Y-96415690D01*
X122415690Y-96282073D01*
X122526760Y-96129199D01*
X122612547Y-95960832D01*
X122670940Y-95781118D01*
X122684947Y-95692683D01*
X122700500Y-95594486D01*
X122700500Y-95405513D01*
X122670940Y-95218881D01*
X122636162Y-95111848D01*
X122612547Y-95039168D01*
X122612545Y-95039165D01*
X122612545Y-95039163D01*
X122526759Y-94870800D01*
X122480270Y-94806814D01*
X122415690Y-94717927D01*
X122282073Y-94584310D01*
X122129199Y-94473240D01*
X122115757Y-94466391D01*
X121960836Y-94387454D01*
X121781118Y-94329059D01*
X121594486Y-94299500D01*
X121594481Y-94299500D01*
X121405519Y-94299500D01*
X121405514Y-94299500D01*
X121218881Y-94329059D01*
X121039163Y-94387454D01*
X120870800Y-94473240D01*
X120829380Y-94503334D01*
X120717927Y-94584310D01*
X120717925Y-94584312D01*
X120717924Y-94584312D01*
X120584312Y-94717924D01*
X120584312Y-94717925D01*
X120584310Y-94717927D01*
X120536610Y-94783579D01*
X120473240Y-94870800D01*
X120387454Y-95039163D01*
X120329059Y-95218881D01*
X120299500Y-95405513D01*
X116200500Y-95405513D01*
X116170940Y-95218881D01*
X116136162Y-95111848D01*
X116112547Y-95039168D01*
X116112545Y-95039165D01*
X116112545Y-95039163D01*
X116026759Y-94870800D01*
X115980270Y-94806814D01*
X115915690Y-94717927D01*
X115782073Y-94584310D01*
X115629199Y-94473240D01*
X115615757Y-94466391D01*
X115460836Y-94387454D01*
X115281118Y-94329059D01*
X115094486Y-94299500D01*
X115094481Y-94299500D01*
X114905519Y-94299500D01*
X114905514Y-94299500D01*
X114718881Y-94329059D01*
X114539163Y-94387454D01*
X114370800Y-94473240D01*
X114329380Y-94503334D01*
X114217927Y-94584310D01*
X114217925Y-94584312D01*
X114217924Y-94584312D01*
X114084312Y-94717924D01*
X114084312Y-94717925D01*
X114084310Y-94717927D01*
X114036610Y-94783579D01*
X113973240Y-94870800D01*
X113887454Y-95039163D01*
X113829059Y-95218881D01*
X113799500Y-95405513D01*
X89730615Y-95405513D01*
X83545665Y-75837106D01*
X85099500Y-75837106D01*
X85099500Y-76162893D01*
X85135974Y-76486604D01*
X85135976Y-76486620D01*
X85208467Y-76804226D01*
X85208471Y-76804238D01*
X85316066Y-77111725D01*
X85457413Y-77405234D01*
X85457415Y-77405237D01*
X85630739Y-77681081D01*
X85833857Y-77935783D01*
X86064217Y-78166143D01*
X86318919Y-78369261D01*
X86594763Y-78542585D01*
X86888278Y-78683935D01*
X87119217Y-78764744D01*
X87195761Y-78791528D01*
X87195773Y-78791532D01*
X87513383Y-78864024D01*
X87837106Y-78900499D01*
X87837107Y-78900500D01*
X87837111Y-78900500D01*
X88162893Y-78900500D01*
X88162893Y-78900499D01*
X88486617Y-78864024D01*
X88804227Y-78791532D01*
X89111722Y-78683935D01*
X89405237Y-78542585D01*
X89681081Y-78369261D01*
X89935783Y-78166143D01*
X90166143Y-77935783D01*
X90369261Y-77681081D01*
X90542585Y-77405237D01*
X90683935Y-77111722D01*
X90791532Y-76804227D01*
X90864024Y-76486617D01*
X90900500Y-76162889D01*
X90900500Y-75837111D01*
X90864024Y-75513383D01*
X90791532Y-75195773D01*
X90683935Y-74888278D01*
X90542585Y-74594763D01*
X90369261Y-74318919D01*
X90166143Y-74064217D01*
X89935783Y-73833857D01*
X89681081Y-73630739D01*
X89405237Y-73457415D01*
X89405234Y-73457413D01*
X89111725Y-73316066D01*
X88804238Y-73208471D01*
X88804226Y-73208467D01*
X88486620Y-73135976D01*
X88486604Y-73135974D01*
X88162893Y-73099500D01*
X88162889Y-73099500D01*
X87837111Y-73099500D01*
X87837107Y-73099500D01*
X87513395Y-73135974D01*
X87513379Y-73135976D01*
X87195773Y-73208467D01*
X87195761Y-73208471D01*
X86888274Y-73316066D01*
X86594765Y-73457413D01*
X86318920Y-73630738D01*
X86064217Y-73833856D01*
X85833856Y-74064217D01*
X85630738Y-74318920D01*
X85457413Y-74594765D01*
X85316066Y-74888274D01*
X85208471Y-75195761D01*
X85208467Y-75195773D01*
X85135976Y-75513379D01*
X85135974Y-75513395D01*
X85099500Y-75837106D01*
X83545665Y-75837106D01*
X82410194Y-72244619D01*
X82408760Y-72174764D01*
X82445319Y-72115223D01*
X82508266Y-72084899D01*
X82528429Y-72083249D01*
X110304249Y-72083249D01*
X110371288Y-72102934D01*
G37*
%TD.AperFunction*%
%TD*%
M02*
