M48
; DRILL file KiCad 10.0.4 date 2026-07-02T19:08:34
; FORMAT={-:-/ absolute / metric / decimal}
; #@! TF.CreationDate,2026-07-02T19:08:34+08:00
; #@! TF.GenerationSoftware,Kicad,Pcbnew,10.0.4
; #@! TF.FileFunction,Plated,1,2,PTH
FMAT,2
METRIC
; #@! TA.AperFunction,Plated,PTH,ViaDrill
T1C0.300
; #@! TA.AperFunction,Plated,PTH,ComponentDrill
T2C0.600
; #@! TA.AperFunction,Plated,PTH,ComponentDrill
T3C1.100
%
G90
G05
T1
X98.5Y-105.5
X100.5Y-108.5
X119.0Y-79.0
X120.0Y-107.0
X121.0Y-104.5
X123.5Y-97.5
X123.5Y-110.0
X124.0Y-95.0
X124.5Y-101.5
X125.0Y-97.0
X126.0Y-104.5
X126.5Y-80.0
X129.0Y-104.5
X130.0Y-104.0
X130.5Y-96.0
X131.5Y-105.5
X132.0Y-97.5
X132.5Y-94.0
X135.525Y-114.33
X137.0Y-112.5
T3
X115.0Y-95.5
X115.0Y-100.0
X121.5Y-95.5
X121.5Y-100.0
T2
G00X128.16Y-117.28
M15
G01X128.16Y-117.88
M16
G05
G00X128.16Y-121.08
M15
G01X128.16Y-121.68
M16
G05
G00X136.8Y-117.28
M15
G01X136.8Y-117.88
M16
G05
G00X136.8Y-121.08
M15
G01X136.8Y-121.68
M16
G05
M30
