%TF.GenerationSoftware,KiCad,Pcbnew,10.0.4*%
%TF.CreationDate,2026-07-02T19:08:18+08:00*%
%TF.ProjectId,pcb nameplate,70636220-6e61-46d6-9570-6c6174652e6b,rev?*%
%TF.SameCoordinates,Original*%
%TF.FileFunction,Paste,Top*%
%TF.FilePolarity,Positive*%
%FSLAX46Y46*%
G04 Gerber Fmt 4.6, Leading zero omitted, Abs format (unit mm)*
G04 Created by KiCad (PCBNEW 10.0.4) date 2026-07-02 19:08:18*
%MOMM*%
%LPD*%
G01*
G04 APERTURE LIST*
G04 Aperture macros list*
%AMRoundRect*
0 Rectangle with rounded corners*
0 $1 Rounding radius*
0 $2 $3 $4 $5 $6 $7 $8 $9 X,Y pos of 4 corners*
0 Add a 4 corners polygon primitive as box body*
4,1,4,$2,$3,$4,$5,$6,$7,$8,$9,$2,$3,0*
0 Add four circle primitives for the rounded corners*
1,1,$1+$1,$2,$3*
1,1,$1+$1,$4,$5*
1,1,$1+$1,$6,$7*
1,1,$1+$1,$8,$9*
0 Add four rect primitives between the rounded corners*
20,1,$1+$1,$2,$3,$4,$5,0*
20,1,$1+$1,$4,$5,$6,$7,0*
20,1,$1+$1,$6,$7,$8,$9,0*
20,1,$1+$1,$8,$9,$2,$3,0*%
G04 Aperture macros list end*
%ADD10RoundRect,0.250000X-0.262500X-0.450000X0.262500X-0.450000X0.262500X0.450000X-0.262500X0.450000X0*%
%ADD11RoundRect,0.250000X0.718438X-0.169842X0.537265X0.506306X-0.718438X0.169842X-0.537265X-0.506306X0*%
%ADD12RoundRect,0.243750X-0.516516X0.028093X-0.310490X-0.413732X0.516516X-0.028093X0.310490X0.413732X0*%
%ADD13RoundRect,0.150000X-0.512500X-0.150000X0.512500X-0.150000X0.512500X0.150000X-0.512500X0.150000X0*%
%ADD14RoundRect,0.250000X-0.495000X-0.495000X0.495000X-0.495000X0.495000X0.495000X-0.495000X0.495000X0*%
%ADD15RoundRect,0.062500X-0.337500X-0.062500X0.337500X-0.062500X0.337500X0.062500X-0.337500X0.062500X0*%
%ADD16RoundRect,0.062500X-0.062500X-0.337500X0.062500X-0.337500X0.062500X0.337500X-0.062500X0.337500X0*%
%ADD17RoundRect,0.250000X0.262500X0.450000X-0.262500X0.450000X-0.262500X-0.450000X0.262500X-0.450000X0*%
%ADD18RoundRect,0.250000X-0.450000X0.262500X-0.450000X-0.262500X0.450000X-0.262500X0.450000X0.262500X0*%
%ADD19RoundRect,0.243750X-0.353531X-0.377617X0.117358X-0.503791X0.353531X0.377617X-0.117358X0.503791X0*%
%ADD20RoundRect,0.243750X-0.489429X-0.167443X-0.132894X-0.499917X0.489429X0.167443X0.132894X0.499917X0*%
%ADD21RoundRect,0.243750X-0.479995X-0.192828X-0.106549X-0.506187X0.479995X0.192828X0.106549X0.506187X0*%
%ADD22RoundRect,0.250000X-0.250000X-0.475000X0.250000X-0.475000X0.250000X0.475000X-0.250000X0.475000X0*%
%ADD23RoundRect,0.250000X0.250000X0.475000X-0.250000X0.475000X-0.250000X-0.475000X0.250000X-0.475000X0*%
%ADD24RoundRect,0.175000X-0.175000X-0.425000X0.175000X-0.425000X0.175000X0.425000X-0.175000X0.425000X0*%
%ADD25RoundRect,0.190000X0.190000X0.410000X-0.190000X0.410000X-0.190000X-0.410000X0.190000X-0.410000X0*%
%ADD26RoundRect,0.200000X0.200000X0.400000X-0.200000X0.400000X-0.200000X-0.400000X0.200000X-0.400000X0*%
%ADD27RoundRect,0.175000X0.175000X0.425000X-0.175000X0.425000X-0.175000X-0.425000X0.175000X-0.425000X0*%
%ADD28RoundRect,0.190000X-0.190000X-0.410000X0.190000X-0.410000X0.190000X0.410000X-0.190000X0.410000X0*%
%ADD29RoundRect,0.200000X-0.200000X-0.400000X0.200000X-0.400000X0.200000X0.400000X-0.200000X0.400000X0*%
%ADD30O,1.100000X1.700000*%
G04 APERTURE END LIST*
D10*
%TO.C,R8*%
X125912500Y-106000000D03*
X124087500Y-106000000D03*
%TD*%
D11*
%TO.C,AE1*%
X144375287Y-102400592D03*
X143624713Y-99599408D03*
%TD*%
D12*
%TO.C,D4*%
X95896205Y-108349664D03*
X95103795Y-106650336D03*
%TD*%
D13*
%TO.C,U2*%
X135525000Y-113380000D03*
X135525000Y-114330000D03*
X135525000Y-115280000D03*
X137800000Y-115280000D03*
X137800000Y-113380000D03*
%TD*%
D14*
%TO.C,U1*%
X127325000Y-99525000D03*
X127325000Y-101375000D03*
X129175000Y-99525000D03*
X129175000Y-101375000D03*
D15*
X125800000Y-98700000D03*
X125800000Y-99200000D03*
X125800000Y-99700000D03*
X125800000Y-100200000D03*
X125800000Y-100700000D03*
X125800000Y-101200000D03*
X125800000Y-101700000D03*
X125800000Y-102200000D03*
D16*
X126500000Y-102900000D03*
X127000000Y-102900000D03*
X127500000Y-102900000D03*
X128000000Y-102900000D03*
X128500000Y-102900000D03*
X129000000Y-102900000D03*
X129500000Y-102900000D03*
X130000000Y-102900000D03*
D15*
X130700000Y-102200000D03*
X130700000Y-101700000D03*
X130700000Y-101200000D03*
X130700000Y-100700000D03*
X130700000Y-100200000D03*
X130700000Y-99700000D03*
X130700000Y-99200000D03*
X130700000Y-98700000D03*
D16*
X130000000Y-98000000D03*
X129500000Y-98000000D03*
X129000000Y-98000000D03*
X128500000Y-98000000D03*
X128000000Y-98000000D03*
X127500000Y-98000000D03*
X127000000Y-98000000D03*
X126500000Y-98000000D03*
%TD*%
D10*
%TO.C,R9*%
X126587500Y-110500000D03*
X128412500Y-110500000D03*
%TD*%
%TO.C,R7*%
X126387500Y-112880000D03*
X128212500Y-112880000D03*
%TD*%
D17*
%TO.C,R6*%
X136912500Y-92000000D03*
X135087500Y-92000000D03*
%TD*%
D10*
%TO.C,R5*%
X112675000Y-115500000D03*
X114500000Y-115500000D03*
%TD*%
%TO.C,R4*%
X106087500Y-110500000D03*
X107912500Y-110500000D03*
%TD*%
%TO.C,R3*%
X102087500Y-104500000D03*
X103912500Y-104500000D03*
%TD*%
D18*
%TO.C,R2*%
X131500000Y-83587500D03*
X131500000Y-85412500D03*
%TD*%
%TO.C,R1*%
X123000000Y-79087500D03*
X123000000Y-80912500D03*
%TD*%
D19*
%TO.C,D6*%
X110594445Y-121257357D03*
X112405555Y-121742643D03*
%TD*%
D20*
%TO.C,D5*%
X100814356Y-115860627D03*
X102185644Y-117139373D03*
%TD*%
D12*
%TO.C,D3*%
X139603795Y-87500000D03*
X140396205Y-89199328D03*
%TD*%
D21*
%TO.C,D2*%
X132781833Y-78897387D03*
X134218167Y-80102613D03*
%TD*%
D19*
%TO.C,D1*%
X123094445Y-74257357D03*
X124905555Y-74742643D03*
%TD*%
D22*
%TO.C,C2*%
X142050000Y-113000000D03*
X143950000Y-113000000D03*
%TD*%
D23*
%TO.C,C1*%
X137800000Y-110880000D03*
X135900000Y-110880000D03*
%TD*%
D24*
%TO.C,J2*%
X131980000Y-117500000D03*
D25*
X134000000Y-117500000D03*
D26*
X135230000Y-117500000D03*
D27*
X132980000Y-117500000D03*
D28*
X130960000Y-117500000D03*
D29*
X129730000Y-117500000D03*
D30*
X128160000Y-117580000D03*
X128160000Y-121380000D03*
X136800000Y-117580000D03*
X136800000Y-121380000D03*
%TD*%
M02*
