%TF.GenerationSoftware,KiCad,Pcbnew,10.0.4*%
%TF.CreationDate,2026-07-02T19:08:18+08:00*%
%TF.ProjectId,pcb nameplate,70636220-6e61-46d6-9570-6c6174652e6b,rev?*%
%TF.SameCoordinates,Original*%
%TF.FileFunction,Legend,Bot*%
%TF.FilePolarity,Positive*%
%FSLAX46Y46*%
G04 Gerber Fmt 4.6, Leading zero omitted, Abs format (unit mm)*
G04 Created by KiCad (PCBNEW 10.0.4) date 2026-07-02 19:08:18*
%MOMM*%
%LPD*%
G01*
G04 APERTURE LIST*
%ADD10C,0.100000*%
%ADD11C,0.500000*%
G04 APERTURE END LIST*
D10*
X128458020Y-106250038D02*
X128458020Y-104916704D01*
X128458020Y-104250038D02*
X128553258Y-104345276D01*
X128553258Y-104345276D02*
X128458020Y-104440514D01*
X128458020Y-104440514D02*
X128362782Y-104345276D01*
X128362782Y-104345276D02*
X128458020Y-104250038D01*
X128458020Y-104250038D02*
X128458020Y-104440514D01*
X126648496Y-104916704D02*
X126648496Y-106535752D01*
X126648496Y-106535752D02*
X126743734Y-106726228D01*
X126743734Y-106726228D02*
X126838972Y-106821466D01*
X126838972Y-106821466D02*
X127029449Y-106916704D01*
X127029449Y-106916704D02*
X127315163Y-106916704D01*
X127315163Y-106916704D02*
X127505639Y-106821466D01*
X126648496Y-106154800D02*
X126838972Y-106250038D01*
X126838972Y-106250038D02*
X127219925Y-106250038D01*
X127219925Y-106250038D02*
X127410401Y-106154800D01*
X127410401Y-106154800D02*
X127505639Y-106059561D01*
X127505639Y-106059561D02*
X127600877Y-105869085D01*
X127600877Y-105869085D02*
X127600877Y-105297657D01*
X127600877Y-105297657D02*
X127505639Y-105107180D01*
X127505639Y-105107180D02*
X127410401Y-105011942D01*
X127410401Y-105011942D02*
X127219925Y-104916704D01*
X127219925Y-104916704D02*
X126838972Y-104916704D01*
X126838972Y-104916704D02*
X126648496Y-105011942D01*
X125696115Y-106059561D02*
X125600877Y-106154800D01*
X125600877Y-106154800D02*
X125696115Y-106250038D01*
X125696115Y-106250038D02*
X125791353Y-106154800D01*
X125791353Y-106154800D02*
X125696115Y-106059561D01*
X125696115Y-106059561D02*
X125696115Y-106250038D01*
X125696115Y-105011942D02*
X125600877Y-105107180D01*
X125600877Y-105107180D02*
X125696115Y-105202419D01*
X125696115Y-105202419D02*
X125791353Y-105107180D01*
X125791353Y-105107180D02*
X125696115Y-105011942D01*
X125696115Y-105011942D02*
X125696115Y-105202419D01*
X123219924Y-106250038D02*
X123219924Y-104250038D01*
X123029448Y-105488133D02*
X122458019Y-106250038D01*
X122458019Y-104916704D02*
X123219924Y-105678609D01*
X120838971Y-106154800D02*
X121029447Y-106250038D01*
X121029447Y-106250038D02*
X121410400Y-106250038D01*
X121410400Y-106250038D02*
X121600876Y-106154800D01*
X121600876Y-106154800D02*
X121696114Y-105964323D01*
X121696114Y-105964323D02*
X121696114Y-105202419D01*
X121696114Y-105202419D02*
X121600876Y-105011942D01*
X121600876Y-105011942D02*
X121410400Y-104916704D01*
X121410400Y-104916704D02*
X121029447Y-104916704D01*
X121029447Y-104916704D02*
X120838971Y-105011942D01*
X120838971Y-105011942D02*
X120743733Y-105202419D01*
X120743733Y-105202419D02*
X120743733Y-105392895D01*
X120743733Y-105392895D02*
X121696114Y-105583371D01*
X120077066Y-104916704D02*
X119600876Y-106250038D01*
X119600876Y-106250038D02*
X119124685Y-104916704D01*
X118362780Y-106250038D02*
X118362780Y-104916704D01*
X118362780Y-104250038D02*
X118458018Y-104345276D01*
X118458018Y-104345276D02*
X118362780Y-104440514D01*
X118362780Y-104440514D02*
X118267542Y-104345276D01*
X118267542Y-104345276D02*
X118362780Y-104250038D01*
X118362780Y-104250038D02*
X118362780Y-104440514D01*
X117410399Y-104916704D02*
X117410399Y-106250038D01*
X117410399Y-105107180D02*
X117315161Y-105011942D01*
X117315161Y-105011942D02*
X117124685Y-104916704D01*
X117124685Y-104916704D02*
X116838970Y-104916704D01*
X116838970Y-104916704D02*
X116648494Y-105011942D01*
X116648494Y-105011942D02*
X116553256Y-105202419D01*
X116553256Y-105202419D02*
X116553256Y-106250038D01*
X115791351Y-104916704D02*
X115410399Y-106250038D01*
X115410399Y-106250038D02*
X115029446Y-105297657D01*
X115029446Y-105297657D02*
X114648494Y-106250038D01*
X114648494Y-106250038D02*
X114267542Y-104916704D01*
X112648494Y-104916704D02*
X112648494Y-106250038D01*
X113505637Y-104916704D02*
X113505637Y-105964323D01*
X113505637Y-105964323D02*
X113410399Y-106154800D01*
X113410399Y-106154800D02*
X113219923Y-106250038D01*
X113219923Y-106250038D02*
X112934208Y-106250038D01*
X112934208Y-106250038D02*
X112743732Y-106154800D01*
X112743732Y-106154800D02*
X112648494Y-106059561D01*
X111981827Y-104916704D02*
X111219923Y-104916704D01*
X111696113Y-104250038D02*
X111696113Y-105964323D01*
X111696113Y-105964323D02*
X111600875Y-106154800D01*
X111600875Y-106154800D02*
X111410399Y-106250038D01*
X111410399Y-106250038D02*
X111219923Y-106250038D01*
X110743732Y-104916704D02*
X109696113Y-104916704D01*
X109696113Y-104916704D02*
X110743732Y-106250038D01*
X110743732Y-106250038D02*
X109696113Y-106250038D01*
X108077065Y-104916704D02*
X108077065Y-106250038D01*
X108934208Y-104916704D02*
X108934208Y-105964323D01*
X108934208Y-105964323D02*
X108838970Y-106154800D01*
X108838970Y-106154800D02*
X108648494Y-106250038D01*
X108648494Y-106250038D02*
X108362779Y-106250038D01*
X108362779Y-106250038D02*
X108172303Y-106154800D01*
X108172303Y-106154800D02*
X108077065Y-106059561D01*
X107124684Y-104916704D02*
X107124684Y-106916704D01*
X107124684Y-105011942D02*
X106934208Y-104916704D01*
X106934208Y-104916704D02*
X106553255Y-104916704D01*
X106553255Y-104916704D02*
X106362779Y-105011942D01*
X106362779Y-105011942D02*
X106267541Y-105107180D01*
X106267541Y-105107180D02*
X106172303Y-105297657D01*
X106172303Y-105297657D02*
X106172303Y-105869085D01*
X106172303Y-105869085D02*
X106267541Y-106059561D01*
X106267541Y-106059561D02*
X106362779Y-106154800D01*
X106362779Y-106154800D02*
X106553255Y-106250038D01*
X106553255Y-106250038D02*
X106934208Y-106250038D01*
X106934208Y-106250038D02*
X107124684Y-106154800D01*
X129600877Y-102250038D02*
X129600877Y-100250038D01*
X129600877Y-102154800D02*
X129791353Y-102250038D01*
X129791353Y-102250038D02*
X130172306Y-102250038D01*
X130172306Y-102250038D02*
X130362782Y-102154800D01*
X130362782Y-102154800D02*
X130458020Y-102059561D01*
X130458020Y-102059561D02*
X130553258Y-101869085D01*
X130553258Y-101869085D02*
X130553258Y-101297657D01*
X130553258Y-101297657D02*
X130458020Y-101107180D01*
X130458020Y-101107180D02*
X130362782Y-101011942D01*
X130362782Y-101011942D02*
X130172306Y-100916704D01*
X130172306Y-100916704D02*
X129791353Y-100916704D01*
X129791353Y-100916704D02*
X129600877Y-101011942D01*
X128648496Y-102250038D02*
X128648496Y-100916704D01*
X128648496Y-100250038D02*
X128743734Y-100345276D01*
X128743734Y-100345276D02*
X128648496Y-100440514D01*
X128648496Y-100440514D02*
X128553258Y-100345276D01*
X128553258Y-100345276D02*
X128648496Y-100250038D01*
X128648496Y-100250038D02*
X128648496Y-100440514D01*
X127791353Y-102154800D02*
X127600877Y-102250038D01*
X127600877Y-102250038D02*
X127219925Y-102250038D01*
X127219925Y-102250038D02*
X127029448Y-102154800D01*
X127029448Y-102154800D02*
X126934210Y-101964323D01*
X126934210Y-101964323D02*
X126934210Y-101869085D01*
X126934210Y-101869085D02*
X127029448Y-101678609D01*
X127029448Y-101678609D02*
X127219925Y-101583371D01*
X127219925Y-101583371D02*
X127505639Y-101583371D01*
X127505639Y-101583371D02*
X127696115Y-101488133D01*
X127696115Y-101488133D02*
X127791353Y-101297657D01*
X127791353Y-101297657D02*
X127791353Y-101202419D01*
X127791353Y-101202419D02*
X127696115Y-101011942D01*
X127696115Y-101011942D02*
X127505639Y-100916704D01*
X127505639Y-100916704D02*
X127219925Y-100916704D01*
X127219925Y-100916704D02*
X127029448Y-101011942D01*
X125219924Y-102154800D02*
X125410400Y-102250038D01*
X125410400Y-102250038D02*
X125791353Y-102250038D01*
X125791353Y-102250038D02*
X125981829Y-102154800D01*
X125981829Y-102154800D02*
X126077067Y-102059561D01*
X126077067Y-102059561D02*
X126172305Y-101869085D01*
X126172305Y-101869085D02*
X126172305Y-101297657D01*
X126172305Y-101297657D02*
X126077067Y-101107180D01*
X126077067Y-101107180D02*
X125981829Y-101011942D01*
X125981829Y-101011942D02*
X125791353Y-100916704D01*
X125791353Y-100916704D02*
X125410400Y-100916704D01*
X125410400Y-100916704D02*
X125219924Y-101011942D01*
X124077067Y-102250038D02*
X124267543Y-102154800D01*
X124267543Y-102154800D02*
X124362781Y-102059561D01*
X124362781Y-102059561D02*
X124458019Y-101869085D01*
X124458019Y-101869085D02*
X124458019Y-101297657D01*
X124458019Y-101297657D02*
X124362781Y-101107180D01*
X124362781Y-101107180D02*
X124267543Y-101011942D01*
X124267543Y-101011942D02*
X124077067Y-100916704D01*
X124077067Y-100916704D02*
X123791352Y-100916704D01*
X123791352Y-100916704D02*
X123600876Y-101011942D01*
X123600876Y-101011942D02*
X123505638Y-101107180D01*
X123505638Y-101107180D02*
X123410400Y-101297657D01*
X123410400Y-101297657D02*
X123410400Y-101869085D01*
X123410400Y-101869085D02*
X123505638Y-102059561D01*
X123505638Y-102059561D02*
X123600876Y-102154800D01*
X123600876Y-102154800D02*
X123791352Y-102250038D01*
X123791352Y-102250038D02*
X124077067Y-102250038D01*
X122553257Y-102250038D02*
X122553257Y-100916704D01*
X122553257Y-101297657D02*
X122458019Y-101107180D01*
X122458019Y-101107180D02*
X122362781Y-101011942D01*
X122362781Y-101011942D02*
X122172305Y-100916704D01*
X122172305Y-100916704D02*
X121981828Y-100916704D01*
X120458019Y-102250038D02*
X120458019Y-100250038D01*
X120458019Y-102154800D02*
X120648495Y-102250038D01*
X120648495Y-102250038D02*
X121029448Y-102250038D01*
X121029448Y-102250038D02*
X121219924Y-102154800D01*
X121219924Y-102154800D02*
X121315162Y-102059561D01*
X121315162Y-102059561D02*
X121410400Y-101869085D01*
X121410400Y-101869085D02*
X121410400Y-101297657D01*
X121410400Y-101297657D02*
X121315162Y-101107180D01*
X121315162Y-101107180D02*
X121219924Y-101011942D01*
X121219924Y-101011942D02*
X121029448Y-100916704D01*
X121029448Y-100916704D02*
X120648495Y-100916704D01*
X120648495Y-100916704D02*
X120458019Y-101011942D01*
X119505638Y-102059561D02*
X119410400Y-102154800D01*
X119410400Y-102154800D02*
X119505638Y-102250038D01*
X119505638Y-102250038D02*
X119600876Y-102154800D01*
X119600876Y-102154800D02*
X119505638Y-102059561D01*
X119505638Y-102059561D02*
X119505638Y-102250038D01*
X119505638Y-101011942D02*
X119410400Y-101107180D01*
X119410400Y-101107180D02*
X119505638Y-101202419D01*
X119505638Y-101202419D02*
X119600876Y-101107180D01*
X119600876Y-101107180D02*
X119505638Y-101011942D01*
X119505638Y-101011942D02*
X119505638Y-101202419D01*
X116267542Y-102154800D02*
X116458018Y-102250038D01*
X116458018Y-102250038D02*
X116838971Y-102250038D01*
X116838971Y-102250038D02*
X117029447Y-102154800D01*
X117029447Y-102154800D02*
X117124685Y-101964323D01*
X117124685Y-101964323D02*
X117124685Y-101202419D01*
X117124685Y-101202419D02*
X117029447Y-101011942D01*
X117029447Y-101011942D02*
X116838971Y-100916704D01*
X116838971Y-100916704D02*
X116458018Y-100916704D01*
X116458018Y-100916704D02*
X116267542Y-101011942D01*
X116267542Y-101011942D02*
X116172304Y-101202419D01*
X116172304Y-101202419D02*
X116172304Y-101392895D01*
X116172304Y-101392895D02*
X117124685Y-101583371D01*
X114458018Y-102154800D02*
X114648494Y-102250038D01*
X114648494Y-102250038D02*
X115029447Y-102250038D01*
X115029447Y-102250038D02*
X115219923Y-102154800D01*
X115219923Y-102154800D02*
X115315161Y-102059561D01*
X115315161Y-102059561D02*
X115410399Y-101869085D01*
X115410399Y-101869085D02*
X115410399Y-101297657D01*
X115410399Y-101297657D02*
X115315161Y-101107180D01*
X115315161Y-101107180D02*
X115219923Y-101011942D01*
X115219923Y-101011942D02*
X115029447Y-100916704D01*
X115029447Y-100916704D02*
X114648494Y-100916704D01*
X114648494Y-100916704D02*
X114458018Y-101011942D01*
X113315161Y-102250038D02*
X113505637Y-102154800D01*
X113505637Y-102154800D02*
X113600875Y-101964323D01*
X113600875Y-101964323D02*
X113600875Y-100250038D01*
X112553256Y-102250038D02*
X112553256Y-100916704D01*
X112553256Y-100250038D02*
X112648494Y-100345276D01*
X112648494Y-100345276D02*
X112553256Y-100440514D01*
X112553256Y-100440514D02*
X112458018Y-100345276D01*
X112458018Y-100345276D02*
X112553256Y-100250038D01*
X112553256Y-100250038D02*
X112553256Y-100440514D01*
X111600875Y-100916704D02*
X111600875Y-102916704D01*
X111600875Y-101011942D02*
X111410399Y-100916704D01*
X111410399Y-100916704D02*
X111029446Y-100916704D01*
X111029446Y-100916704D02*
X110838970Y-101011942D01*
X110838970Y-101011942D02*
X110743732Y-101107180D01*
X110743732Y-101107180D02*
X110648494Y-101297657D01*
X110648494Y-101297657D02*
X110648494Y-101869085D01*
X110648494Y-101869085D02*
X110743732Y-102059561D01*
X110743732Y-102059561D02*
X110838970Y-102154800D01*
X110838970Y-102154800D02*
X111029446Y-102250038D01*
X111029446Y-102250038D02*
X111410399Y-102250038D01*
X111410399Y-102250038D02*
X111600875Y-102154800D01*
X109886589Y-102154800D02*
X109696113Y-102250038D01*
X109696113Y-102250038D02*
X109315161Y-102250038D01*
X109315161Y-102250038D02*
X109124684Y-102154800D01*
X109124684Y-102154800D02*
X109029446Y-101964323D01*
X109029446Y-101964323D02*
X109029446Y-101869085D01*
X109029446Y-101869085D02*
X109124684Y-101678609D01*
X109124684Y-101678609D02*
X109315161Y-101583371D01*
X109315161Y-101583371D02*
X109600875Y-101583371D01*
X109600875Y-101583371D02*
X109791351Y-101488133D01*
X109791351Y-101488133D02*
X109886589Y-101297657D01*
X109886589Y-101297657D02*
X109886589Y-101202419D01*
X109886589Y-101202419D02*
X109791351Y-101011942D01*
X109791351Y-101011942D02*
X109600875Y-100916704D01*
X109600875Y-100916704D02*
X109315161Y-100916704D01*
X109315161Y-100916704D02*
X109124684Y-101011942D01*
X107410398Y-102154800D02*
X107600874Y-102250038D01*
X107600874Y-102250038D02*
X107981827Y-102250038D01*
X107981827Y-102250038D02*
X108172303Y-102154800D01*
X108172303Y-102154800D02*
X108267541Y-101964323D01*
X108267541Y-101964323D02*
X108267541Y-101202419D01*
X108267541Y-101202419D02*
X108172303Y-101011942D01*
X108172303Y-101011942D02*
X107981827Y-100916704D01*
X107981827Y-100916704D02*
X107600874Y-100916704D01*
X107600874Y-100916704D02*
X107410398Y-101011942D01*
X107410398Y-101011942D02*
X107315160Y-101202419D01*
X107315160Y-101202419D02*
X107315160Y-101392895D01*
X107315160Y-101392895D02*
X108267541Y-101583371D01*
X106934208Y-102440514D02*
X105410398Y-102440514D01*
X104077064Y-102154800D02*
X104267540Y-102250038D01*
X104267540Y-102250038D02*
X104648493Y-102250038D01*
X104648493Y-102250038D02*
X104838969Y-102154800D01*
X104838969Y-102154800D02*
X104934207Y-102059561D01*
X104934207Y-102059561D02*
X105029445Y-101869085D01*
X105029445Y-101869085D02*
X105029445Y-101297657D01*
X105029445Y-101297657D02*
X104934207Y-101107180D01*
X104934207Y-101107180D02*
X104838969Y-101011942D01*
X104838969Y-101011942D02*
X104648493Y-100916704D01*
X104648493Y-100916704D02*
X104267540Y-100916704D01*
X104267540Y-100916704D02*
X104077064Y-101011942D01*
X134100877Y-96916704D02*
X134100877Y-98535752D01*
X134100877Y-98535752D02*
X134196115Y-98726228D01*
X134196115Y-98726228D02*
X134291353Y-98821466D01*
X134291353Y-98821466D02*
X134481830Y-98916704D01*
X134481830Y-98916704D02*
X134767544Y-98916704D01*
X134767544Y-98916704D02*
X134958020Y-98821466D01*
X134100877Y-98154800D02*
X134291353Y-98250038D01*
X134291353Y-98250038D02*
X134672306Y-98250038D01*
X134672306Y-98250038D02*
X134862782Y-98154800D01*
X134862782Y-98154800D02*
X134958020Y-98059561D01*
X134958020Y-98059561D02*
X135053258Y-97869085D01*
X135053258Y-97869085D02*
X135053258Y-97297657D01*
X135053258Y-97297657D02*
X134958020Y-97107180D01*
X134958020Y-97107180D02*
X134862782Y-97011942D01*
X134862782Y-97011942D02*
X134672306Y-96916704D01*
X134672306Y-96916704D02*
X134291353Y-96916704D01*
X134291353Y-96916704D02*
X134100877Y-97011942D01*
X133148496Y-98250038D02*
X133148496Y-96916704D01*
X133148496Y-96250038D02*
X133243734Y-96345276D01*
X133243734Y-96345276D02*
X133148496Y-96440514D01*
X133148496Y-96440514D02*
X133053258Y-96345276D01*
X133053258Y-96345276D02*
X133148496Y-96250038D01*
X133148496Y-96250038D02*
X133148496Y-96440514D01*
X132481829Y-96916704D02*
X131719925Y-96916704D01*
X132196115Y-96250038D02*
X132196115Y-97964323D01*
X132196115Y-97964323D02*
X132100877Y-98154800D01*
X132100877Y-98154800D02*
X131910401Y-98250038D01*
X131910401Y-98250038D02*
X131719925Y-98250038D01*
X131053258Y-98250038D02*
X131053258Y-96250038D01*
X130196115Y-98250038D02*
X130196115Y-97202419D01*
X130196115Y-97202419D02*
X130291353Y-97011942D01*
X130291353Y-97011942D02*
X130481829Y-96916704D01*
X130481829Y-96916704D02*
X130767544Y-96916704D01*
X130767544Y-96916704D02*
X130958020Y-97011942D01*
X130958020Y-97011942D02*
X131053258Y-97107180D01*
X128386591Y-96916704D02*
X128386591Y-98250038D01*
X129243734Y-96916704D02*
X129243734Y-97964323D01*
X129243734Y-97964323D02*
X129148496Y-98154800D01*
X129148496Y-98154800D02*
X128958020Y-98250038D01*
X128958020Y-98250038D02*
X128672305Y-98250038D01*
X128672305Y-98250038D02*
X128481829Y-98154800D01*
X128481829Y-98154800D02*
X128386591Y-98059561D01*
X127434210Y-98250038D02*
X127434210Y-96250038D01*
X127434210Y-97011942D02*
X127243734Y-96916704D01*
X127243734Y-96916704D02*
X126862781Y-96916704D01*
X126862781Y-96916704D02*
X126672305Y-97011942D01*
X126672305Y-97011942D02*
X126577067Y-97107180D01*
X126577067Y-97107180D02*
X126481829Y-97297657D01*
X126481829Y-97297657D02*
X126481829Y-97869085D01*
X126481829Y-97869085D02*
X126577067Y-98059561D01*
X126577067Y-98059561D02*
X126672305Y-98154800D01*
X126672305Y-98154800D02*
X126862781Y-98250038D01*
X126862781Y-98250038D02*
X127243734Y-98250038D01*
X127243734Y-98250038D02*
X127434210Y-98154800D01*
X125624686Y-98059561D02*
X125529448Y-98154800D01*
X125529448Y-98154800D02*
X125624686Y-98250038D01*
X125624686Y-98250038D02*
X125719924Y-98154800D01*
X125719924Y-98154800D02*
X125624686Y-98059561D01*
X125624686Y-98059561D02*
X125624686Y-98250038D01*
X125624686Y-97011942D02*
X125529448Y-97107180D01*
X125529448Y-97107180D02*
X125624686Y-97202419D01*
X125624686Y-97202419D02*
X125719924Y-97107180D01*
X125719924Y-97107180D02*
X125624686Y-97011942D01*
X125624686Y-97011942D02*
X125624686Y-97202419D01*
X122005638Y-98059561D02*
X122100876Y-98154800D01*
X122100876Y-98154800D02*
X122386590Y-98250038D01*
X122386590Y-98250038D02*
X122577066Y-98250038D01*
X122577066Y-98250038D02*
X122862781Y-98154800D01*
X122862781Y-98154800D02*
X123053257Y-97964323D01*
X123053257Y-97964323D02*
X123148495Y-97773847D01*
X123148495Y-97773847D02*
X123243733Y-97392895D01*
X123243733Y-97392895D02*
X123243733Y-97107180D01*
X123243733Y-97107180D02*
X123148495Y-96726228D01*
X123148495Y-96726228D02*
X123053257Y-96535752D01*
X123053257Y-96535752D02*
X122862781Y-96345276D01*
X122862781Y-96345276D02*
X122577066Y-96250038D01*
X122577066Y-96250038D02*
X122386590Y-96250038D01*
X122386590Y-96250038D02*
X122100876Y-96345276D01*
X122100876Y-96345276D02*
X122005638Y-96440514D01*
X120862781Y-98250038D02*
X121053257Y-98154800D01*
X121053257Y-98154800D02*
X121148495Y-98059561D01*
X121148495Y-98059561D02*
X121243733Y-97869085D01*
X121243733Y-97869085D02*
X121243733Y-97297657D01*
X121243733Y-97297657D02*
X121148495Y-97107180D01*
X121148495Y-97107180D02*
X121053257Y-97011942D01*
X121053257Y-97011942D02*
X120862781Y-96916704D01*
X120862781Y-96916704D02*
X120577066Y-96916704D01*
X120577066Y-96916704D02*
X120386590Y-97011942D01*
X120386590Y-97011942D02*
X120291352Y-97107180D01*
X120291352Y-97107180D02*
X120196114Y-97297657D01*
X120196114Y-97297657D02*
X120196114Y-97869085D01*
X120196114Y-97869085D02*
X120291352Y-98059561D01*
X120291352Y-98059561D02*
X120386590Y-98154800D01*
X120386590Y-98154800D02*
X120577066Y-98250038D01*
X120577066Y-98250038D02*
X120862781Y-98250038D01*
X119338971Y-96916704D02*
X119338971Y-98250038D01*
X119338971Y-97107180D02*
X119243733Y-97011942D01*
X119243733Y-97011942D02*
X119053257Y-96916704D01*
X119053257Y-96916704D02*
X118767542Y-96916704D01*
X118767542Y-96916704D02*
X118577066Y-97011942D01*
X118577066Y-97011942D02*
X118481828Y-97202419D01*
X118481828Y-97202419D02*
X118481828Y-98250038D01*
X117624685Y-98154800D02*
X117434209Y-98250038D01*
X117434209Y-98250038D02*
X117053257Y-98250038D01*
X117053257Y-98250038D02*
X116862780Y-98154800D01*
X116862780Y-98154800D02*
X116767542Y-97964323D01*
X116767542Y-97964323D02*
X116767542Y-97869085D01*
X116767542Y-97869085D02*
X116862780Y-97678609D01*
X116862780Y-97678609D02*
X117053257Y-97583371D01*
X117053257Y-97583371D02*
X117338971Y-97583371D01*
X117338971Y-97583371D02*
X117529447Y-97488133D01*
X117529447Y-97488133D02*
X117624685Y-97297657D01*
X117624685Y-97297657D02*
X117624685Y-97202419D01*
X117624685Y-97202419D02*
X117529447Y-97011942D01*
X117529447Y-97011942D02*
X117338971Y-96916704D01*
X117338971Y-96916704D02*
X117053257Y-96916704D01*
X117053257Y-96916704D02*
X116862780Y-97011942D01*
X116196113Y-96916704D02*
X115434209Y-96916704D01*
X115910399Y-96250038D02*
X115910399Y-97964323D01*
X115910399Y-97964323D02*
X115815161Y-98154800D01*
X115815161Y-98154800D02*
X115624685Y-98250038D01*
X115624685Y-98250038D02*
X115434209Y-98250038D01*
X114005637Y-98154800D02*
X114196113Y-98250038D01*
X114196113Y-98250038D02*
X114577066Y-98250038D01*
X114577066Y-98250038D02*
X114767542Y-98154800D01*
X114767542Y-98154800D02*
X114862780Y-97964323D01*
X114862780Y-97964323D02*
X114862780Y-97202419D01*
X114862780Y-97202419D02*
X114767542Y-97011942D01*
X114767542Y-97011942D02*
X114577066Y-96916704D01*
X114577066Y-96916704D02*
X114196113Y-96916704D01*
X114196113Y-96916704D02*
X114005637Y-97011942D01*
X114005637Y-97011942D02*
X113910399Y-97202419D01*
X113910399Y-97202419D02*
X113910399Y-97392895D01*
X113910399Y-97392895D02*
X114862780Y-97583371D01*
X112767542Y-98250038D02*
X112958018Y-98154800D01*
X112958018Y-98154800D02*
X113053256Y-97964323D01*
X113053256Y-97964323D02*
X113053256Y-96250038D01*
X111719923Y-98250038D02*
X111910399Y-98154800D01*
X111910399Y-98154800D02*
X112005637Y-97964323D01*
X112005637Y-97964323D02*
X112005637Y-96250038D01*
X110100875Y-98250038D02*
X110100875Y-97202419D01*
X110100875Y-97202419D02*
X110196113Y-97011942D01*
X110196113Y-97011942D02*
X110386589Y-96916704D01*
X110386589Y-96916704D02*
X110767542Y-96916704D01*
X110767542Y-96916704D02*
X110958018Y-97011942D01*
X110100875Y-98154800D02*
X110291351Y-98250038D01*
X110291351Y-98250038D02*
X110767542Y-98250038D01*
X110767542Y-98250038D02*
X110958018Y-98154800D01*
X110958018Y-98154800D02*
X111053256Y-97964323D01*
X111053256Y-97964323D02*
X111053256Y-97773847D01*
X111053256Y-97773847D02*
X110958018Y-97583371D01*
X110958018Y-97583371D02*
X110767542Y-97488133D01*
X110767542Y-97488133D02*
X110291351Y-97488133D01*
X110291351Y-97488133D02*
X110100875Y-97392895D01*
X109434208Y-96916704D02*
X108672304Y-96916704D01*
X109148494Y-96250038D02*
X109148494Y-97964323D01*
X109148494Y-97964323D02*
X109053256Y-98154800D01*
X109053256Y-98154800D02*
X108862780Y-98250038D01*
X108862780Y-98250038D02*
X108672304Y-98250038D01*
X108005637Y-98250038D02*
X108005637Y-96916704D01*
X108005637Y-96250038D02*
X108100875Y-96345276D01*
X108100875Y-96345276D02*
X108005637Y-96440514D01*
X108005637Y-96440514D02*
X107910399Y-96345276D01*
X107910399Y-96345276D02*
X108005637Y-96250038D01*
X108005637Y-96250038D02*
X108005637Y-96440514D01*
X106767542Y-98250038D02*
X106958018Y-98154800D01*
X106958018Y-98154800D02*
X107053256Y-98059561D01*
X107053256Y-98059561D02*
X107148494Y-97869085D01*
X107148494Y-97869085D02*
X107148494Y-97297657D01*
X107148494Y-97297657D02*
X107053256Y-97107180D01*
X107053256Y-97107180D02*
X106958018Y-97011942D01*
X106958018Y-97011942D02*
X106767542Y-96916704D01*
X106767542Y-96916704D02*
X106481827Y-96916704D01*
X106481827Y-96916704D02*
X106291351Y-97011942D01*
X106291351Y-97011942D02*
X106196113Y-97107180D01*
X106196113Y-97107180D02*
X106100875Y-97297657D01*
X106100875Y-97297657D02*
X106100875Y-97869085D01*
X106100875Y-97869085D02*
X106196113Y-98059561D01*
X106196113Y-98059561D02*
X106291351Y-98154800D01*
X106291351Y-98154800D02*
X106481827Y-98250038D01*
X106481827Y-98250038D02*
X106767542Y-98250038D01*
X105243732Y-96916704D02*
X105243732Y-98250038D01*
X105243732Y-97107180D02*
X105148494Y-97011942D01*
X105148494Y-97011942D02*
X104958018Y-96916704D01*
X104958018Y-96916704D02*
X104672303Y-96916704D01*
X104672303Y-96916704D02*
X104481827Y-97011942D01*
X104481827Y-97011942D02*
X104386589Y-97202419D01*
X104386589Y-97202419D02*
X104386589Y-98250038D01*
X103434208Y-98250038D02*
X103434208Y-96250038D01*
X102291351Y-98250038D02*
X103148494Y-97107180D01*
X102291351Y-96250038D02*
X103434208Y-97392895D01*
X100672303Y-98154800D02*
X100862779Y-98250038D01*
X100862779Y-98250038D02*
X101243732Y-98250038D01*
X101243732Y-98250038D02*
X101434208Y-98154800D01*
X101434208Y-98154800D02*
X101529446Y-97964323D01*
X101529446Y-97964323D02*
X101529446Y-97202419D01*
X101529446Y-97202419D02*
X101434208Y-97011942D01*
X101434208Y-97011942D02*
X101243732Y-96916704D01*
X101243732Y-96916704D02*
X100862779Y-96916704D01*
X100862779Y-96916704D02*
X100672303Y-97011942D01*
X100672303Y-97011942D02*
X100577065Y-97202419D01*
X100577065Y-97202419D02*
X100577065Y-97392895D01*
X100577065Y-97392895D02*
X101529446Y-97583371D01*
X99910398Y-96916704D02*
X99434208Y-98250038D01*
X99434208Y-98250038D02*
X98958017Y-96916704D01*
D11*
G36*
X124489379Y-92756306D02*
G01*
X124489379Y-93308906D01*
X123835266Y-93308906D01*
X123835266Y-93613141D01*
X124489379Y-93613141D01*
X124489379Y-94575000D01*
X124849637Y-94575000D01*
X124849637Y-92451919D01*
X123793287Y-92451919D01*
X123793287Y-92756306D01*
X124489379Y-92756306D01*
G37*
G36*
X123216569Y-93336841D02*
G01*
X123144529Y-93255825D01*
X123055549Y-93197653D01*
X122946125Y-93161099D01*
X122810820Y-93148011D01*
X122726144Y-93156907D01*
X122649925Y-93182968D01*
X122691905Y-93490714D01*
X122772370Y-93454072D01*
X122859822Y-93441865D01*
X122966242Y-93455321D01*
X123049994Y-93493073D01*
X123116605Y-93554974D01*
X123168238Y-93645773D01*
X123203264Y-93774307D01*
X123216569Y-93952486D01*
X123216569Y-94575000D01*
X123555914Y-94575000D01*
X123555914Y-93193501D01*
X123216569Y-93193501D01*
X123216569Y-93336841D01*
G37*
G36*
X122105008Y-93161747D02*
G01*
X122234530Y-93200900D01*
X122346187Y-93264175D01*
X122442930Y-93352717D01*
X122519437Y-93459388D01*
X122575444Y-93583271D01*
X122610636Y-93727593D01*
X122623059Y-93896462D01*
X122610426Y-94055530D01*
X122574345Y-94193418D01*
X122516272Y-94313795D01*
X122435908Y-94419447D01*
X122336082Y-94506211D01*
X122221307Y-94568425D01*
X122088646Y-94606973D01*
X121933989Y-94620490D01*
X121779177Y-94607460D01*
X121649099Y-94570676D01*
X121539148Y-94512000D01*
X121445973Y-94431069D01*
X121367768Y-94325339D01*
X121304453Y-94190317D01*
X121626243Y-94137805D01*
X121672272Y-94244885D01*
X121736904Y-94316582D01*
X121821869Y-94360045D01*
X121933989Y-94375636D01*
X122029871Y-94361075D01*
X122108930Y-94318834D01*
X122175484Y-94246340D01*
X122222495Y-94156155D01*
X122252207Y-94047930D01*
X122262800Y-93917528D01*
X121297431Y-93917528D01*
X121297431Y-93872038D01*
X121307801Y-93728545D01*
X121612199Y-93728545D01*
X122252267Y-93728545D01*
X122242561Y-93642981D01*
X122213366Y-93561412D01*
X122163119Y-93482013D01*
X122097048Y-93418263D01*
X122021271Y-93381032D01*
X121932309Y-93368287D01*
X121842970Y-93380562D01*
X121767185Y-93416242D01*
X121701500Y-93476823D01*
X121651852Y-93553035D01*
X121622277Y-93636184D01*
X121612199Y-93728545D01*
X121307801Y-93728545D01*
X121309553Y-93704296D01*
X121343670Y-93562899D01*
X121397569Y-93443372D01*
X121470690Y-93342184D01*
X121563426Y-93258892D01*
X121672410Y-93198801D01*
X121800880Y-93161273D01*
X121953375Y-93148011D01*
X122105008Y-93161747D01*
G37*
G36*
X120776583Y-93315928D02*
G01*
X120705909Y-93244621D01*
X120618533Y-93192725D01*
X120510892Y-93159829D01*
X120377856Y-93148011D01*
X120266960Y-93161520D01*
X120170252Y-93200895D01*
X120084205Y-93267148D01*
X120007065Y-93364776D01*
X119931658Y-93271144D01*
X119837719Y-93204555D01*
X119721530Y-93162916D01*
X119576892Y-93148011D01*
X119443333Y-93163743D01*
X119339587Y-93207431D01*
X119258487Y-93277883D01*
X119196688Y-93379348D01*
X119155303Y-93520770D01*
X119139698Y-93714654D01*
X119139698Y-94575000D01*
X119475532Y-94575000D01*
X119475532Y-93847461D01*
X119489568Y-93660526D01*
X119524936Y-93538886D01*
X119574706Y-93463543D01*
X119637269Y-93421252D01*
X119716874Y-93406755D01*
X119794398Y-93421945D01*
X119856537Y-93467060D01*
X119907091Y-93549417D01*
X119943602Y-93685102D01*
X119958217Y-93896462D01*
X119958217Y-94575000D01*
X120297409Y-94575000D01*
X120297409Y-93875549D01*
X120310715Y-93670663D01*
X120343758Y-93540419D01*
X120388982Y-93462535D01*
X120443647Y-93420656D01*
X120510816Y-93406755D01*
X120598281Y-93422784D01*
X120667136Y-93469613D01*
X120722016Y-93553216D01*
X120761071Y-93688426D01*
X120776583Y-93896462D01*
X120776583Y-94575000D01*
X121115928Y-94575000D01*
X121115928Y-93193501D01*
X120776583Y-93193501D01*
X120776583Y-93315928D01*
G37*
G36*
X118386898Y-93161812D02*
G01*
X118525099Y-93201297D01*
X118645727Y-93265188D01*
X118751657Y-93354396D01*
X118837848Y-93463288D01*
X118899626Y-93585963D01*
X118937741Y-93725085D01*
X118951020Y-93884250D01*
X118937544Y-94043210D01*
X118898832Y-94182252D01*
X118835995Y-94304997D01*
X118748146Y-94414105D01*
X118640515Y-94503503D01*
X118518914Y-94567394D01*
X118380604Y-94606767D01*
X118221803Y-94620490D01*
X118062954Y-94606715D01*
X117925298Y-94567275D01*
X117804913Y-94503390D01*
X117698970Y-94414105D01*
X117612854Y-94305228D01*
X117551069Y-94182309D01*
X117512912Y-94042639D01*
X117499747Y-93884250D01*
X117842310Y-93884250D01*
X117854168Y-94000740D01*
X117888577Y-94103505D01*
X117945503Y-94195507D01*
X118022132Y-94268531D01*
X118112181Y-94311699D01*
X118220123Y-94326635D01*
X118328805Y-94312630D01*
X118420712Y-94272156D01*
X118499934Y-94204208D01*
X118558967Y-94117004D01*
X118595437Y-94013022D01*
X118608317Y-93887761D01*
X118595506Y-93762331D01*
X118559084Y-93657088D01*
X118499934Y-93567803D01*
X118420493Y-93497642D01*
X118329119Y-93456152D01*
X118221803Y-93441865D01*
X118115006Y-93456709D01*
X118024934Y-93499804D01*
X117947335Y-93572993D01*
X117889340Y-93665117D01*
X117854354Y-93767872D01*
X117842310Y-93884250D01*
X117499747Y-93884250D01*
X117499607Y-93882571D01*
X117513044Y-93722500D01*
X117551553Y-93583163D01*
X117613888Y-93460821D01*
X117700802Y-93352717D01*
X117807433Y-93264257D01*
X117928629Y-93200868D01*
X118067232Y-93161696D01*
X118227145Y-93148011D01*
X118386898Y-93161812D01*
G37*
G36*
X116976164Y-93319439D02*
G01*
X116898803Y-93246513D01*
X116804998Y-93193467D01*
X116691335Y-93159976D01*
X116553013Y-93148011D01*
X116405849Y-93164685D01*
X116292328Y-93210739D01*
X116204407Y-93284357D01*
X116138041Y-93389334D01*
X116093918Y-93534400D01*
X116077350Y-93732056D01*
X116077350Y-94575000D01*
X116413032Y-94575000D01*
X116413032Y-93843950D01*
X116427974Y-93662233D01*
X116466013Y-93542117D01*
X116520573Y-93465976D01*
X116590901Y-93422087D01*
X116682309Y-93406755D01*
X116782482Y-93423350D01*
X116859314Y-93470728D01*
X116918695Y-93552600D01*
X116959974Y-93681305D01*
X116976164Y-93875549D01*
X116976164Y-94575000D01*
X117315509Y-94575000D01*
X117315509Y-93193501D01*
X116976164Y-93193501D01*
X116976164Y-93319439D01*
G37*
G36*
X115377595Y-94575000D02*
G01*
X115716787Y-94575000D01*
X115716787Y-93497736D01*
X115881193Y-93497736D01*
X115881193Y-93221436D01*
X115716787Y-93221436D01*
X115716787Y-92724860D01*
X115377595Y-92724860D01*
X115377595Y-93221436D01*
X115108317Y-93221436D01*
X115108317Y-93497736D01*
X115377595Y-93497736D01*
X115377595Y-94575000D01*
G37*
G36*
X114420468Y-94176273D02*
G01*
X114826064Y-95022727D01*
X115088472Y-94991281D01*
X114780726Y-94134294D01*
X114420468Y-94176273D01*
G37*
G36*
X111610759Y-92959180D02*
G01*
X111711392Y-92859552D01*
X111820869Y-92790665D01*
X111941270Y-92749372D01*
X112075889Y-92735240D01*
X112215149Y-92750218D01*
X112340557Y-92794149D01*
X112455501Y-92867809D01*
X112562085Y-92974904D01*
X112648377Y-93099985D01*
X112709040Y-93231658D01*
X112745543Y-93371642D01*
X112757937Y-93522160D01*
X112745751Y-93667312D01*
X112709734Y-93803286D01*
X112649628Y-93932195D01*
X112563764Y-94055678D01*
X112458214Y-94160916D01*
X112343932Y-94233481D01*
X112218793Y-94276862D01*
X112079400Y-94291678D01*
X111946636Y-94277721D01*
X111826115Y-94236693D01*
X111714806Y-94167854D01*
X111610759Y-94067890D01*
X111610759Y-94505085D01*
X111786787Y-94577687D01*
X111945429Y-94618224D01*
X112089781Y-94631023D01*
X112262543Y-94617682D01*
X112420770Y-94578704D01*
X112567064Y-94514583D01*
X112703470Y-94424368D01*
X112831363Y-94305722D01*
X112940331Y-94169532D01*
X113023821Y-94025342D01*
X113083430Y-93871821D01*
X113119699Y-93707166D01*
X113132087Y-93529182D01*
X113119575Y-93343678D01*
X113083045Y-93172933D01*
X113023224Y-93014654D01*
X112939786Y-92866941D01*
X112831363Y-92728371D01*
X112703242Y-92607207D01*
X112566100Y-92515081D01*
X112418522Y-92449570D01*
X112258370Y-92409709D01*
X112082911Y-92396048D01*
X111929416Y-92409118D01*
X111772706Y-92449163D01*
X111610759Y-92518475D01*
X111610759Y-92959180D01*
G37*
G36*
X111512909Y-94575000D02*
G01*
X111131738Y-94575000D01*
X110942908Y-94099337D01*
X110124389Y-94099337D01*
X109946092Y-94575000D01*
X109561256Y-94575000D01*
X109841475Y-93816015D01*
X110222391Y-93816015D01*
X110855438Y-93816015D01*
X110547692Y-92917201D01*
X110222391Y-93816015D01*
X109841475Y-93816015D01*
X110365731Y-92396048D01*
X110687521Y-92396048D01*
X111512909Y-94575000D01*
G37*
G36*
X127959621Y-88442302D02*
G01*
X127414105Y-88442302D01*
X128383504Y-89617599D01*
X127359516Y-90990000D01*
X127934525Y-90990000D01*
X128853733Y-89726592D01*
X128857763Y-90990000D01*
X129290073Y-90990000D01*
X129290073Y-88442302D01*
X128857763Y-88442302D01*
X128857763Y-89634269D01*
X127959621Y-88442302D01*
G37*
G36*
X126837814Y-89332201D02*
G01*
X126837814Y-90230343D01*
X126820104Y-90426591D01*
X126774498Y-90558529D01*
X126707711Y-90644232D01*
X126619353Y-90694976D01*
X126502041Y-90713028D01*
X126384728Y-90694976D01*
X126296370Y-90644232D01*
X126229583Y-90558529D01*
X126183978Y-90426591D01*
X126166268Y-90230343D01*
X126166268Y-89332201D01*
X125759054Y-89332201D01*
X125759054Y-90305814D01*
X125776478Y-90514757D01*
X125824198Y-90678549D01*
X125898021Y-90806643D01*
X125997587Y-90905826D01*
X126126403Y-90979488D01*
X126291367Y-91027166D01*
X126502041Y-91044588D01*
X126712650Y-91027168D01*
X126877569Y-90979495D01*
X127006353Y-90905839D01*
X127105899Y-90806660D01*
X127179709Y-90678566D01*
X127227423Y-90514769D01*
X127244844Y-90305814D01*
X127244844Y-89332201D01*
X126837814Y-89332201D01*
G37*
G36*
X125021013Y-89483326D02*
G01*
X124928180Y-89395815D01*
X124815614Y-89332161D01*
X124679219Y-89291971D01*
X124513232Y-89277613D01*
X124336635Y-89297623D01*
X124200410Y-89352887D01*
X124094905Y-89441228D01*
X124015265Y-89567201D01*
X123962318Y-89741280D01*
X123942437Y-89978468D01*
X123942437Y-90990000D01*
X124345254Y-90990000D01*
X124345254Y-90112740D01*
X124363185Y-89894680D01*
X124408832Y-89750541D01*
X124474303Y-89659172D01*
X124558697Y-89606504D01*
X124668387Y-89588107D01*
X124788595Y-89608020D01*
X124880793Y-89664874D01*
X124952051Y-89763120D01*
X125001586Y-89917567D01*
X125021013Y-90150659D01*
X125021013Y-90990000D01*
X125428227Y-90990000D01*
X125428227Y-89332201D01*
X125021013Y-89332201D01*
X125021013Y-89483326D01*
G37*
G36*
X122200375Y-90658440D02*
G01*
X122200375Y-90990000D01*
X123740753Y-90990000D01*
X122846641Y-89663761D01*
X123640003Y-89663761D01*
X123640003Y-89332201D01*
X122179309Y-89332201D01*
X123060781Y-90658440D01*
X122200375Y-90658440D01*
G37*
G36*
X121571327Y-88123382D02*
G01*
X121571327Y-89470687D01*
X121485210Y-89390093D01*
X121375743Y-89330245D01*
X121237599Y-89291647D01*
X121063546Y-89277613D01*
X120937866Y-89290663D01*
X120828889Y-89328300D01*
X120733036Y-89390294D01*
X120648089Y-89479113D01*
X120563375Y-89620523D01*
X120511093Y-89785062D01*
X120492751Y-89978468D01*
X120492751Y-90990000D01*
X120895568Y-90990000D01*
X120895568Y-90112740D01*
X120913500Y-89894680D01*
X120959146Y-89750541D01*
X121024617Y-89659172D01*
X121109011Y-89606504D01*
X121218702Y-89588107D01*
X121338068Y-89608292D01*
X121430097Y-89666181D01*
X121501669Y-89766872D01*
X121551666Y-89926084D01*
X121571327Y-90167329D01*
X121571327Y-90990000D01*
X121978541Y-90990000D01*
X121978541Y-88123382D01*
X121571327Y-88123382D01*
G37*
G36*
X119588842Y-89294175D02*
G01*
X119754683Y-89341556D01*
X119899437Y-89418226D01*
X120026552Y-89525275D01*
X120129982Y-89655946D01*
X120204116Y-89803156D01*
X120249853Y-89970103D01*
X120265788Y-90161100D01*
X120249617Y-90351852D01*
X120203163Y-90518702D01*
X120127758Y-90665997D01*
X120022339Y-90796926D01*
X119893182Y-90904204D01*
X119747261Y-90980873D01*
X119581288Y-91028120D01*
X119390727Y-91044588D01*
X119200108Y-91028059D01*
X119034922Y-90980730D01*
X118890460Y-90904069D01*
X118763328Y-90796926D01*
X118659988Y-90666274D01*
X118585847Y-90518770D01*
X118540058Y-90351167D01*
X118524259Y-90161100D01*
X118935336Y-90161100D01*
X118949565Y-90300889D01*
X118990856Y-90424207D01*
X119059167Y-90534609D01*
X119151123Y-90622237D01*
X119259181Y-90674038D01*
X119388712Y-90691962D01*
X119519130Y-90675156D01*
X119629419Y-90626587D01*
X119724485Y-90545050D01*
X119795325Y-90440405D01*
X119839088Y-90315627D01*
X119854544Y-90165314D01*
X119839171Y-90014797D01*
X119795464Y-89888506D01*
X119724485Y-89781364D01*
X119629155Y-89697171D01*
X119519506Y-89647382D01*
X119390727Y-89630239D01*
X119262571Y-89648051D01*
X119154485Y-89699765D01*
X119061366Y-89787592D01*
X118991772Y-89898140D01*
X118949789Y-90021446D01*
X118935336Y-90161100D01*
X118524259Y-90161100D01*
X118524092Y-90159085D01*
X118540217Y-89967000D01*
X118586427Y-89799796D01*
X118661230Y-89652985D01*
X118765526Y-89523260D01*
X118893483Y-89417109D01*
X119038919Y-89341042D01*
X119205243Y-89294035D01*
X119397138Y-89277613D01*
X119588842Y-89294175D01*
G37*
G36*
X117895961Y-89483326D02*
G01*
X117803127Y-89395815D01*
X117690562Y-89332161D01*
X117554166Y-89291971D01*
X117388180Y-89277613D01*
X117211583Y-89297623D01*
X117075357Y-89352887D01*
X116969853Y-89441228D01*
X116890213Y-89567201D01*
X116837265Y-89741280D01*
X116817384Y-89978468D01*
X116817384Y-90990000D01*
X117220202Y-90990000D01*
X117220202Y-90112740D01*
X117238133Y-89894680D01*
X117283780Y-89750541D01*
X117349251Y-89659172D01*
X117433645Y-89606504D01*
X117543335Y-89588107D01*
X117663543Y-89608020D01*
X117755741Y-89664874D01*
X117826998Y-89763120D01*
X117876533Y-89917567D01*
X117895961Y-90150659D01*
X117895961Y-90990000D01*
X118303175Y-90990000D01*
X118303175Y-89332201D01*
X117895961Y-89332201D01*
X117895961Y-89483326D01*
G37*
G36*
X115973309Y-89285737D02*
G01*
X116118606Y-89333617D01*
X116247852Y-89412526D01*
X116363825Y-89525275D01*
X116455969Y-89658496D01*
X116522429Y-89807189D01*
X116563502Y-89974187D01*
X116577782Y-90163115D01*
X116564594Y-90337311D01*
X116526502Y-90492760D01*
X116464605Y-90632573D01*
X116378480Y-90759190D01*
X116270412Y-90864906D01*
X116145305Y-90940030D01*
X115999774Y-90986381D01*
X115828750Y-91002639D01*
X115655565Y-90987323D01*
X115514718Y-90944608D01*
X115399745Y-90877105D01*
X115306132Y-90784286D01*
X115306132Y-90889249D01*
X115325564Y-91077173D01*
X115376551Y-91206884D01*
X115453699Y-91294313D01*
X115559764Y-91348101D01*
X115704919Y-91367721D01*
X115801088Y-91355013D01*
X115891129Y-91316746D01*
X115977677Y-91250118D01*
X116048667Y-91166281D01*
X116087158Y-91087538D01*
X116099310Y-91011065D01*
X116531620Y-91011065D01*
X116516073Y-91158548D01*
X116470957Y-91288181D01*
X116396145Y-91403925D01*
X116288354Y-91508222D01*
X116162214Y-91590531D01*
X116022540Y-91649921D01*
X115866909Y-91686572D01*
X115692280Y-91699281D01*
X115471289Y-91679943D01*
X115296920Y-91626738D01*
X115159343Y-91543795D01*
X115051730Y-91430824D01*
X114971033Y-91283175D01*
X114918414Y-91092444D01*
X114899101Y-90847301D01*
X114899101Y-90125380D01*
X115247330Y-90125380D01*
X115261956Y-90271979D01*
X115303587Y-90395639D01*
X115371161Y-90501086D01*
X115462589Y-90583372D01*
X115571955Y-90632751D01*
X115704919Y-90650013D01*
X115852204Y-90634883D01*
X115963907Y-90593627D01*
X116048463Y-90529060D01*
X116110784Y-90439226D01*
X116151441Y-90317767D01*
X116166538Y-90154872D01*
X116151418Y-90005571D01*
X116108390Y-89879899D01*
X116038494Y-89772937D01*
X115944454Y-89688935D01*
X115834952Y-89639062D01*
X115704919Y-89621812D01*
X115573913Y-89637914D01*
X115465125Y-89683972D01*
X115373360Y-89760298D01*
X115304901Y-89859328D01*
X115262415Y-89979137D01*
X115247330Y-90125380D01*
X114899101Y-90125380D01*
X114899101Y-89323775D01*
X115306132Y-89323775D01*
X115306132Y-89483326D01*
X115393695Y-89392499D01*
X115502991Y-89326348D01*
X115638713Y-89284326D01*
X115807684Y-89269187D01*
X115973309Y-89285737D01*
G37*
G36*
X112365692Y-90326880D02*
G01*
X111815779Y-88408780D01*
X111589183Y-88408780D01*
X111014174Y-90326880D01*
X110451805Y-88442302D01*
X109998429Y-88442302D01*
X110863049Y-91040375D01*
X111190396Y-91040375D01*
X111731882Y-89290252D01*
X112252302Y-91040375D01*
X112583862Y-91040375D01*
X113393893Y-88442302D01*
X112940701Y-88442302D01*
X112365692Y-90326880D01*
G37*
G36*
X109401916Y-89293885D02*
G01*
X109543449Y-89341128D01*
X109670345Y-89419317D01*
X109785205Y-89531503D01*
X109877206Y-89663870D01*
X109942974Y-89808761D01*
X109983253Y-89968583D01*
X109997147Y-90146446D01*
X109983690Y-90324175D01*
X109944419Y-90486681D01*
X109879933Y-90636606D01*
X109789419Y-90776043D01*
X109675765Y-90894356D01*
X109547474Y-90976989D01*
X109401573Y-91027180D01*
X109233278Y-91044588D01*
X109060444Y-91030093D01*
X108919188Y-90989662D01*
X108803398Y-90925947D01*
X108708644Y-90838874D01*
X108708644Y-90990000D01*
X108309856Y-90990000D01*
X108309856Y-90158902D01*
X108662482Y-90158902D01*
X108677935Y-90319474D01*
X108720785Y-90447243D01*
X108788511Y-90549263D01*
X108880592Y-90628108D01*
X108989376Y-90675455D01*
X109120071Y-90691962D01*
X109250490Y-90675156D01*
X109360778Y-90626587D01*
X109455844Y-90545050D01*
X109526407Y-90440284D01*
X109570304Y-90313534D01*
X109585903Y-90158902D01*
X109570466Y-90004163D01*
X109527174Y-89878213D01*
X109457859Y-89774952D01*
X109364342Y-89694702D01*
X109255462Y-89646828D01*
X109126299Y-89630239D01*
X108997369Y-89647181D01*
X108887781Y-89696308D01*
X108792725Y-89779166D01*
X108721616Y-89885032D01*
X108677868Y-90009914D01*
X108662482Y-90158902D01*
X108309856Y-90158902D01*
X108309856Y-89332201D01*
X108708644Y-89332201D01*
X108708644Y-89487540D01*
X108805637Y-89398532D01*
X108923609Y-89333520D01*
X109066945Y-89292348D01*
X109241704Y-89277613D01*
X109401916Y-89293885D01*
G37*
G36*
X107561557Y-89483326D02*
G01*
X107468724Y-89395815D01*
X107356158Y-89332161D01*
X107219763Y-89291971D01*
X107053777Y-89277613D01*
X106877180Y-89297623D01*
X106740954Y-89352887D01*
X106635449Y-89441228D01*
X106555810Y-89567201D01*
X106502862Y-89741280D01*
X106482981Y-89978468D01*
X106482981Y-90990000D01*
X106885799Y-90990000D01*
X106885799Y-90112740D01*
X106903730Y-89894680D01*
X106949376Y-89750541D01*
X107014848Y-89659172D01*
X107099242Y-89606504D01*
X107208932Y-89588107D01*
X107329139Y-89608020D01*
X107421337Y-89664874D01*
X107492595Y-89763120D01*
X107542130Y-89917567D01*
X107561557Y-90150659D01*
X107561557Y-90990000D01*
X107968771Y-90990000D01*
X107968771Y-89332201D01*
X107561557Y-89332201D01*
X107561557Y-89483326D01*
G37*
G36*
X105638905Y-89285737D02*
G01*
X105784202Y-89333617D01*
X105913448Y-89412526D01*
X106029422Y-89525275D01*
X106121566Y-89658496D01*
X106188026Y-89807189D01*
X106229099Y-89974187D01*
X106243379Y-90163115D01*
X106230190Y-90337311D01*
X106192099Y-90492760D01*
X106130202Y-90632573D01*
X106044077Y-90759190D01*
X105936008Y-90864906D01*
X105810902Y-90940030D01*
X105665371Y-90986381D01*
X105494347Y-91002639D01*
X105321161Y-90987323D01*
X105180315Y-90944608D01*
X105065341Y-90877105D01*
X104971728Y-90784286D01*
X104971728Y-90889249D01*
X104991160Y-91077173D01*
X105042148Y-91206884D01*
X105119296Y-91294313D01*
X105225361Y-91348101D01*
X105370516Y-91367721D01*
X105466685Y-91355013D01*
X105556726Y-91316746D01*
X105643274Y-91250118D01*
X105714264Y-91166281D01*
X105752754Y-91087538D01*
X105764907Y-91011065D01*
X106197217Y-91011065D01*
X106181670Y-91158548D01*
X106136554Y-91288181D01*
X106061742Y-91403925D01*
X105953951Y-91508222D01*
X105827811Y-91590531D01*
X105688136Y-91649921D01*
X105532505Y-91686572D01*
X105357876Y-91699281D01*
X105136886Y-91679943D01*
X104962516Y-91626738D01*
X104824940Y-91543795D01*
X104717326Y-91430824D01*
X104636630Y-91283175D01*
X104584011Y-91092444D01*
X104564698Y-90847301D01*
X104564698Y-90125380D01*
X104912927Y-90125380D01*
X104927553Y-90271979D01*
X104969184Y-90395639D01*
X105036758Y-90501086D01*
X105128185Y-90583372D01*
X105237552Y-90632751D01*
X105370516Y-90650013D01*
X105517801Y-90634883D01*
X105629504Y-90593627D01*
X105714059Y-90529060D01*
X105776381Y-90439226D01*
X105817038Y-90317767D01*
X105832135Y-90154872D01*
X105817015Y-90005571D01*
X105773987Y-89879899D01*
X105704091Y-89772937D01*
X105610051Y-89688935D01*
X105500549Y-89639062D01*
X105370516Y-89621812D01*
X105239510Y-89637914D01*
X105130722Y-89683972D01*
X105038956Y-89760298D01*
X104970498Y-89859328D01*
X104928012Y-89979137D01*
X104912927Y-90125380D01*
X104564698Y-90125380D01*
X104564698Y-89323775D01*
X104971728Y-89323775D01*
X104971728Y-89483326D01*
X105059291Y-89392499D01*
X105168587Y-89326348D01*
X105304310Y-89284326D01*
X105473281Y-89269187D01*
X105638905Y-89285737D01*
G37*
M02*
